<svg xmlns="http://www.w3.org/2000/svg" viewBox="0 0 270 270"><defs><style>.cls-1,.cls-5{fill:#fff;}.cls-1,.cls-4,.cls-5,.cls-6{stroke:#000;stroke-miterlimit:10;}.cls-1{stroke-width:3px;}.cls-2{fill:#0847b0;}.cls-3{fill:#ff0300;}.cls-4{fill:red;}.cls-6{fill:none;}.cls-7{fill:#040404;}.cls-8{fill:#fed018;}</style></defs><g id="Layer_2" data-name="Layer 2"><g id="Layer_1-2" data-name="Layer 1"><circle class="cls-1" cx="135" cy="135" r="133.5"/><path class="cls-2" d="M40.62,210.77a8.14,8.14,0,0,1,2.63-1.66,5.91,5.91,0,0,1,2.71-.36,6.85,6.85,0,0,1,2.73.94A11.47,11.47,0,0,1,51.42,212l1.16,1.27,4.83-4.42a.5.5,0,0,1,.28-.12.86.86,0,0,1,.39.12,3.67,3.67,0,0,1,.52.38,8,8,0,0,1,.72.72,8.32,8.32,0,0,1,.64.77,3.48,3.48,0,0,1,.34.56.66.66,0,0,1,.07.39.51.51,0,0,1-.14.26L46.59,224.35a1.44,1.44,0,0,1-1.08.46,1.42,1.42,0,0,1-1-.5l-3.26-3.57c-.33-.36-.62-.72-.89-1.07a13,13,0,0,1-.89-1.32,7.18,7.18,0,0,1-.76-1.83,5.64,5.64,0,0,1-.17-2,5.37,5.37,0,0,1,.62-1.94A7.22,7.22,0,0,1,40.62,210.77Zm3.17,3a3.73,3.73,0,0,0-1.06,1.48,2.72,2.72,0,0,0-.13,1.39,3,3,0,0,0,.48,1.14,8.91,8.91,0,0,0,.78,1l1.2,1.31,5.14-4.69L48.94,214A4.38,4.38,0,0,0,47.61,213a2.81,2.81,0,0,0-1.3-.3A3,3,0,0,0,45,213,4.48,4.48,0,0,0,43.79,213.79Z"/><path class="cls-2" d="M34.23,189.3A9.54,9.54,0,0,1,37.37,188a6.64,6.64,0,0,1,3,0,7.12,7.12,0,0,1,2.75,1.4,12.57,12.57,0,0,1,3.88,6,6.76,6.76,0,0,1,.17,3A6.41,6.41,0,0,1,46,201a9.54,9.54,0,0,1-2.59,2.32l-10.52,6.72a.43.43,0,0,1-.29.07.59.59,0,0,1-.36-.17,3.64,3.64,0,0,1-.45-.48,7.41,7.41,0,0,1-.59-.83c-.21-.33-.38-.62-.5-.86a3.44,3.44,0,0,1-.23-.61.74.74,0,0,1,0-.39.39.39,0,0,1,.19-.24L40.85,200a6.68,6.68,0,0,0,1.62-1.39,4,4,0,0,0,.78-1.53,3.6,3.6,0,0,0,0-1.6,5,5,0,0,0-.7-1.64,4.81,4.81,0,0,0-1.2-1.32,3.55,3.55,0,0,0-1.45-.64,4,4,0,0,0-1.65.07,5.77,5.77,0,0,0-1.78.79L26.08,199.4a.43.43,0,0,1-.29.07.65.65,0,0,1-.36-.17,3,3,0,0,1-.45-.47,7.86,7.86,0,0,1-.58-.82c-.22-.34-.38-.63-.5-.86a3.7,3.7,0,0,1-.23-.6.64.64,0,0,1,0-.39.5.5,0,0,1,.19-.24Z"/><path class="cls-2" d="M27.78,170.57a6.29,6.29,0,0,1,1.95-.47,5.18,5.18,0,0,1,1.77.17,5.25,5.25,0,0,1,1.56.72,7.32,7.32,0,0,1,1.37,1.19,10.56,10.56,0,0,1,1.16,1.58,14.49,14.49,0,0,1,1,2l2.09,5a1.31,1.31,0,0,1,0,.93,1.28,1.28,0,0,1-.8.71l-16.53,6.83a1.31,1.31,0,0,1-1.07.05,1.28,1.28,0,0,1-.62-.69l-2-4.77a13.24,13.24,0,0,1-.92-3.07,6.18,6.18,0,0,1,0-2.4,4.29,4.29,0,0,1,1-1.89,5.26,5.26,0,0,1,2-1.33,5.06,5.06,0,0,1,1.37-.36,4.16,4.16,0,0,1,1.32.06,4.05,4.05,0,0,1,1.22.47,4.59,4.59,0,0,1,1.08.86,5.16,5.16,0,0,1-.1-1.7,4.3,4.3,0,0,1,.45-1.57,4.75,4.75,0,0,1,1-1.36A5.34,5.34,0,0,1,27.78,170.57Zm-5.93,8.29a2.76,2.76,0,0,0-1,.6,1.93,1.93,0,0,0-.54.83,2.69,2.69,0,0,0-.1,1.08,5.86,5.86,0,0,0,.43,1.5l.81,1.95,4.92-2-.89-2.15a3.84,3.84,0,0,0-.75-1.25,2.35,2.35,0,0,0-1.89-.77A3,3,0,0,0,21.85,178.86Zm7.71-4.34a3.13,3.13,0,0,0-1.08.71,2.42,2.42,0,0,0-.61,1,3.26,3.26,0,0,0-.1,1.31,7.09,7.09,0,0,0,.52,1.79l.95,2.29,5.39-2.23-1.15-2.78a4.82,4.82,0,0,0-.73-1.29,2.82,2.82,0,0,0-.89-.74,2.35,2.35,0,0,0-1.08-.29A2.87,2.87,0,0,0,29.56,174.52Z"/><path class="cls-2" d="M28.42,155.16a6.9,6.9,0,0,1,.79-.16,2.58,2.58,0,0,1,.55,0,.66.66,0,0,1,.35.11.51.51,0,0,1,.16.25l2.3,9.12a1.28,1.28,0,0,1-.08.93,1.26,1.26,0,0,1-.89.59l-18.06,4.56a.42.42,0,0,1-.31,0,.68.68,0,0,1-.28-.28,3.3,3.3,0,0,1-.28-.59,8.21,8.21,0,0,1-.29-1c-.1-.4-.17-.73-.21-1a3.83,3.83,0,0,1,0-.64.63.63,0,0,1,.12-.38.39.39,0,0,1,.25-.17l16-4.05-1.58-6.26a.48.48,0,0,1,0-.29.61.61,0,0,1,.23-.26,2.12,2.12,0,0,1,.48-.24A6.34,6.34,0,0,1,28.42,155.16Z"/><path class="cls-2" d="M28.78,148.74a.4.4,0,0,1,.3.06.65.65,0,0,1,.25.3,3.21,3.21,0,0,1,.22.61,8.75,8.75,0,0,1,.2,1c.05.4.09.73.1,1a4,4,0,0,1,0,.66.67.67,0,0,1-.15.36.46.46,0,0,1-.27.15l-19.16,2.83a.39.39,0,0,1-.3-.06.69.69,0,0,1-.26-.31,4.27,4.27,0,0,1-.22-.62,9,9,0,0,1-.19-1,9.45,9.45,0,0,1-.1-1,3.13,3.13,0,0,1,0-.65.75.75,0,0,1,.15-.36.52.52,0,0,1,.27-.15Z"/><path class="cls-2" d="M25.2,130.7h.67a2.84,2.84,0,0,1,.48.06,1.6,1.6,0,0,1,.35.12,2.19,2.19,0,0,1,.33.24,3.24,3.24,0,0,1,.49.66,7.94,7.94,0,0,1,.58,1.2,10,10,0,0,1,.49,1.64,10.24,10.24,0,0,1,.24,2,10.62,10.62,0,0,1-.53,3.82,7.55,7.55,0,0,1-1.85,2.95,8.63,8.63,0,0,1-3.17,1.92,14.72,14.72,0,0,1-4.48.78,14.41,14.41,0,0,1-4.66-.55,9.67,9.67,0,0,1-3.47-1.85,8,8,0,0,1-2.19-2.93,10.29,10.29,0,0,1-.84-3.84,11.1,11.1,0,0,1,.09-1.65,10.09,10.09,0,0,1,.33-1.48,7.69,7.69,0,0,1,.49-1.23,4.35,4.35,0,0,1,.49-.77,1.6,1.6,0,0,1,.35-.3,1.23,1.23,0,0,1,.36-.14,3.28,3.28,0,0,1,.52-.09l.75,0c.31,0,.58,0,.81,0a2.32,2.32,0,0,1,.54.09.82.82,0,0,1,.31.18.42.42,0,0,1,.1.26,1.15,1.15,0,0,1-.26.61,10.7,10.7,0,0,0-.59,1,8.12,8.12,0,0,0-.57,1.4,5.9,5.9,0,0,0-.22,1.92,4.74,4.74,0,0,0,.57,2.16,4.58,4.58,0,0,0,1.48,1.59,6.78,6.78,0,0,0,2.27,1,11.63,11.63,0,0,0,3,.25,11.65,11.65,0,0,0,3.12-.47A6,6,0,0,0,23.7,140a4.22,4.22,0,0,0,1.22-1.7,5.44,5.44,0,0,0,.35-2.21,6.19,6.19,0,0,0-.32-1.91,8.06,8.06,0,0,0-.62-1.37,9.58,9.58,0,0,0-.6-.93,1.16,1.16,0,0,1-.27-.57.41.41,0,0,1,.05-.26.57.57,0,0,1,.25-.17,3.19,3.19,0,0,1,.53-.11C24.52,130.73,24.82,130.71,25.2,130.7Z"/><path class="cls-2" d="M29.78,109.13q.45.09.75.18a1.73,1.73,0,0,1,.47.21.69.69,0,0,1,.24.24.53.53,0,0,1,0,.28l-1.85,10.14a1.16,1.16,0,0,1-1.52,1L10.32,118a1.26,1.26,0,0,1-.93-.53,1.31,1.31,0,0,1-.15-.92l1.84-10.08a.4.4,0,0,1,.12-.23.6.6,0,0,1,.31-.14,2,2,0,0,1,.52,0,7.58,7.58,0,0,1,.78.1c.29.06.53.12.73.18a1.6,1.6,0,0,1,.47.21.59.59,0,0,1,.24.23.42.42,0,0,1,0,.27L13,114.21l4.93.9L19,109a.47.47,0,0,1,.13-.24.61.61,0,0,1,.3-.15,1.62,1.62,0,0,1,.51,0,6.77,6.77,0,0,1,.75.09,5.75,5.75,0,0,1,.74.18,1.93,1.93,0,0,1,.45.2.5.5,0,0,1,.22.24.42.42,0,0,1,0,.27L21,115.68l5.7,1,1.32-7.27a.47.47,0,0,1,.13-.24.69.69,0,0,1,.31-.15,1.71,1.71,0,0,1,.52,0A6.91,6.91,0,0,1,29.78,109.13Z"/><path class="cls-2" d="M39.94,84.25a.6.6,0,0,1,.23.19.59.59,0,0,1,.07.37,3,3,0,0,1-.11.62,8.23,8.23,0,0,1-.31.91,6.71,6.71,0,0,1-.4.87,2.63,2.63,0,0,1-.34.51.62.62,0,0,1-.31.22.44.44,0,0,1-.3,0L23,81.74v0l13.29,11.7a.62.62,0,0,1,.24.32,1,1,0,0,1,.06.44,2.64,2.64,0,0,1-.14.62c-.08.24-.18.53-.32.86a9,9,0,0,1-.37.84,3.24,3.24,0,0,1-.35.53,1.28,1.28,0,0,1-.35.29.7.7,0,0,1-.35.06L17,96.58v0l15.51,6.19a.47.47,0,0,1,.23.18.62.62,0,0,1,.07.38,3.56,3.56,0,0,1-.1.62c-.07.24-.17.54-.31.91s-.28.64-.4.86a2.44,2.44,0,0,1-.35.52.53.53,0,0,1-.3.22.61.61,0,0,1-.3,0l-17-6.78a1.67,1.67,0,0,1-1-.85,1.57,1.57,0,0,1,0-1.22l1-2.54A5.69,5.69,0,0,1,14.71,94a2.48,2.48,0,0,1,.71-.7,2.4,2.4,0,0,1,.91-.32,5.38,5.38,0,0,1,1.2,0l13,.4,0-.06-9.63-8.79a6.41,6.41,0,0,1-.87-.83,2.47,2.47,0,0,1-.48-.81,1.91,1.91,0,0,1-.1-.86,4.07,4.07,0,0,1,.28-1l1-2.6a2.22,2.22,0,0,1,.37-.65,1.35,1.35,0,0,1,.49-.35,1.31,1.31,0,0,1,.6-.08,2,2,0,0,1,.69.16Z"/><path class="cls-2" d="M38.41,62.06a8.13,8.13,0,0,1,2.25,2.14,5.85,5.85,0,0,1,1,2.55,6.8,6.8,0,0,1-.24,2.87,11.44,11.44,0,0,1-1.55,3.21l-.94,1.43,5.46,3.61a.43.43,0,0,1,.18.24.7.7,0,0,1,0,.4,3.09,3.09,0,0,1-.24.6,7.86,7.86,0,0,1-.52.87,9.54,9.54,0,0,1-.59.82,3.94,3.94,0,0,1-.46.46.68.68,0,0,1-.36.17.49.49,0,0,1-.29-.08L26.7,71.17a1.49,1.49,0,0,1-.71-.94,1.4,1.4,0,0,1,.25-1.06l2.67-4c.27-.4.54-.78.81-1.12a14.24,14.24,0,0,1,1.07-1.19,7,7,0,0,1,1.59-1.18A5.77,5.77,0,0,1,34.3,61a5.19,5.19,0,0,1,2,.13A6.75,6.75,0,0,1,38.41,62.06Zm-2.16,3.81a3.54,3.54,0,0,0-1.69-.66,2.53,2.53,0,0,0-1.37.21,3.07,3.07,0,0,0-1,.74,8.75,8.75,0,0,0-.76,1l-1,1.48,5.8,3.84,1-1.56a4.5,4.5,0,0,0,.7-1.54A2.88,2.88,0,0,0,38,68a3.3,3.3,0,0,0-.6-1.18A4.65,4.65,0,0,0,36.25,65.87Z"/><path class="cls-2" d="M58.19,58.44a6.13,6.13,0,0,1,.57.56,2.52,2.52,0,0,1,.33.45.75.75,0,0,1,.1.35.44.44,0,0,1-.11.27l-6.22,7.06a1.3,1.3,0,0,1-.82.45,1.27,1.27,0,0,1-1-.4l-14-12.32a.46.46,0,0,1-.15-.27A.75.75,0,0,1,37,54.2a4.17,4.17,0,0,1,.33-.56,9.79,9.79,0,0,1,.63-.79c.28-.31.51-.55.71-.73a3.15,3.15,0,0,1,.51-.39.66.66,0,0,1,.38-.12.44.44,0,0,1,.29.11L52.23,62.64,56.5,57.8a.45.45,0,0,1,.24-.15.63.63,0,0,1,.35,0,2.44,2.44,0,0,1,.47.25C57.74,58.07,58,58.24,58.19,58.44Z"/><path class="cls-2" d="M67.65,38.83a15,15,0,0,1,2.43,3.92,9.15,9.15,0,0,1,.74,3.83,8.13,8.13,0,0,1-1,3.63A11.36,11.36,0,0,1,67,53.51a12.73,12.73,0,0,1-3.62,2.19,7.24,7.24,0,0,1-3.5.44,8.26,8.26,0,0,1-3.46-1.37A16.25,16.25,0,0,1,53,51.54a14.49,14.49,0,0,1-2.38-3.85,9,9,0,0,1-.72-3.81,8.26,8.26,0,0,1,1-3.63,11.4,11.4,0,0,1,2.82-3.31,12.39,12.39,0,0,1,3.56-2.16,7.27,7.27,0,0,1,3.51-.45,8.33,8.33,0,0,1,3.46,1.34A15.69,15.69,0,0,1,67.65,38.83Zm-3.22,3a15.33,15.33,0,0,0-2.08-2.1,6.44,6.44,0,0,0-2.11-1.19,4.17,4.17,0,0,0-2.19-.08,5.59,5.59,0,0,0-2.28,1.23,5.24,5.24,0,0,0-1.6,2.09A4.7,4.7,0,0,0,53.88,44a6.34,6.34,0,0,0,.76,2.31,12.88,12.88,0,0,0,1.55,2.27,16.15,16.15,0,0,0,2.12,2.16A6.51,6.51,0,0,0,60.44,52a3.91,3.91,0,0,0,2.17.08,5.66,5.66,0,0,0,2.28-1.25A5.16,5.16,0,0,0,66.5,48.7a4.71,4.71,0,0,0,.29-2.26A6.75,6.75,0,0,0,66,44.11,14.83,14.83,0,0,0,64.43,41.8Z"/><path class="cls-2" d="M79.09,35.28l3.65,6.22a.51.51,0,0,1,.06.3.72.72,0,0,1-.19.35,3.86,3.86,0,0,1-.49.44c-.22.16-.5.34-.85.55a8,8,0,0,1-.9.47,3.23,3.23,0,0,1-.62.21.64.64,0,0,1-.39,0,.45.45,0,0,1-.23-.2L75.48,37.4,65,30.59a4.85,4.85,0,0,1-.8-.59.46.46,0,0,1-.17-.47A1.17,1.17,0,0,1,64.5,29c.27-.19.65-.43,1.16-.73s.76-.43,1-.56a2.52,2.52,0,0,1,.65-.24.72.72,0,0,1,.44,0,1.4,1.4,0,0,1,.38.2l4.52,3.19c.44.31.89.64,1.35,1s.93.73,1.42,1.13l0,0c-.11-.59-.22-1.18-.31-1.75s-.17-1.12-.24-1.64l-.59-5.46a1.47,1.47,0,0,1,0-.45.79.79,0,0,1,.19-.39,2.2,2.2,0,0,1,.49-.44c.23-.16.54-.35.93-.58s.93-.53,1.23-.68a1.18,1.18,0,0,1,.7-.16c.16,0,.27.16.32.38a5.7,5.7,0,0,1,.13,1Z"/><path class="cls-2" d="M100.61,32.24a5.3,5.3,0,0,1,.25.73,2.2,2.2,0,0,1,.08.51.62.62,0,0,1-.08.33.41.41,0,0,1-.21.18l-9.56,3.85a1.26,1.26,0,0,1-.93,0,1.23,1.23,0,0,1-.71-.8L82.76,20.49a1.24,1.24,0,0,1,0-1.06,1.27,1.27,0,0,1,.7-.62L92.92,15a.47.47,0,0,1,.26,0,.52.52,0,0,1,.28.19,1.9,1.9,0,0,1,.3.42,5,5,0,0,1,.34.72,5.41,5.41,0,0,1,.24.71,2.2,2.2,0,0,1,.08.51.76.76,0,0,1-.08.33.34.34,0,0,1-.2.17l-6.79,2.74,1.87,4.65L95,23.08a.42.42,0,0,1,.27,0,.77.77,0,0,1,.29.18,1.9,1.9,0,0,1,.29.41,6.39,6.39,0,0,1,.32.68,5.3,5.3,0,0,1,.25.73,2,2,0,0,1,.07.49.53.53,0,0,1-.09.32.51.51,0,0,1-.21.17l-5.75,2.31,2.16,5.37L99.43,31a.42.42,0,0,1,.27,0,.69.69,0,0,1,.29.19,1.52,1.52,0,0,1,.3.42A5.8,5.8,0,0,1,100.61,32.24Z"/><path class="cls-2" d="M127.06,27.55a.51.51,0,0,1,0,.3.65.65,0,0,1-.28.26,2.67,2.67,0,0,1-.57.23,7.39,7.39,0,0,1-1,.23,8.64,8.64,0,0,1-.94.13,3,3,0,0,1-.62,0,.59.59,0,0,1-.34-.14.49.49,0,0,1-.15-.27l-3.05-16.41h0l-2.8,17.49a.75.75,0,0,1-.14.37,1,1,0,0,1-.34.28,2.3,2.3,0,0,1-.6.22c-.25.06-.55.13-.9.19a7.91,7.91,0,0,1-.91.13,2.64,2.64,0,0,1-.64,0,1.15,1.15,0,0,1-.42-.14.55.55,0,0,1-.24-.26l-8.7-15.35h0l3.05,16.42a.52.52,0,0,1,0,.3.65.65,0,0,1-.28.26,3.79,3.79,0,0,1-.58.24,9.34,9.34,0,0,1-.93.22,6.81,6.81,0,0,1-1,.12,2.47,2.47,0,0,1-.62,0,.6.6,0,0,1-.35-.14.54.54,0,0,1-.14-.27l-3.34-18a1.73,1.73,0,0,1,.19-1.3,1.58,1.58,0,0,1,1-.63l2.68-.5a6.68,6.68,0,0,1,1.25-.11,2.42,2.42,0,0,1,1,.23,2.07,2.07,0,0,1,.76.6,4.73,4.73,0,0,1,.64,1l6.6,11.2h.06l2.3-12.83a5.94,5.94,0,0,1,.24-1.19,2.4,2.4,0,0,1,.42-.83,1.9,1.9,0,0,1,.68-.54,4.62,4.62,0,0,1,1-.31l2.76-.51a2.43,2.43,0,0,1,.75,0,1.41,1.41,0,0,1,.56.23,1.61,1.61,0,0,1,.39.46,2.47,2.47,0,0,1,.23.68Z"/><path class="cls-2" d="M142.92,27a5.41,5.41,0,0,1,0,.77,1.8,1.8,0,0,1-.13.5.64.64,0,0,1-.2.27.37.37,0,0,1-.26.08L132,28.44a1.3,1.3,0,0,1-.87-.33,1.23,1.23,0,0,1-.34-1l.29-17.88a1.27,1.27,0,0,1,.37-1,1.3,1.3,0,0,1,.89-.3l10.24.17a.44.44,0,0,1,.25.08.62.62,0,0,1,.19.28,2.47,2.47,0,0,1,.11.51,6.29,6.29,0,0,1,0,.79,5.32,5.32,0,0,1-.05.75,2.45,2.45,0,0,1-.12.5.86.86,0,0,1-.2.27.38.38,0,0,1-.26.08l-7.32-.12-.08,5,6.2.1a.52.52,0,0,1,.26.1.62.62,0,0,1,.19.27,1.79,1.79,0,0,1,.11.49,5.71,5.71,0,0,1,0,.76,5.26,5.26,0,0,1,0,.76,1.64,1.64,0,0,1-.13.48.55.55,0,0,1-.2.26.48.48,0,0,1-.26.07l-6.2-.1-.1,5.79,7.39.12a.41.41,0,0,1,.26.09.7.7,0,0,1,.2.28,2.36,2.36,0,0,1,.11.5A6,6,0,0,1,142.92,27Z"/><path class="cls-2" d="M162.64,30.27a1.55,1.55,0,0,1-.24.62,1.45,1.45,0,0,1-.42.4,1.38,1.38,0,0,1-.55.19,2.41,2.41,0,0,1-.6,0l-1.75-.32a3.86,3.86,0,0,1-.92-.28,2,2,0,0,1-.66-.53,3.44,3.44,0,0,1-.51-.9c-.15-.36-.3-.83-.47-1.4L153.2,17.69c-.19-.62-.38-1.28-.56-2s-.34-1.39-.47-2h0c-.1.76-.2,1.51-.31,2.26s-.24,1.51-.39,2.3l-1.9,10.57a.51.51,0,0,1-.14.26.6.6,0,0,1-.34.16,2.59,2.59,0,0,1-.59,0,7,7,0,0,1-.93-.12q-.54-.11-.9-.21a2.51,2.51,0,0,1-.53-.23.63.63,0,0,1-.25-.27.57.57,0,0,1,0-.29L149.12,10a1.35,1.35,0,0,1,.62-1,1.64,1.64,0,0,1,1.12-.18l2.2.4a3.86,3.86,0,0,1,1,.28,2.13,2.13,0,0,1,.67.47,2.69,2.69,0,0,1,.48.75,7.74,7.74,0,0,1,.39,1.13l2.6,8.09c.15.49.3,1,.44,1.44s.29,1,.42,1.42.25.92.38,1.38.24.9.35,1.35h0c.1-.73.22-1.5.35-2.29s.25-1.55.38-2.27l1.71-9.47a.46.46,0,0,1,.15-.26.67.67,0,0,1,.35-.16,1.88,1.88,0,0,1,.6,0c.24,0,.55.06.93.13a7.9,7.9,0,0,1,.88.2,1.55,1.55,0,0,1,.53.23.53.53,0,0,1,.23.27.48.48,0,0,1,0,.29Z"/><path class="cls-2" d="M185.06,19.83a6.7,6.7,0,0,1-.31.72,1.52,1.52,0,0,1-.29.45.64.64,0,0,1-.28.21.45.45,0,0,1-.28,0l-4.83-1.75L173.44,35a.52.52,0,0,1-.2.24.72.72,0,0,1-.39.07,2.64,2.64,0,0,1-.65-.1c-.26-.06-.58-.16-1-.29a9.4,9.4,0,0,1-.93-.39,3.53,3.53,0,0,1-.56-.34.76.76,0,0,1-.25-.31.39.39,0,0,1,0-.3L175.13,18l-4.83-1.75a.44.44,0,0,1-.22-.18.81.81,0,0,1-.08-.34,2.42,2.42,0,0,1,.07-.54,6,6,0,0,1,.23-.75,7.53,7.53,0,0,1,.31-.75,2.06,2.06,0,0,1,.29-.45.71.71,0,0,1,.28-.21.45.45,0,0,1,.28,0L185.06,18a.46.46,0,0,1,.22.17.72.72,0,0,1,.09.33,2.35,2.35,0,0,1-.07.54A6.52,6.52,0,0,1,185.06,19.83Z"/><path class="cls-2" d="M200,42.71a6.35,6.35,0,0,1-2,2.1,5.87,5.87,0,0,1-2.46.87,7,7,0,0,1-2.7-.23,10.33,10.33,0,0,1-2.72-1.2,10.13,10.13,0,0,1-1.59-1.19,12.52,12.52,0,0,1-1.15-1.2,7.65,7.65,0,0,1-.72-1,3.69,3.69,0,0,1-.32-.76,1.21,1.21,0,0,1,.07-.66,4.7,4.7,0,0,1,.51-1,7.8,7.8,0,0,1,.46-.68,3.21,3.21,0,0,1,.37-.41.66.66,0,0,1,.32-.15.48.48,0,0,1,.28.08,1.24,1.24,0,0,1,.4.55c.13.29.33.63.57,1a9.72,9.72,0,0,0,1,1.29,7.13,7.13,0,0,0,1.59,1.29,4.65,4.65,0,0,0,1.26.57,3.23,3.23,0,0,0,1.14.1,2.34,2.34,0,0,0,1-.37,2.58,2.58,0,0,0,.76-.81,1.9,1.9,0,0,0,.31-1.22,3.75,3.75,0,0,0-.38-1.27,10.3,10.3,0,0,0-.79-1.36c-.32-.46-.65-.95-1-1.45a13.76,13.76,0,0,1-.91-1.58,6.56,6.56,0,0,1-.57-1.72,5.34,5.34,0,0,1,0-1.87,6.47,6.47,0,0,1,2.67-4,5.27,5.27,0,0,1,2.23-.8,6.44,6.44,0,0,1,2.44.21,9.59,9.59,0,0,1,2.46,1.1,9.88,9.88,0,0,1,1.18.86,9.32,9.32,0,0,1,1,1,6.93,6.93,0,0,1,.73.95,2.89,2.89,0,0,1,.35.68,1.24,1.24,0,0,1,0,.35,1.33,1.33,0,0,1-.07.29c-.05.12-.11.26-.2.43l-.35.59c-.16.26-.3.48-.43.65a3,3,0,0,1-.34.4.55.55,0,0,1-.3.17.37.37,0,0,1-.28-.06,1.31,1.31,0,0,1-.36-.48,9.25,9.25,0,0,0-.54-.91,8.88,8.88,0,0,0-.84-1.08,5.34,5.34,0,0,0-1.25-1,3.88,3.88,0,0,0-1.1-.49,2.43,2.43,0,0,0-1-.05,1.67,1.67,0,0,0-.8.33,2.2,2.2,0,0,0-.6.65,2,2,0,0,0-.31,1.2,3.59,3.59,0,0,0,.38,1.28,10.89,10.89,0,0,0,.83,1.37c.32.47.66,1,1,1.47a16.31,16.31,0,0,1,.92,1.58,6.44,6.44,0,0,1,.59,1.73,5.33,5.33,0,0,1,0,1.87A5.53,5.53,0,0,1,200,42.71Z"/><path class="cls-2" d="M209.11,56a6,6,0,0,1-.53.56,1.91,1.91,0,0,1-.41.31.75.75,0,0,1-.33.09.46.46,0,0,1-.25-.1l-7.93-6.6a1.37,1.37,0,0,1-.48-.8,1.3,1.3,0,0,1,.37-1L211,34.7a1.24,1.24,0,0,1,.92-.54,1.29,1.29,0,0,1,.87.32L220.66,41a.49.49,0,0,1,.15.23.66.66,0,0,1,0,.33,2.62,2.62,0,0,1-.24.47c-.11.17-.27.38-.47.63a5.84,5.84,0,0,1-.51.55,1.91,1.91,0,0,1-.41.31.75.75,0,0,1-.33.09.4.4,0,0,1-.25-.09l-5.63-4.69-3.2,3.85,4.76,4a.44.44,0,0,1,.15.23.67.67,0,0,1,0,.34,1.91,1.91,0,0,1-.23.45,5.48,5.48,0,0,1-.45.6,5.09,5.09,0,0,1-.51.56,2.06,2.06,0,0,1-.4.3.58.58,0,0,1-.32.07.49.49,0,0,1-.26-.1l-4.76-4L204,49.61l5.68,4.73a.43.43,0,0,1,.14.23.67.67,0,0,1,0,.34,2.45,2.45,0,0,1-.23.46A6.92,6.92,0,0,1,209.11,56Z"/><path class="cls-2" d="M220.66,70.27a.64.64,0,0,1-.26.15.49.49,0,0,1-.35-.1,2.58,2.58,0,0,1-.55-.45c-.22-.21-.5-.52-.85-.91s-.52-.61-.68-.82a2.27,2.27,0,0,1-.33-.55.7.7,0,0,1,0-.39,1.3,1.3,0,0,1,.14-.33l2.21-4.42c.24-.51.44-1,.6-1.4a4.38,4.38,0,0,0,.29-1.19,2.6,2.6,0,0,0-.14-1.08,3.14,3.14,0,0,0-.62-1l-.86-1L213.35,62a.46.46,0,0,1-.28.11.83.83,0,0,1-.38-.12,2.77,2.77,0,0,1-.51-.39,8.46,8.46,0,0,1-.71-.73,9.81,9.81,0,0,1-.64-.78,4.18,4.18,0,0,1-.33-.57.7.7,0,0,1-.06-.38.49.49,0,0,1,.15-.27L224.53,46.5a1.17,1.17,0,0,1,1.81,0l3.52,4c.36.4.65.74.86,1s.41.53.57.76a8.68,8.68,0,0,1,1,2.07,5.41,5.41,0,0,1,.28,2,4.66,4.66,0,0,1-.53,1.87A6.1,6.1,0,0,1,230.7,60a7,7,0,0,1-1.58,1,4.92,4.92,0,0,1-1.65.43,5.17,5.17,0,0,1-1.69-.17,7,7,0,0,1-1.72-.75,5,5,0,0,1,.17,1,5.06,5.06,0,0,1-.07,1.08,7.55,7.55,0,0,1-.33,1.18,13,13,0,0,1-.57,1.33l-1.88,4a6.94,6.94,0,0,1-.45.82A1.64,1.64,0,0,1,220.66,70.27ZM227.51,57a3,3,0,0,0,1-1.48,2.48,2.48,0,0,0-.26-1.78,6.53,6.53,0,0,0-.38-.62c-.16-.22-.39-.51-.71-.87l-1.24-1.4-4.36,3.86L223,56.31a5.18,5.18,0,0,0,1.19,1,3.07,3.07,0,0,0,1.19.43,2.59,2.59,0,0,0,1.14-.11A3.12,3.12,0,0,0,227.51,57Z"/><path class="cls-2" d="M227.35,80.4a1.43,1.43,0,0,1-.48.06.84.84,0,0,1-.43-.22,3.39,3.39,0,0,1-.51-.6c-.19-.27-.42-.62-.7-1.07l-.58-.93c-.15-.25-.28-.48-.37-.67a2.76,2.76,0,0,1-.2-.48,1.73,1.73,0,0,1,0-.37.75.75,0,0,1,.09-.3,2.06,2.06,0,0,1,.21-.29l12.15-14.85a4.9,4.9,0,0,1,.64-.68.51.51,0,0,1,.51-.13,1.17,1.17,0,0,1,.53.46c.19.25.44.62.74,1.1s.46.74.59,1a2.69,2.69,0,0,1,.24.59.55.55,0,0,1,0,.39,2.76,2.76,0,0,1-.24.35L228.72,76.41h0l15.94-4.23a1.42,1.42,0,0,1,.45-.1.61.61,0,0,1,.39.13,2.22,2.22,0,0,1,.46.49c.17.23.39.56.65,1s.45.74.57,1a.88.88,0,0,1,.1.6.63.63,0,0,1-.39.35,5.57,5.57,0,0,1-.88.27Z"/><path class="cls-2" d="M233,91.69a.44.44,0,0,1-.3,0,.64.64,0,0,1-.33-.22A2.81,2.81,0,0,1,232,91a7,7,0,0,1-.48-.9,9.21,9.21,0,0,1-.38-.93,3.94,3.94,0,0,1-.16-.64.68.68,0,0,1,.05-.39.45.45,0,0,1,.21-.22l17.56-8.19a.44.44,0,0,1,.3,0,.7.7,0,0,1,.34.22,3.85,3.85,0,0,1,.39.53,8.8,8.8,0,0,1,.46.89,8.35,8.35,0,0,1,.39.94,3.48,3.48,0,0,1,.15.63.78.78,0,0,1,0,.39.47.47,0,0,1-.22.22Z"/><path class="cls-2" d="M241.53,107.94c-.25.08-.46.15-.65.19a3.3,3.3,0,0,1-.47.08,1.4,1.4,0,0,1-.36,0,1.7,1.7,0,0,1-.39-.14,3.55,3.55,0,0,1-.66-.49,9.2,9.2,0,0,1-.9-1,9.84,9.84,0,0,1-.93-1.43,10.84,10.84,0,0,1-.8-1.85,10.69,10.69,0,0,1-.58-3.81,7.58,7.58,0,0,1,.94-3.36,8.65,8.65,0,0,1,2.49-2.74,16,16,0,0,1,8.7-2.82,9.79,9.79,0,0,1,3.85.78,8.18,8.18,0,0,1,2.93,2.19A10.28,10.28,0,0,1,256.6,97,10.43,10.43,0,0,1,257,98.6a11.55,11.55,0,0,1,.11,1.51,7.55,7.55,0,0,1-.13,1.31,3.31,3.31,0,0,1-.25.88,1.55,1.55,0,0,1-.25.39,1.31,1.31,0,0,1-.3.24c-.13.07-.29.15-.48.23s-.42.16-.7.26-.56.17-.77.22a2.5,2.5,0,0,1-.55.07.81.81,0,0,1-.35-.09.39.39,0,0,1-.17-.21,1.11,1.11,0,0,1,.08-.66,10.9,10.9,0,0,0,.29-1.09,8.29,8.29,0,0,0,.15-1.51,5.66,5.66,0,0,0-.34-1.9,4.55,4.55,0,0,0-1.16-1.91,4.62,4.62,0,0,0-1.87-1.1,6.81,6.81,0,0,0-2.45-.27,13.41,13.41,0,0,0-5.78,1.94,6.1,6.1,0,0,0-1.73,1.7,4.24,4.24,0,0,0-.69,2,5.65,5.65,0,0,0,.29,2.22,6.41,6.41,0,0,0,.85,1.74,9,9,0,0,0,1,1.13c.32.3.6.54.84.73a1.07,1.07,0,0,1,.42.47.4.4,0,0,1,0,.26.47.47,0,0,1-.19.23,2.44,2.44,0,0,1-.47.25C242.18,107.71,241.89,107.82,241.53,107.94Z"/><path class="cls-2" d="M242.65,122.85a6.65,6.65,0,0,1-.76.09,1.93,1.93,0,0,1-.51,0,.6.6,0,0,1-.31-.15.47.47,0,0,1-.13-.24l-1.76-10.16a1.31,1.31,0,0,1,.16-.92,1.25,1.25,0,0,1,.93-.52l17.63-3a1.26,1.26,0,0,1,1.05.18,1.31,1.31,0,0,1,.45.82L261.15,119a.5.5,0,0,1,0,.27.66.66,0,0,1-.24.23,2.24,2.24,0,0,1-.48.2,7.54,7.54,0,0,1-.77.18,4.58,4.58,0,0,1-.74.08,2,2,0,0,1-.52,0,.6.6,0,0,1-.3-.14.36.36,0,0,1-.13-.23l-1.25-7.22-4.94.85,1.06,6.11a.42.42,0,0,1,0,.27.65.65,0,0,1-.23.24,1.91,1.91,0,0,1-.47.21,6.37,6.37,0,0,1-.73.16,4.14,4.14,0,0,1-.76.09,1.88,1.88,0,0,1-.5,0,.57.57,0,0,1-.29-.15.39.39,0,0,1-.12-.25l-1.06-6.11-5.7,1,1.26,7.28a.5.5,0,0,1,0,.27.8.8,0,0,1-.24.25,2.24,2.24,0,0,1-.48.2A5.37,5.37,0,0,1,242.65,122.85Z"/><path class="cls-2" d="M251.17,152a15.22,15.22,0,0,1-4.52-.91,9.3,9.3,0,0,1-3.29-2.1,8.18,8.18,0,0,1-2-3.22,11.6,11.6,0,0,1-.47-4.32,12.66,12.66,0,0,1,.88-4.13,7.22,7.22,0,0,1,2.1-2.85,8.3,8.3,0,0,1,3.37-1.58,16.61,16.61,0,0,1,4.72-.3,14.81,14.81,0,0,1,4.43.91,9.1,9.1,0,0,1,3.26,2.09,8.22,8.22,0,0,1,1.95,3.23,11.42,11.42,0,0,1,.48,4.33,12.46,12.46,0,0,1-.88,4.06,7,7,0,0,1-2.08,2.86,8.25,8.25,0,0,1-3.35,1.61A15.74,15.74,0,0,1,251.17,152Zm.05-4.38a15.73,15.73,0,0,0,2.95-.07,6.39,6.39,0,0,0,2.32-.73,4.09,4.09,0,0,0,1.56-1.53,5.73,5.73,0,0,0,.67-2.5,5.26,5.26,0,0,0-.42-2.6,5,5,0,0,0-1.44-1.76,6.48,6.48,0,0,0-2.2-1,13.68,13.68,0,0,0-2.72-.43,15.69,15.69,0,0,0-3,.07,6.5,6.5,0,0,0-2.34.71,3.93,3.93,0,0,0-1.55,1.53,5.74,5.74,0,0,0-.65,2.51,5.14,5.14,0,0,0,.41,2.6,4.6,4.6,0,0,0,1.45,1.76,6.65,6.65,0,0,0,2.23,1A14.75,14.75,0,0,0,251.22,147.63Z"/><path class="cls-2" d="M255.68,169.42c-.31-.08-.57-.15-.77-.22a2,2,0,0,1-.47-.24,1,1,0,0,1-.24-.26.42.42,0,0,1,0-.27l1.5-6.54-5.37-1.24-1.42,6.14a.41.41,0,0,1-.13.23.69.69,0,0,1-.31.13,1.75,1.75,0,0,1-.52,0,6.57,6.57,0,0,1-.78-.14,5.32,5.32,0,0,1-.77-.22,1.79,1.79,0,0,1-.48-.24.71.71,0,0,1-.24-.26.39.39,0,0,1,0-.26L247,159.9l-7.45-1.72a.47.47,0,0,1-.27-.16.71.71,0,0,1-.13-.38,2.88,2.88,0,0,1,0-.65,9.46,9.46,0,0,1,.18-1,8.31,8.31,0,0,1,.27-1,3.46,3.46,0,0,1,.28-.6.69.69,0,0,1,.29-.28.47.47,0,0,1,.31,0l18.13,4.19a1.26,1.26,0,0,1,.9.57,1.34,1.34,0,0,1,.1.93l-2.17,9.41a.37.37,0,0,1-.14.22.67.67,0,0,1-.33.13,1.88,1.88,0,0,1-.54,0C256.26,169.53,256,169.49,255.68,169.42Z"/><path class="cls-2" d="M250,185.19c-.3-.12-.54-.22-.73-.32a1.93,1.93,0,0,1-.44-.31.92.92,0,0,1-.2-.28.42.42,0,0,1,0-.27l2.37-6.28-5.16-1.95-2.22,5.89a.44.44,0,0,1-.17.21.64.64,0,0,1-.32.09,1.76,1.76,0,0,1-.52-.06,6.26,6.26,0,0,1-.75-.24c-.3-.12-.54-.22-.73-.32a1.85,1.85,0,0,1-.45-.31.69.69,0,0,1-.2-.29.34.34,0,0,1,0-.26l2.22-5.89-7.15-2.7a.5.5,0,0,1-.25-.2.81.81,0,0,1-.08-.39,3.14,3.14,0,0,1,.11-.65,7.41,7.41,0,0,1,.31-1,9.93,9.93,0,0,1,.4-.92,3.48,3.48,0,0,1,.35-.56.77.77,0,0,1,.33-.24.47.47,0,0,1,.31,0l17.4,6.58a1.24,1.24,0,0,1,.82.69,1.3,1.3,0,0,1,0,.93l-3.42,9a.39.39,0,0,1-.17.21.63.63,0,0,1-.34.08,1.66,1.66,0,0,1-.54-.07A6.43,6.43,0,0,1,250,185.19Z"/><path class="cls-2" d="M229.71,185a.43.43,0,0,1-.21-.23.61.61,0,0,1,0-.39,3,3,0,0,1,.17-.63,7.45,7.45,0,0,1,.42-.92,8,8,0,0,1,.49-.88,4,4,0,0,1,.4-.52.72.72,0,0,1,.34-.21.44.44,0,0,1,.3,0l17.3,8.73a.38.38,0,0,1,.21.22.64.64,0,0,1,0,.4,4,4,0,0,1-.18.63,6.57,6.57,0,0,1-.41.91,9.12,9.12,0,0,1-.49.89,4.57,4.57,0,0,1-.4.51.67.67,0,0,1-.34.21.44.44,0,0,1-.3,0Z"/><path class="cls-2" d="M222.24,201.83c-.22-.15-.41-.28-.55-.39a3.08,3.08,0,0,1-.36-.32,1.37,1.37,0,0,1-.21-.3,1.24,1.24,0,0,1-.14-.39,3.9,3.9,0,0,1,0-.82,8.61,8.61,0,0,1,.22-1.32,11,11,0,0,1,.54-1.62,11.91,11.91,0,0,1,1-1.77,10.67,10.67,0,0,1,2.64-2.81,7.43,7.43,0,0,1,3.21-1.34,8.6,8.6,0,0,1,3.7.25,14.64,14.64,0,0,1,4.11,1.95,14.34,14.34,0,0,1,3.49,3.14,9.54,9.54,0,0,1,1.77,3.51,8.21,8.21,0,0,1,.1,3.66,10.34,10.34,0,0,1-1.53,3.62,9.55,9.55,0,0,1-1,1.29,10.35,10.35,0,0,1-1.12,1,8,8,0,0,1-1.11.72,3.71,3.71,0,0,1-.85.35,2.33,2.33,0,0,1-.46.05,1.21,1.21,0,0,1-.37-.1,3.38,3.38,0,0,1-.48-.23c-.17-.09-.39-.23-.63-.39a6.47,6.47,0,0,1-.66-.47,2.38,2.38,0,0,1-.39-.39,1,1,0,0,1-.15-.32.42.42,0,0,1,.06-.27,1.14,1.14,0,0,1,.57-.35,8.78,8.78,0,0,0,1-.45,6.72,6.72,0,0,0,1.28-.81,5.56,5.56,0,0,0,1.28-1.44,4.49,4.49,0,0,0,.5-4.24,6.79,6.79,0,0,0-1.31-2.09,11.82,11.82,0,0,0-2.29-1.93,11.58,11.58,0,0,0-2.82-1.41,6,6,0,0,0-2.4-.31,4.26,4.26,0,0,0-2,.68,5.55,5.55,0,0,0-1.56,1.6,6.16,6.16,0,0,0-.84,1.75,7.75,7.75,0,0,0-.28,1.48c0,.44,0,.8,0,1.11a1.18,1.18,0,0,1-.11.62.46.46,0,0,1-.19.18.62.62,0,0,1-.3,0,2.69,2.69,0,0,1-.49-.22A6.41,6.41,0,0,1,222.24,201.83Z"/><path class="cls-2" d="M211.25,212a7.07,7.07,0,0,1-.55-.55,1.87,1.87,0,0,1-.29-.42.6.6,0,0,1-.07-.33.38.38,0,0,1,.11-.25l6.87-7.68a1.33,1.33,0,0,1,.82-.45,1.27,1.27,0,0,1,1,.4l13.32,11.94a1.23,1.23,0,0,1,.51.94,1.28,1.28,0,0,1-.35.86L225.77,224a.41.41,0,0,1-.23.13.58.58,0,0,1-.33,0,2.14,2.14,0,0,1-.46-.25,7.67,7.67,0,0,1-.61-.49,5.23,5.23,0,0,1-.53-.54,1.66,1.66,0,0,1-.3-.42.69.69,0,0,1-.07-.32.37.37,0,0,1,.1-.25l4.89-5.46-3.73-3.34-4.14,4.62a.47.47,0,0,1-.24.13.64.64,0,0,1-.33,0,1.67,1.67,0,0,1-.45-.24,6,6,0,0,1-.59-.47,5.45,5.45,0,0,1-.54-.54,2,2,0,0,1-.28-.41.57.57,0,0,1-.06-.32.44.44,0,0,1,.11-.25l4.14-4.62-4.31-3.86-4.93,5.5a.37.37,0,0,1-.24.14.6.6,0,0,1-.34,0,1.67,1.67,0,0,1-.45-.24Q211.6,212.25,211.25,212Z"/><path class="cls-3" d="M100,237.39a7,7,0,0,1-1.57,2.69,5.77,5.77,0,0,1-2.46,1.5,8,8,0,0,1-3.26.24,14.41,14.41,0,0,1-4-1.17l-1.86-.83-2.73,6a.4.4,0,0,1-.23.21,1,1,0,0,1-.48,0,4.86,4.86,0,0,1-.78-.22c-.31-.12-.7-.28-1.17-.51s-.83-.42-1.13-.6a4.38,4.38,0,0,1-.66-.48,1,1,0,0,1-.29-.37.41.41,0,0,1,0-.31L87.79,227a1.46,1.46,0,0,1,.88-.81,1.67,1.67,0,0,1,1.14.15c1.53.76,3.08,1.47,4.64,2.15.47.2.91.41,1.32.62s.89.5,1.45.85a8.45,8.45,0,0,1,1.59,1.34A6.43,6.43,0,0,1,100,233.1a5.17,5.17,0,0,1,.44,2A6.24,6.24,0,0,1,100,237.39ZM95.4,236a3.42,3.42,0,0,0,.26-1.8,2.77,2.77,0,0,0-.56-1.34,3.84,3.84,0,0,0-1-.88c-.39-.22-.79-.43-1.22-.62l-1.77-.79q-1.44,3.16-2.9,6.33c.66.3,1.32.6,2,.88a5.48,5.48,0,0,0,1.88.51,3.21,3.21,0,0,0,1.45-.22,3.09,3.09,0,0,0,1.12-.8A4.23,4.23,0,0,0,95.4,236Z"/><path class="cls-3" d="M100.91,250.28c-.29.94-.68,1.51-1.19,1.71a5.31,5.31,0,0,1-4.36-1.41,2.35,2.35,0,0,1,0-2,2.54,2.54,0,0,1,1.25-1.68,3.8,3.8,0,0,1,2.28.23,3.68,3.68,0,0,1,1.94,1.14A2.41,2.41,0,0,1,100.91,250.28Z"/><path class="cls-3" d="M120.26,255.12a4.94,4.94,0,0,1-.15.75,1.81,1.81,0,0,1-.21.48.71.71,0,0,1-.28.24.61.61,0,0,1-.33,0,124.78,124.78,0,0,1-12.51-2.39,1.8,1.8,0,0,1-1-.56,1.12,1.12,0,0,1-.18-1.09l4.44-17.32a1.28,1.28,0,0,1,.61-.89,1.52,1.52,0,0,1,1-.08q5.17,1.26,10.42,2a.39.39,0,0,1,.25.12.6.6,0,0,1,.16.3,1.86,1.86,0,0,1,.06.52,6.93,6.93,0,0,1-.07.78,5.17,5.17,0,0,1-.14.74,1.84,1.84,0,0,1-.19.48.64.64,0,0,1-.24.25.45.45,0,0,1-.28,0q-3.87-.54-7.7-1.36l-1,4.91q3.39.72,6.81,1.24a.49.49,0,0,1,.28.13.64.64,0,0,1,.18.3,1.66,1.66,0,0,1,.06.5,4.44,4.44,0,0,1-.07.75,4.69,4.69,0,0,1-.15.75,2,2,0,0,1-.2.46.55.55,0,0,1-.27.22.61.61,0,0,1-.3,0c-2.35-.36-4.68-.78-7-1.28q-.61,2.84-1.21,5.66,4.35.93,8.75,1.55a.52.52,0,0,1,.3.13.59.59,0,0,1,.2.3,1.83,1.83,0,0,1,.08.52A4.69,4.69,0,0,1,120.26,255.12Z"/><path class="cls-3" d="M130.15,255.39a2.43,2.43,0,0,1-.74,1.94,5.19,5.19,0,0,1-4.52-.34,2.33,2.33,0,0,1-.43-1.94,2.55,2.55,0,0,1,.81-1.93,3.68,3.68,0,0,1,2.25-.32,3.56,3.56,0,0,1,2.13.65A2.41,2.41,0,0,1,130.15,255.39Z"/><path class="cls-3" d="M149.53,251a5.53,5.53,0,0,1-.42,2.9,5.94,5.94,0,0,1-1.79,2.21,9,9,0,0,1-2.86,1.44,14.85,14.85,0,0,1-6.05.45,13,13,0,0,1-2-.41,9.1,9.1,0,0,1-1.43-.53,3.92,3.92,0,0,1-.81-.49,1,1,0,0,1-.34-.6,4.29,4.29,0,0,1-.08-1.12,8,8,0,0,1,.06-.82,2,2,0,0,1,.13-.54.59.59,0,0,1,.24-.29.67.67,0,0,1,.33-.08,1.86,1.86,0,0,1,.74.27,10.33,10.33,0,0,0,1.23.59,10.21,10.21,0,0,0,1.81.57,9.29,9.29,0,0,0,2.45.21,6.51,6.51,0,0,0,1.63-.24,3.73,3.73,0,0,0,1.2-.58,2.26,2.26,0,0,0,.72-.86,2.29,2.29,0,0,0,.19-1.11,1.77,1.77,0,0,0-.51-1.17,4.52,4.52,0,0,0-1.2-.82,12.55,12.55,0,0,0-1.63-.66l-1.86-.67a15.14,15.14,0,0,1-1.83-.84,6.74,6.74,0,0,1-1.56-1.16,5.15,5.15,0,0,1-1.09-1.61,5.21,5.21,0,0,1-.37-2.21,5.53,5.53,0,0,1,.63-2.58,5.76,5.76,0,0,1,1.57-1.85,7.14,7.14,0,0,1,2.26-1.12,11.13,11.13,0,0,1,2.74-.45,12.73,12.73,0,0,1,1.51,0,14.2,14.2,0,0,1,1.42.21,9.22,9.22,0,0,1,1.2.34,3.22,3.22,0,0,1,.71.33,1.06,1.06,0,0,1,.24.25,1.22,1.22,0,0,1,.13.28,3,3,0,0,1,.1.46c0,.18.06.41.08.68s.05.57.05.78a2.66,2.66,0,0,1,0,.53.53.53,0,0,1-.14.31.43.43,0,0,1-.29.12A1.27,1.27,0,0,1,146,241c-.28-.12-.63-.26-1-.4a9.84,9.84,0,0,0-1.39-.38,7.24,7.24,0,0,0-1.71-.13,5,5,0,0,0-1.26.22,2.81,2.81,0,0,0-.89.49,1.85,1.85,0,0,0-.52.72,2,2,0,0,0-.16.87,1.77,1.77,0,0,0,.43,1.17,3.58,3.58,0,0,0,1.12.86,11.89,11.89,0,0,0,1.59.67l1.84.62c.63.22,1.25.46,1.87.74a7.72,7.72,0,0,1,1.69,1,6.09,6.09,0,0,1,1.29,1.47A5,5,0,0,1,149.53,251Z"/><path class="cls-3" d="M159.1,253.57a2.44,2.44,0,0,1-.27,2.06,3.65,3.65,0,0,1-2.17.88,3.71,3.71,0,0,1-2.32-.16,2.33,2.33,0,0,1-.87-1.8,2.54,2.54,0,0,1,.35-2.06,3.71,3.71,0,0,1,2.12-.83,3.59,3.59,0,0,1,2.22.14A2.41,2.41,0,0,1,159.1,253.57Z"/><path class="cls-3" d="M182,238.28a12.58,12.58,0,0,1,1.07,4.5,8.5,8.5,0,0,1-.85,4,9.55,9.55,0,0,1-2.84,3.34,15.39,15.39,0,0,1-4.82,2.38,16.59,16.59,0,0,1-5.17.83,8.69,8.69,0,0,1-4-1,7.39,7.39,0,0,1-2.81-2.72,13.67,13.67,0,0,1-1.65-4.44,13.88,13.88,0,0,1-.24-4.53,9.37,9.37,0,0,1,3.88-6.63,14.14,14.14,0,0,1,4.09-2,15.68,15.68,0,0,1,4.27-.78,8.51,8.51,0,0,1,3.63.67,8.66,8.66,0,0,1,3,2.28A14,14,0,0,1,182,238.28Zm-4.6,2.05a14.31,14.31,0,0,0-1.28-2.66,6.19,6.19,0,0,0-1.67-1.8,4.53,4.53,0,0,0-2.16-.8,6.69,6.69,0,0,0-2.75.36,6.15,6.15,0,0,0-2.48,1.34,5.18,5.18,0,0,0-1.33,2,6.42,6.42,0,0,0-.39,2.44,12.6,12.6,0,0,0,.4,2.72,13.5,13.5,0,0,0,1,2.85,5.6,5.6,0,0,0,1.56,2,4.37,4.37,0,0,0,2.25.89,7.7,7.7,0,0,0,3.11-.4,7,7,0,0,0,2.78-1.51,5.05,5.05,0,0,0,1.39-2.12,5.72,5.72,0,0,0,.22-2.52A11.78,11.78,0,0,0,177.36,240.33Z"/><path class="cls-3" d="M193.54,242a2.38,2.38,0,0,1,.32,2.06,3.82,3.82,0,0,1-1.87,1.49,3.89,3.89,0,0,1-2.31.53c-.53-.13-1-.62-1.36-1.46a2.5,2.5,0,0,1-.25-2.08,5.41,5.41,0,0,1,4.05-2C192.64,240.65,193.11,241.12,193.54,242Z"/><circle cx="67" cy="226" r="5.5"/><circle cx="205" cy="226" r="5.5"/><path class="cls-4" d="M233.5,135.5v0c0,.47,0,.92,0,1.39,0,.12,0,.26,0,.39,0,.62,0,1.23,0,1.84,0,.16,0,.32,0,.48,0,.71-.06,1.43-.11,2.15a1,1,0,0,1,0,.19c0,.74-.09,1.46-.17,2.19a2.18,2.18,0,0,1,0,.44c-.06.71-.12,1.42-.2,2.14a.28.28,0,0,1,0,.09s0,.05,0,.08c-.09.77-.19,1.55-.3,2.31s-.24,1.61-.37,2.41-.22,1.32-.34,2-.24,1.27-.38,1.91-.25,1.21-.39,1.81a98.32,98.32,0,0,1-8.55,23.34c-1,1.34-3,3.42-7.52,8.33-9.38,10.19-7.71,7.32-12,12a71.55,71.55,0,0,1-7,6c-2.48,1.74-4.73,2.27-8,3-10.33,2.31-13.94,2.95-17.87,4.53a2.57,2.57,0,0,1,.35,1.87l-1.12,6a2.64,2.64,0,0,1-3.07,2.11L136.38,219a2.59,2.59,0,0,1-1.77-1.22,2.59,2.59,0,0,1-1.77,1.22l-29.91,5.57a2.64,2.64,0,0,1-3.07-2.11l-1.12-6a2.57,2.57,0,0,1,.35-1.87c-3.93-1.58-7.55-2.22-17.87-4.53-3.26-.73-5.52-1.26-8-3a72.76,72.76,0,0,1-7-6c-4.29-4.68-2.61-1.81-12-12-5.33-5.79-7.11-7.64-8-9-.15-.23-.29-.46-.43-.69l-.42-.69a98.75,98.75,0,0,1-6.91-19.07c-.19-.74-.36-1.48-.53-2.22l-.39-1.81c-.13-.64-.26-1.27-.38-1.91s-.23-1.33-.34-2-.26-1.61-.37-2.41-.22-1.59-.31-2.39a.28.28,0,0,0,0-.09c-.08-.72-.14-1.43-.2-2.14a3.42,3.42,0,0,1,0-.44c-.08-.73-.13-1.45-.17-2.19a1.11,1.11,0,0,1,0-.19c-.05-.72-.09-1.44-.11-2.15,0-.16,0-.32,0-.48,0-.61,0-1.22,0-1.84s0-1.19,0-1.78c0-.77,0-1.55,0-2.33,0-.4,0-.82,0-1.22s0-.62,0-.93c0-.49,0-1,.08-1.46,0-.26,0-.51,0-.76,0-.46.06-.91.1-1.37,0-.12,0-.24,0-.36a1.19,1.19,0,0,1,1.26-1l7.08.41a1.74,1.74,0,0,0,1.94-1.36l.85-7.25a1.7,1.7,0,0,0-1.49-1.76l-6.26-1.33A1.51,1.51,0,0,1,38.08,113c.1-.46.21-.9.32-1.35l.06-.26c.12-.46.24-.93.37-1.39.19-.77.41-1.54.64-2.3.14-.49.29-1,.45-1.47.24-.84.51-1.66.79-2.47s.51-1.5.78-2.25c0-.1.08-.18.11-.28.25-.68.5-1.35.77-2s.59-1.5.91-2.24c.23-.55.47-1.08.7-1.61.16-.36.32-.73.49-1.08s.44-1,.68-1.46l.68-1.37c.21-.44.44-.9.68-1.34a1.37,1.37,0,0,1,1.82-.59l7.27,3.71a1.9,1.9,0,0,0,2.49-.72L62.62,85a1.9,1.9,0,0,0-.48-2.49l-6.09-4.65a1.65,1.65,0,0,1-.35-2.28,3.33,3.33,0,0,1,.24-.32c.43-.57.86-1.12,1.32-1.67s.78-1,1.2-1.47.78-.94,1.19-1.41c1.61-1.87,3.28-3.67,5-5.39.32-.33.65-.65,1-1s.51-.51.78-.75c.46-.45.94-.89,1.42-1.33l.2-.18c.43-.38.85-.77,1.29-1.15.6-.53,1.22-1.06,1.84-1.57a1.33,1.33,0,0,1,1.85.15l6.18,6.89a1.9,1.9,0,0,0,2.58.23l6.92-5.38a1.89,1.89,0,0,0,.46-2.49l-4.27-6.94a1.69,1.69,0,0,1,.58-2.37,1.91,1.91,0,0,1,.27-.16c.71-.41,1.44-.8,2.16-1.19l.38-.2c.72-.38,1.45-.76,2.18-1.11a2.31,2.31,0,0,1,.35-.18c.64-.32,1.31-.64,2-.93l.72-.35c.82-.37,1.63-.72,2.45-1.07l.09,0c.71-.3,1.42-.59,2.15-.87s1.49-.58,2.25-.86c.59-.22,1.17-.43,1.76-.62l.7-.24.42-.14c.57-.2,1.14-.38,1.73-.55s1.33-.42,2-.61l.09,0a1.61,1.61,0,0,1,1.95,1l2.54,7.8A1.92,1.92,0,0,0,114,50.43l8.5-2.13a1.9,1.9,0,0,0,1.42-2.11l-1-7.17a1.78,1.78,0,0,1,1.5-2,99.52,99.52,0,0,1,10.12-.51c3.4,0,6.74.17,10.05.5h.07a1.78,1.78,0,0,1,1.5,2l-1,7.17a1.9,1.9,0,0,0,1.42,2.11l8.5,2.13a1.92,1.92,0,0,0,2.28-1.26l2.54-7.8a1.61,1.61,0,0,1,1.95-1l.09,0c.69.19,1.36.4,2,.61s1.16.35,1.73.55l.42.14.7.24c.59.19,1.17.4,1.76.62.76.28,1.51.56,2.25.86s1.44.57,2.15.87l.09,0c.82.35,1.63.7,2.45,1.07.23.11.48.22.72.35.65.29,1.32.61,2,.93a2.91,2.91,0,0,1,.35.18c.73.35,1.46.73,2.18,1.11l.38.2c.72.39,1.45.78,2.16,1.19l.25.14s0,0,0,0a1.69,1.69,0,0,1,.58,2.37l-4.27,6.94a1.89,1.89,0,0,0,.46,2.49l6.92,5.38a1.9,1.9,0,0,0,2.58-.23L196,59.53a1.33,1.33,0,0,1,1.85-.15c.62.51,1.24,1,1.84,1.57.44.38.86.77,1.29,1.15a1.62,1.62,0,0,1,.2.18c.48.44,1,.88,1.42,1.33.26.23.53.48.78.75s.66.63,1,1q2.64,2.59,5,5.39c.41.47.81.93,1.19,1.41s.81,1,1.2,1.47.89,1.1,1.32,1.67c.08.09.14.19.21.28l0,0a1.65,1.65,0,0,1-.35,2.28l-6.09,4.65a1.9,1.9,0,0,0-.48,2.49l4.53,7.5a1.9,1.9,0,0,0,2.49.72l7.27-3.71a1.37,1.37,0,0,1,1.82.59c.24.44.47.9.68,1.34l.68,1.37c.23.48.45,1,.68,1.46s.33.72.49,1.08c.23.53.47,1.06.7,1.61.32.74.61,1.48.91,2.24s.52,1.33.77,2c0,.09.07.18.11.28.27.75.54,1.5.78,2.25s.55,1.63.79,2.47c.16.48.31,1,.45,1.47.23.76.45,1.53.64,2.3.13.46.25.93.37,1.39a2.44,2.44,0,0,0,.06.26c.11.45.22.89.32,1.35a.76.76,0,0,1,0,.21,1.5,1.5,0,0,1-1.19,1.6l-6.26,1.33a1.7,1.7,0,0,0-1.49,1.76l.85,7.25a1.74,1.74,0,0,0,1.94,1.36l7.08-.41a1.19,1.19,0,0,1,1.26,1s0,0,0,.07a2.83,2.83,0,0,1,0,.29c0,.46.07.91.1,1.37,0,.25,0,.5,0,.76,0,.48.06,1,.08,1.46,0,.3,0,.62,0,.93s0,.82,0,1.22C233.49,134,233.5,134.73,233.5,135.5Z"/><path class="cls-4" d="M233.5,135.5v0c0,.59,0,1.19,0,1.78s0,1.23,0,1.84c0,.16,0,.32,0,.48,0,.71-.06,1.43-.11,2.15a1,1,0,0,1,0,.19c0,.74-.09,1.46-.17,2.19a2.18,2.18,0,0,1,0,.44c-.06.71-.12,1.42-.2,2.14a.28.28,0,0,1,0,.09s0,.05,0,.08c-.09.77-.19,1.55-.3,2.31s-.24,1.61-.37,2.41-.22,1.32-.34,2-.24,1.27-.38,1.91-.25,1.21-.39,1.81-.23,1-.36,1.54a98.16,98.16,0,0,1-7.89,21.39l0,0c-.08.12-.17.24-.28.38-1,1.34-3,3.42-7.52,8.33-9.38,10.19-7.71,7.32-12,12a71.55,71.55,0,0,1-7,6c-2.48,1.74-4.73,2.27-8,3-10.33,2.31-13.94,2.95-17.87,4.53a2.57,2.57,0,0,1,.35,1.87l-1.12,6a2.64,2.64,0,0,1-3.07,2.11L136.38,219a2.59,2.59,0,0,1-1.77-1.22,2.59,2.59,0,0,1-1.77,1.22l-29.91,5.57a2.64,2.64,0,0,1-3.07-2.11l-1.12-6a2.57,2.57,0,0,1,.35-1.87c-3.93-1.58-7.55-2.22-17.87-4.53-3.26-.73-5.52-1.26-8-3a72.76,72.76,0,0,1-7-6c-4.29-4.68-2.61-1.81-12-12-5.33-5.79-7.11-7.64-8-9-.15-.23-.29-.46-.43-.69a98,98,0,0,1-7.43-20.18v0c-.15-.59-.29-1.18-.43-1.78l-.39-1.81c-.13-.64-.26-1.27-.38-1.91s-.23-1.33-.34-2-.26-1.61-.37-2.41-.22-1.59-.31-2.39a.28.28,0,0,0,0-.09c-.08-.72-.14-1.43-.2-2.14a3.42,3.42,0,0,1,0-.44c-.08-.73-.13-1.45-.17-2.19a1.11,1.11,0,0,1,0-.19c-.05-.72-.09-1.44-.11-2.15,0-.16,0-.32,0-.48,0-.61,0-1.22,0-1.84,0-.13,0-.27,0-.39,0-.47,0-.92,0-1.39,0-.77,0-1.55,0-2.33,0-.4,0-.82,0-1.22s0-.62,0-.93c0-.49,0-1,.08-1.46,0-.26,0-.51,0-.76,0-.46.06-.91.1-1.37,0-.12,0-.24,0-.36a1.19,1.19,0,0,1,1.26-1l7.08.41a1.74,1.74,0,0,0,1.94-1.36l.85-7.25a1.7,1.7,0,0,0-1.49-1.76l-6.26-1.33A1.51,1.51,0,0,1,38.08,113c.1-.46.21-.9.32-1.35l.06-.26c.12-.46.24-.93.37-1.39.19-.77.41-1.54.64-2.3.14-.49.29-1,.45-1.47.24-.84.51-1.66.79-2.47s.51-1.5.78-2.25c0-.1.08-.18.11-.28.25-.68.5-1.35.77-2s.59-1.5.91-2.24c.23-.55.47-1.08.7-1.61.16-.36.32-.73.49-1.08s.44-1,.68-1.46l.68-1.37c.21-.44.44-.9.68-1.34a1.37,1.37,0,0,1,1.82-.59l7.27,3.71a1.9,1.9,0,0,0,2.49-.72L62.62,85a1.9,1.9,0,0,0-.48-2.49l-6.09-4.65a1.65,1.65,0,0,1-.35-2.28,3.33,3.33,0,0,1,.24-.32c.43-.57.86-1.12,1.32-1.67s.78-1,1.2-1.47.78-.94,1.19-1.41c1.61-1.87,3.28-3.67,5-5.39.32-.33.65-.65,1-1s.51-.51.78-.75c.46-.45.94-.89,1.42-1.33l.2-.18c.43-.38.85-.77,1.29-1.15.6-.53,1.22-1.06,1.84-1.57a1.33,1.33,0,0,1,1.85.15l6.18,6.89a1.9,1.9,0,0,0,2.58.23l6.92-5.38a1.89,1.89,0,0,0,.46-2.49l-4.27-6.94a1.69,1.69,0,0,1,.58-2.37,1.91,1.91,0,0,1,.27-.16c.71-.41,1.44-.8,2.16-1.19l.38-.2c.72-.38,1.45-.76,2.18-1.11a2.31,2.31,0,0,1,.35-.18c.64-.32,1.31-.64,2-.93l.72-.35c.82-.37,1.63-.72,2.45-1.07l.09,0c.71-.3,1.42-.59,2.15-.87s1.49-.58,2.25-.86c.59-.22,1.17-.43,1.76-.62l.7-.24.42-.14c.57-.2,1.14-.38,1.73-.55s1.33-.42,2-.61l.09,0a1.61,1.61,0,0,1,1.95,1l2.54,7.8A1.92,1.92,0,0,0,114,50.43l8.5-2.13a1.9,1.9,0,0,0,1.42-2.11l-1-7.17a1.78,1.78,0,0,1,1.5-2,99.52,99.52,0,0,1,10.12-.51c3.4,0,6.74.17,10.05.5h.07a1.78,1.78,0,0,1,1.5,2l-1,7.17a1.9,1.9,0,0,0,1.42,2.11l8.5,2.13a1.92,1.92,0,0,0,2.28-1.26l2.54-7.8a1.61,1.61,0,0,1,1.95-1l.09,0c.69.19,1.36.4,2,.61s1.16.35,1.73.55l.42.14.7.24c.59.19,1.17.4,1.76.62.76.28,1.51.56,2.25.86s1.44.57,2.15.87l.09,0c.82.35,1.63.7,2.45,1.07.23.11.48.22.72.35.65.29,1.32.61,2,.93a2.91,2.91,0,0,1,.35.18c.73.35,1.46.73,2.18,1.11l.38.2c.72.39,1.45.78,2.16,1.19l.25.14s0,0,0,0a1.69,1.69,0,0,1,.58,2.37l-4.27,6.94a1.89,1.89,0,0,0,.46,2.49l6.92,5.38a1.9,1.9,0,0,0,2.58-.23L196,59.53a1.33,1.33,0,0,1,1.85-.15c.62.51,1.24,1,1.84,1.57.44.38.86.77,1.29,1.15a1.62,1.62,0,0,1,.2.18c.48.44,1,.88,1.42,1.33.26.23.53.48.78.75s.66.63,1,1q2.64,2.59,5,5.39c.41.47.81.93,1.19,1.41s.81,1,1.2,1.47.89,1.1,1.32,1.67c.08.09.14.19.21.28l0,0a1.65,1.65,0,0,1-.35,2.28l-6.09,4.65a1.9,1.9,0,0,0-.48,2.49l4.53,7.5a1.9,1.9,0,0,0,2.49.72l7.27-3.71a1.37,1.37,0,0,1,1.82.59c.24.44.47.9.68,1.34l.68,1.37c.23.48.45,1,.68,1.46s.33.72.49,1.08c.23.53.47,1.06.7,1.61.32.74.61,1.48.91,2.24s.52,1.33.77,2c0,.09.07.18.11.28.27.75.54,1.5.78,2.25s.55,1.63.79,2.47c.16.48.31,1,.45,1.47.23.76.45,1.53.64,2.3.13.46.25.93.37,1.39a2.44,2.44,0,0,0,.06.26c.11.45.22.89.32,1.35a.76.76,0,0,1,0,.21,1.5,1.5,0,0,1-1.19,1.6l-6.26,1.33a1.7,1.7,0,0,0-1.49,1.76l.85,7.25a1.74,1.74,0,0,0,1.94,1.36l7.08-.41a1.19,1.19,0,0,1,1.26,1s0,0,0,.07a2.83,2.83,0,0,1,0,.29c0,.46.07.91.1,1.37,0,.25,0,.5,0,.76,0,.48.06,1,.08,1.46,0,.3,0,.62,0,.93s0,.82,0,1.22C233.49,134,233.5,134.73,233.5,135.5Z"/><path class="cls-5" d="M137.75,207.74a2.77,2.77,0,0,1,.86,0l29.91,5.57a2.6,2.6,0,0,1,1.75,1.2c3.93-1.58,7.55-2.22,17.87-4.53,3.26-.73,5.52-1.26,8-3a72.76,72.76,0,0,0,7-6c4.29-4.68,2.61-1.81,12-12,5.33-5.79,7.11-7.64,8-9,.15-.23.29-.46.43-.69l.42-.69a45.29,45.29,0,0,0,3.15-6.62,90,90,0,0,0,3.76-12.45c0-.14.06-.28.1-.42v0c1.08-4.72,1.73-9,2.14-12.11a5.52,5.52,0,0,0-4-1,5.35,5.35,0,0,0-3.22,1.85,6.4,6.4,0,0,0-9.78,3.15l-.39,1.62a5.85,5.85,0,0,0-4.61-1.62c-1.95.31-3.12,1.85-4,3a12.11,12.11,0,0,0-2,4s-1.06,3.45-5,10l-.21.34-2.92,2.9a5.81,5.81,0,0,0-1.42-2.71,5.35,5.35,0,0,0-2.45-1.53,5.7,5.7,0,0,0-6,2,92.8,92.8,0,0,1-13,11,73.82,73.82,0,0,1-8,5c-8.3,4.41-10.38,3.26-17,7-4.41,2.49-9.46,5.43-11,11a11.74,11.74,0,0,0-.41,2.39A13.08,13.08,0,0,0,137.75,207.74Z"/><path class="cls-6" d="M197,171.71a6.06,6.06,0,0,0-.53-1.74,5.56,5.56,0,0,0-3.43-3,5.71,5.71,0,0,0-6,2,92.8,92.8,0,0,1-13,11,72.83,72.83,0,0,1-8,5c-8.3,4.41-10.38,3.26-17,7-4.41,2.49-9.46,5.43-11,11a12.52,12.52,0,0,0-.42,2.47,13.08,13.08,0,0,0,0,2.27"/><path class="cls-5" d="M170.48,216.4l-1.12,6a2.64,2.64,0,0,1-3.07,2.11L136.38,219a2.63,2.63,0,0,1-2.11-3.07l.34-1.82.79-4.23a2.63,2.63,0,0,1,2.21-2.13,2.77,2.77,0,0,1,.86,0l29.91,5.57a2.6,2.6,0,0,1,1.75,1.2A2.57,2.57,0,0,1,170.48,216.4Z"/><path class="cls-6" d="M215.61,152.62A5.85,5.85,0,0,0,211,151c-1.94.31-3.12,1.85-4,3a12.11,12.11,0,0,0-2,4s-1.06,3.45-5,10c-1.7,2.83-3.12,3.84-6.65,6.91h0c-.69.61-1.47,1.29-2.34,2.08-2.77,2.51-6.62,6.18-11,11"/><path class="cls-6" d="M225.78,147.85A6.4,6.4,0,0,0,216,151c-.1.45-.23,1-.39,1.62s-.38,1.5-.61,2.38c-1.23,4.61-2.29,8.57-4,12-1.3,2.6-2.52,4-6,8-2.58,3-6.63,7.68-12,14"/><path class="cls-6" d="M170.13,214.53c3.93-1.58,7.54-2.22,17.87-4.53,3.27-.73,5.52-1.26,8-3a71.55,71.55,0,0,0,7-6c4.29-4.68,2.62-1.81,12-12,4.52-4.91,6.49-7,7.52-8.33.11-.14.2-.26.28-.38l0,0c.07-.09.12-.18.18-.26a42.52,42.52,0,0,0,4-8,110.65,110.65,0,0,0,6-25l-.15-.1A5.47,5.47,0,0,0,229,146a5.35,5.35,0,0,0-3.22,1.85A5.87,5.87,0,0,0,225,149c-.19,1.52-.49,3.58-1,6a67.69,67.69,0,0,1-5,15,60.91,60.91,0,0,1-6,10,55.86,55.86,0,0,1-11,11"/><path class="cls-5" d="M205.5,135.5A69.66,69.66,0,0,1,196.43,170a5.56,5.56,0,0,0-3.43-3,5.71,5.71,0,0,0-6,2,92.8,92.8,0,0,1-13,11,72.83,72.83,0,0,1-8,5c-8.3,4.41-10.38,3.26-17,7-4.41,2.49-9.46,5.43-11,11a12.52,12.52,0,0,0-.42,2.47c-.69,0-1.38,0-2.08,0-1.3,0-2.59,0-3.87-.11a11.74,11.74,0,0,0-.41-2.39c-1.54-5.57-6.59-8.51-11-11-6.62-3.74-8.7-2.59-17-7a73.82,73.82,0,0,1-8-5,92.8,92.8,0,0,1-13-11,5.7,5.7,0,0,0-6-2,5.35,5.35,0,0,0-2.45,1.53,70,70,0,1,1,131.73-33Z"/><path class="cls-5" d="M131.61,207.74a2.77,2.77,0,0,0-.86,0l-29.91,5.57a2.6,2.6,0,0,0-1.75,1.2c-3.93-1.58-7.55-2.22-17.87-4.53-3.26-.73-5.52-1.26-8-3a72.76,72.76,0,0,1-7-6c-4.29-4.68-2.61-1.81-12-12-5.33-5.79-7.11-7.64-8-9-.15-.23-.29-.46-.43-.69l-.42-.69A45.29,45.29,0,0,1,42.22,172a90,90,0,0,1-3.76-12.45c0-.14-.06-.28-.1-.42v0c-1.08-4.72-1.73-9-2.14-12.11a5.52,5.52,0,0,1,4-1,5.35,5.35,0,0,1,3.22,1.85A6.4,6.4,0,0,1,53.22,151l.39,1.62A5.85,5.85,0,0,1,58.22,151c2,.31,3.12,1.85,4,3a12.11,12.11,0,0,1,2,4s1.06,3.45,5,10l.21.34,2.92,2.9a5.81,5.81,0,0,1,1.42-2.71A5.35,5.35,0,0,1,76.22,167a5.7,5.7,0,0,1,6,2,92.8,92.8,0,0,0,13,11,73.82,73.82,0,0,0,8,5c8.3,4.41,10.38,3.26,17,7,4.41,2.49,9.46,5.43,11,11a11.74,11.74,0,0,1,.41,2.39A13.08,13.08,0,0,1,131.61,207.74Z"/><path class="cls-7" d="M134.61,217.77a2.59,2.59,0,0,1-1.77,1.22l-29.91,5.57a2.64,2.64,0,0,1-3.07-2.11l-1.12-6a2.57,2.57,0,0,1,.35-1.87,2.6,2.6,0,0,1,1.75-1.2l29.91-5.57a2.77,2.77,0,0,1,.86,0,2.63,2.63,0,0,1,2.21,2.13l.79,4.23.34,1.82A2.57,2.57,0,0,1,134.61,217.77Z"/><path class="cls-6" d="M72.58,171.71a6.06,6.06,0,0,1,.53-1.74,5.56,5.56,0,0,1,3.43-3,5.71,5.71,0,0,1,6,2,92.8,92.8,0,0,0,13,11,72.83,72.83,0,0,0,8,5c8.3,4.41,10.38,3.26,17,7,4.41,2.49,9.46,5.43,11,11a12.52,12.52,0,0,1,.42,2.47,13.08,13.08,0,0,1,0,2.27"/><path class="cls-6" d="M53.93,152.62A5.85,5.85,0,0,1,58.54,151c1.94.31,3.12,1.85,4,3a12.11,12.11,0,0,1,2,4s1.06,3.45,5,10c1.7,2.83,3.12,3.84,6.65,6.91h0c.69.61,1.47,1.29,2.34,2.08,2.77,2.51,6.62,6.18,11,11"/><path class="cls-6" d="M43.76,147.85A6.4,6.4,0,0,1,53.54,151c.1.45.23,1,.39,1.62s.38,1.5.61,2.38c1.23,4.61,2.29,8.57,4,12,1.3,2.6,2.52,4,6,8,2.58,3,6.63,7.68,12,14"/><path class="cls-6" d="M99.41,214.53c-3.93-1.58-7.54-2.22-17.87-4.53-3.27-.73-5.52-1.26-8-3a71.55,71.55,0,0,1-7-6c-4.29-4.68-2.62-1.81-12-12-4.52-4.91-6.49-7-7.52-8.33-.11-.14-.2-.26-.28-.38l0,0c-.07-.09-.12-.18-.18-.26a42.52,42.52,0,0,1-4-8,110.65,110.65,0,0,1-6-25l.15-.1a5.47,5.47,0,0,1,3.85-.9,5.35,5.35,0,0,1,3.22,1.85,5.87,5.87,0,0,1,.78,1.15c.19,1.52.49,3.58,1,6a67.69,67.69,0,0,0,5,15,60.91,60.91,0,0,0,6,10,55.86,55.86,0,0,0,11,11"/><path class="cls-8" d="M170.5,135.76,169,135.6a13,13,0,0,0-3.57,3.63A14.05,14.05,0,0,0,164,142a13,13,0,0,0-.86,4.07A11.6,11.6,0,0,0,164,151a11.34,11.34,0,0,0,1.7,2.83,35.46,35.46,0,0,1-6.49,8.13,11.85,11.85,0,0,1-1.21,0,14.62,14.62,0,0,0,3-5,15,15,0,0,0-1-12c-.59-1-3.92-6.58-10-7-6.63-.46-11.43,5.53-13,10-.55,1.56-1.7,4.84,0,8a8.87,8.87,0,0,0,5,4c-.16,1.27-.62,1.78-1,2-1.07.63-2.48-.41-9-5-2.84-2-3.87-2.72-4-4-.15-1.43,1-2.1,2-4a12.11,12.11,0,0,0,1-9,10.4,10.4,0,0,0-8-7c-5.51-.83-10.73,3.76-12,9a12.46,12.46,0,0,0,4,12,10.51,10.51,0,0,1-4,7,7.39,7.39,0,0,1-.71.48,34.44,34.44,0,0,1-3.59-4l.3-.44a5.83,5.83,0,0,0,1-2c.44-1.94-.57-3.65-2-6a26.33,26.33,0,0,0-1.78-2.56c-.36-.46-.77-.94-1.22-1.44a3,3,0,0,1,0-1c.18-1.08.83-1.36,1-2s-.37-1.53-1.31-2.45c-.48-.49-1.06-1-1.69-1.55s-1.08-.95-1.49-1.26c0-.25,0-.49,0-.74v-.13a35.08,35.08,0,0,1,.41-5.25,34.26,34.26,0,0,1,.83-3.93,35.47,35.47,0,0,1,1.89-5.3l.47-1a34.47,34.47,0,0,1,3.15-5.22,34.09,34.09,0,0,1,2.21-2.75,31.57,31.57,0,0,1,3-3,34.09,34.09,0,0,1,2.75-2.21,35.88,35.88,0,0,1,4.22-2.63c.76-.4,1.54-.78,2.33-1.12a34.93,34.93,0,0,1,6.81-2.19,34.19,34.19,0,0,1,4-.61c1.14-.11,2.3-.17,3.47-.17.68,0,1.36,0,2,.06a34.68,34.68,0,0,1,4,.44,36.29,36.29,0,0,1,5.34,1.35,34.24,34.24,0,0,1,5.16,2.21,35.12,35.12,0,0,1,4.23,2.62c1,.69,1.87,1.42,2.75,2.2a34.42,34.42,0,0,1,3,3c.78.88,1.52,1.8,2.22,2.75a34.41,34.41,0,0,1,3.14,5.22c.19.37.37.75.54,1.13a35.87,35.87,0,0,1,2.7,9.24,36.63,36.63,0,0,1,.37,4.07C170.49,135.12,170.5,135.44,170.5,135.76Z"/><polygon class="cls-8" points="148.5 81.5 145.5 110.5 121.5 110.5 118.5 81.5 124.93 77.48 128.28 107.62 132.26 107.18 128.69 75.13 134.5 71.5 139.83 75.31 136.29 107.18 140.26 107.62 143.57 77.98 148.5 81.5"/><path class="cls-8" d="M85.77,141.43A5.35,5.35,0,0,0,87,144a13.61,13.61,0,0,0-3,4c-.06.12-.15.31-.26.56L79.5,149l-4-6.43Z"/><path class="cls-8" d="M108.5,122v24l-4.28.44c-.36-.46-.77-.94-1.22-1.44a3,3,0,0,1,0-1c.18-1.08.83-1.36,1-2s-.37-1.53-1.31-2.45l2.93-.33-.44-4-5.68.63-1.37.16-1.44.16-4,.44A3.81,3.81,0,0,0,91,136a5.25,5.25,0,0,0-3.73,1.23l-14.14,1.58L69.5,133l3.81-5.33,26.6,3,5.27.59.44-4-4.88-.55L76,123.93,79.5,119l23.13,2.39,2.67.28Z"/><path class="cls-8" d="M184.26,141.32l11.26,1.25-4,6.43-6.65-.69A12.25,12.25,0,0,0,184.26,141.32Z"/><path class="cls-8" d="M201.5,133l-3.63,5.81L181.19,137A10.32,10.32,0,0,0,174,134a9,9,0,0,0-3.52.8c0,.32,0,.64,0,1L169,135.6l-3.21-.36-.44,4h.08A14.05,14.05,0,0,0,164,142a13,13,0,0,0-.86,4.07l-.64-.07V122l1.85-.19h0l3-.32L191.5,119l3.52,4.93-25.73,2.87-3.91.44.44,4,4.29-.48,27.58-3.06Z"/><polygon class="cls-8" points="101.65 89.58 120.56 106.49 108.32 123.41 86.34 110.73 86.79 104.15 109.75 117.16 111.47 114.13 87.05 100.3 87.45 94.35 92.86 92.53 113.52 111.29 115.86 108.71 96.65 91.26 101.65 89.58"/><polygon class="cls-8" points="168.26 89.58 149.34 106.49 161.59 123.41 183.56 110.73 183.12 104.15 160.16 117.16 158.44 114.13 182.86 100.3 182.45 94.35 177.05 92.53 156.38 111.29 154.05 108.71 173.26 91.26 168.26 89.58"/><path class="cls-6" d="M94.5,178.5A11.48,11.48,0,0,1,95,169c1.51-2.73,4.65-5.57,8.5-5.5,5.61.09,9.93,6.29,9.5,11.5a9.68,9.68,0,0,1-2,5,5.7,5.7,0,0,0,4,4,5.8,5.8,0,0,0,2-2c.52-.89.49-1.42,1-2a3.71,3.71,0,0,1,3-1l2-2a10.7,10.7,0,0,1-4-4c-1.81-3.24-2.44-8.62,1-12s9.43-3,13,0a10.1,10.1,0,0,1,3,11,9.3,9.3,0,0,1-3,4c1.94,1.2,3.64,2.21,5,3,4.18,2.43,5.41,3,7,3a8.34,8.34,0,0,0,4-1,10.71,10.71,0,0,1-4-7,10.38,10.38,0,0,1,5-10,10.79,10.79,0,0,1,12,1c4.66,3.67,4.11,9.82,4,11a13.66,13.66,0,0,1-1,4l3,4"/><path class="cls-6" d="M198.5,164.5a16.75,16.75,0,0,0-7-5,16.5,16.5,0,0,0-7-1l-3-4A11.3,11.3,0,0,0,184,151a12.73,12.73,0,0,0,.26-9.68A10.94,10.94,0,0,0,183,139a13.81,13.81,0,0,0-1.81-2.05A10.32,10.32,0,0,0,174,134a9,9,0,0,0-3.52.8,8.9,8.9,0,0,0-1.45.8,13,13,0,0,0-3.57,3.63A14.05,14.05,0,0,0,164,142a13,13,0,0,0-.86,4.07A11.6,11.6,0,0,0,164,151a11.34,11.34,0,0,0,1.7,2.83A12.17,12.17,0,0,0,168,156a9.75,9.75,0,0,1-2,3,10.55,10.55,0,0,1-6.79,3,11.85,11.85,0,0,1-1.21,0,14.62,14.62,0,0,0,3-5,15,15,0,0,0-1-12c-.59-1-3.92-6.58-10-7-6.63-.46-11.43,5.53-13,10-.55,1.56-1.7,4.84,0,8a8.87,8.87,0,0,0,5,4c-.16,1.27-.62,1.78-1,2-1.07.63-2.48-.41-9-5-2.84-2-3.87-2.72-4-4-.15-1.43,1-2.1,2-4a12.11,12.11,0,0,0,1-9,10.4,10.4,0,0,0-8-7c-5.51-.83-10.73,3.76-12,9a12.46,12.46,0,0,0,4,12,10.51,10.51,0,0,1-4,7,7.39,7.39,0,0,1-.71.48A10.46,10.46,0,0,1,104,163l-1-2a14.35,14.35,0,0,0,3.7-3.56l.3-.44a5.83,5.83,0,0,0,1-2c.44-1.94-.57-3.65-2-6a26.33,26.33,0,0,0-1.78-2.56c-.36-.46-.77-.94-1.22-1.44a3,3,0,0,1,0-1c.18-1.08.83-1.36,1-2s-.37-1.53-1.31-2.45c-.48-.49-1.06-1-1.69-1.55s-1.08-.95-1.49-1.26a3.14,3.14,0,0,0-1.38-.71.61.61,0,0,0-.13,0,2.48,2.48,0,0,0-1.31.19A5.45,5.45,0,0,1,94,137a2.63,2.63,0,0,1-1.33-.37A3.81,3.81,0,0,0,91,136a5.25,5.25,0,0,0-3.73,1.23A4.43,4.43,0,0,0,86,139a4.57,4.57,0,0,0-.23,2.43A5.35,5.35,0,0,0,87,144a13.61,13.61,0,0,0-3,4c-.06.12-.15.31-.26.56A11.09,11.09,0,0,0,83,156a5.7,5.7,0,0,0,1,2c.12.14,1.68,2,3.59,1.94.2,0,.37,0,.41.06.2.4-2.94,2.38-4,3a23.5,23.5,0,0,1-11,3"/></g></g></svg>