<svg xmlns="http://www.w3.org/2000/svg" viewBox="0 0 2596.74 1600"><defs><style>.cls-1{fill:#2a317f;}.cls-2{fill:#152259;}.cls-3{fill:#eebb2e;}.cls-4{fill:#f08a43;}.cls-5{fill:#8fcd65;}.cls-6{fill:#487827;}</style></defs><g id="Layer_2" data-name="Layer 2"><g id="Layer_1-2" data-name="Layer 1"><rect class="cls-1" width="2596.74" height="1600"/><polygon class="cls-2" points="1857.89 1157.88 1837.62 1240.49 1749.38 1600 1129.81 1600 1350.24 1214.02 1857.89 1157.88"/><polygon class="cls-2" points="2596.74 1225.62 2596.74 1318.92 2424.14 1343.58 1199.87 641.19 281.78 0 362.16 0 1441.84 592.18 1818.41 798.72 2596.74 1225.62"/><polygon class="cls-3" points="2279.55 0 1818.41 798.72 1799.9 830.78 1428.03 616.08 360.94 0 2279.55 0"/><polygon class="cls-4" points="2596.74 0 2596.74 1290.84 1799.9 830.78 1428.03 616.09 1428.03 616.08 1441.84 592.18 1783.73 0 2596.74 0"/><polygon class="cls-5" points="1257.02 542.21 1199.87 641.19 646.31 1600 0 1600 0 0 317.88 0 1257.02 542.21"/><polygon class="cls-6" points="2596.74 1584.46 2596.74 1600 1602.63 1600 1857.89 1157.88 2596.74 1584.46"/><polygon class="cls-5" points="2596.74 1584.81 2596.74 1600 1630.05 1600 1837.62 1240.49 1878.3 1170.02 2596.74 1584.81"/></g></g></svg>