<svg xmlns="http://www.w3.org/2000/svg" viewBox="0 0 56.01 55.65"><defs><style>.cls-1{opacity:0.5;}.cls-2{fill:#fff;}.cls-3{fill:#bfbfbf;}</style></defs><g id="Layer_2" data-name="Layer 2"><g id="Layer_3" data-name="Layer 3"><g class="cls-1"><path class="cls-2" d="M42.11,32.43a.55.55,0,0,1-.29.71l-1.16.51a.51.51,0,0,1-.66-.23l-16,0L20.55,35,28,51.23,25.3,52.92l-1.88,1.2L12.66,38.55l-2.44,1.11a.56.56,0,0,1-.75-.28l-2.73-6L4,27.3a.56.56,0,0,1,.27-.75l14.05-6.41h0L29.1,8.47,29,8.19a.53.53,0,0,1,.28-.69L30.43,7a.55.55,0,0,1,.71.28l3.77,8.64a4.76,4.76,0,0,1,3.56,8.18Z"/><path class="cls-2" d="M37.37,13.05a1,1,0,0,1-.15-1.46l6-7.36a1.06,1.06,0,0,1,1.46-.14,1,1,0,0,1,.14,1.46l-6,7.35a1,1,0,0,1-.79.38A1,1,0,0,1,37.37,13.05Z"/><path class="cls-2" d="M42.56,16.3l8.56-4.18a1.18,1.18,0,0,1,.45-.1A1,1,0,0,1,52,14l-8.55,4.17a1.06,1.06,0,0,1-.45.11,1,1,0,0,1-.46-2Z"/><path class="cls-2" d="M53.38,25.89a1.36,1.36,0,0,1,0,.2,1,1,0,0,1-1.21.83L42.8,25.18a1,1,0,0,1-.84-1c0-.07,0-.14,0-.2a1,1,0,0,1,1.21-.83l9.35,1.73A1,1,0,0,1,53.38,25.89Z"/><path class="cls-2" d="M54.41,36.92A28,28,0,0,1,5.73,44.61a27.72,27.72,0,0,0,11.82,8A28,28,0,0,0,49.1,9.24,27.94,27.94,0,0,1,54.41,36.92Z"/></g><circle class="cls-2" cx="33.15" cy="17.83" r="5.06"/><polygon class="cls-2" points="17.26 32.1 25.54 50.27 22.7 52.06 20.69 53.33 8.71 35.99 17.26 32.1"/><polygon class="cls-2" points="17.26 32.1 25.54 50.27 22.7 52.06 14.23 33.48 17.26 32.1"/><polygon class="cls-2" points="26.89 4.72 39.03 31.37 38.78 31.37 20.85 31.34 14.72 17.89 26.89 4.72"/><polygon class="cls-2" points="32.61 17.83 38.78 31.37 20.85 31.34 17.78 24.59 32.61 17.83"/><rect class="cls-3" x="32.32" y="2.33" width="2.49" height="30.27" rx="0.57" transform="translate(-4.18 14.86) rotate(-23.55)"/><rect class="cls-3" x="2.18" y="20" width="17.58" height="15.29" rx="0.6" transform="translate(-10.47 7.04) rotate(-24.5)"/><path class="cls-3" d="M19,24l2.9,6.36a.63.63,0,0,1-.3.8L6.69,38a.6.6,0,0,1-.79-.29L3,31.33Z"/><rect class="cls-2" x="33.25" y="3.9" width="12.29" height="2.2" rx="1.1" transform="translate(10.53 32.27) rotate(-50.61)"/><rect class="cls-2" x="39.88" y="10.88" width="12.29" height="2.2" rx="1.1" transform="translate(-0.59 21.4) rotate(-26.01)"/><rect class="cls-2" x="40.28" y="21.37" width="12.29" height="2.2" rx="1.1" transform="translate(4.86 -8.07) rotate(10.48)"/></g></g></svg>