<svg xmlns="http://www.w3.org/2000/svg" viewBox="0 0 265.68 56.05"><defs><style>.cls-1{fill:#83db63;}.cls-2{fill:#2165b8;}.cls-3{fill:#ffc928;}.cls-4{fill:#f0f0f0;}.cls-5{fill:#fff;}.cls-6{fill:#e77e23;}.cls-7{fill:#afc7e3;}</style></defs><g id="Layer_2" data-name="Layer 2"><g id="Layer_2-2" data-name="Layer 2"><path class="cls-1" d="M1.59,18.72a28,28,0,1,1,17.13,35.7A28,28,0,0,1,1.59,18.72Z"/><path class="cls-2" d="M1.59,18.72a28,28,0,0,1,47.52-9.1A28,28,0,0,1,5.75,45,28,28,0,0,1,1.59,18.72Z"/><path class="cls-1" d="M42.12,32.8a.54.54,0,0,1-.29.71L40.66,34a.52.52,0,0,1-.66-.23l-16,0-3.4,1.56L28,51.6l-2.68,1.69-1.88,1.2L12.67,38.92,10.22,40a.56.56,0,0,1-.74-.28l-2.73-6L4,27.67a.56.56,0,0,1,.27-.75L18.3,20.51h0L29.11,8.84,29,8.56a.52.52,0,0,1,.28-.69l1.17-.52a.56.56,0,0,1,.71.28l3.77,8.64a4.76,4.76,0,0,1,3.56,8.18Z"/><path class="cls-1" d="M37.38,13.42A1,1,0,0,1,37.22,12l6.05-7.35a1,1,0,0,1,.8-.38,1,1,0,0,1,.66.23,1.05,1.05,0,0,1,.14,1.47l-6,7.35a1,1,0,0,1-.8.37A1,1,0,0,1,37.38,13.42Z"/><path class="cls-1" d="M42.57,16.67l8.56-4.18a1.18,1.18,0,0,1,.45-.1,1.06,1.06,0,0,1,.93.58A1,1,0,0,1,52,14.36l-8.55,4.18a1.22,1.22,0,0,1-.45.1,1,1,0,0,1-.46-2Z"/><path class="cls-1" d="M53.39,26.26a1.36,1.36,0,0,1,0,.2,1,1,0,0,1-1.21.83l-9.35-1.73a1,1,0,0,1-.85-1,1.36,1.36,0,0,1,0-.2,1,1,0,0,1,1.21-.83l9.35,1.73A1,1,0,0,1,53.39,26.26Z"/><circle class="cls-3" cx="33.16" cy="18.2" r="5.06"/><polygon class="cls-4" points="17.27 32.47 25.55 50.64 22.71 52.44 20.7 53.7 8.72 36.37 17.27 32.47"/><polygon class="cls-5" points="17.27 32.47 25.55 50.64 22.71 52.44 14.24 33.85 17.27 32.47"/><polygon class="cls-5" points="26.89 5.09 39.04 31.74 38.79 31.74 20.86 31.71 14.73 18.26 26.89 5.09"/><polygon class="cls-4" points="32.62 18.2 38.79 31.74 20.86 31.71 17.79 24.96 32.62 18.2"/><rect class="cls-6" x="32.33" y="2.7" width="2.49" height="30.27" rx="0.57" transform="translate(-4.33 14.9) rotate(-23.55)"/><rect class="cls-3" x="2.19" y="20.37" width="17.58" height="15.29" rx="0.6" transform="translate(-10.63 7.08) rotate(-24.5)"/><path class="cls-6" d="M19,24.41l2.91,6.37a.62.62,0,0,1-.3.79L6.7,38.36a.6.6,0,0,1-.79-.29L3,31.7Z"/><rect class="cls-7" x="33.26" y="4.27" width="12.29" height="2.2" rx="1.1" transform="matrix(0.63, -0.77, 0.77, 0.63, 10.25, 32.42)"/><rect class="cls-7" x="39.89" y="11.25" width="12.29" height="2.2" rx="1.1" transform="translate(-0.75 21.44) rotate(-26.01)"/><rect class="cls-7" x="40.29" y="21.75" width="12.29" height="2.2" rx="1.1" transform="translate(4.93 -8.07) rotate(10.48)"/><path class="cls-1" d="M77.4,9.45a3.4,3.4,0,0,1-.15,1,3,3,0,0,1-.44.88,3.31,3.31,0,0,1-.69.71,4.19,4.19,0,0,1-.91.49,2.69,2.69,0,0,1,.74.25,2,2,0,0,1,.58.47,2.07,2.07,0,0,1,.37.67,2.66,2.66,0,0,1,.14.88,3.74,3.74,0,0,1-.12.91,3.81,3.81,0,0,1-.38.92,3.74,3.74,0,0,1-.67.85,4,4,0,0,1-1,.72,5.84,5.84,0,0,1-1.34.48,7.78,7.78,0,0,1-1.77.18H68.49a.73.73,0,0,1-.55-.18.66.66,0,0,1-.09-.58L69.92,7.8a.88.88,0,0,1,.33-.59A1,1,0,0,1,70.83,7h2.85a7.86,7.86,0,0,1,1.63.14,3.54,3.54,0,0,1,1.15.45,1.8,1.8,0,0,1,.7.75A2.25,2.25,0,0,1,77.4,9.45Zm-2.88,5.49a1.13,1.13,0,0,0-.44-.93,2.29,2.29,0,0,0-1.38-.34H71.09L70.43,17h1.7a2.89,2.89,0,0,0,1.09-.18,2.15,2.15,0,0,0,.74-.48,1.81,1.81,0,0,0,.42-.67A2.28,2.28,0,0,0,74.52,14.94Zm.4-5a1.06,1.06,0,0,0-.09-.45.86.86,0,0,0-.27-.33,1.46,1.46,0,0,0-.47-.21,2.78,2.78,0,0,0-.71-.07H72.07l-.62,3.07h1.36a2.43,2.43,0,0,0,1-.18,2,2,0,0,0,.64-.49,1.92,1.92,0,0,0,.37-.65A2.48,2.48,0,0,0,74.92,9.9Z"/><path class="cls-1" d="M90.71,18a4,4,0,0,1,0,.53.37.37,0,0,1-.13.28.69.69,0,0,1-.41.12q-.28,0-.78,0l-.56,0a1.29,1.29,0,0,1-.34-.05.27.27,0,0,1-.17-.11.37.37,0,0,1,0-.2L88,16.18H83.54l-1.23,2.33a.8.8,0,0,1-.15.21.47.47,0,0,1-.23.13,2,2,0,0,1-.42.07l-.65,0a5.51,5.51,0,0,1-.66,0,.45.45,0,0,1-.31-.13.33.33,0,0,1,0-.3A3.32,3.32,0,0,1,80.1,18L85.85,7.46A1.46,1.46,0,0,1,86,7.2a.54.54,0,0,1,.26-.14A1.65,1.65,0,0,1,86.76,7h1.61a1.9,1.9,0,0,1,.49.07.36.36,0,0,1,.23.15.88.88,0,0,1,.07.27ZM87.11,9.3h0l-2.65,5h3.34Z"/><path class="cls-1" d="M101.78,17.26a2,2,0,0,1,0,.21,2.3,2.3,0,0,1,0,.32,2.87,2.87,0,0,1-.08.38,1.8,1.8,0,0,1-.12.35.82.82,0,0,1-.16.26.26.26,0,0,1-.21.1H95.72a.84.84,0,0,1-.27,0,.41.41,0,0,1-.2-.14.53.53,0,0,1-.1-.24.79.79,0,0,1,0-.34L97.32,7.36a.23.23,0,0,1,.08-.17.51.51,0,0,1,.22-.12A2.53,2.53,0,0,1,98,7l.59,0,.57,0a1.75,1.75,0,0,1,.36.07.29.29,0,0,1,.17.12.2.2,0,0,1,0,.17l-1.9,9.53h3.73a.18.18,0,0,1,.18.11A.48.48,0,0,1,101.78,17.26Z"/><path class="cls-1" d="M108.23,18.56a.32.32,0,0,1-.09.17.64.64,0,0,1-.22.11,1.43,1.43,0,0,1-.39.07,4.91,4.91,0,0,1-.59,0,4.51,4.51,0,0,1-.58,0,1,1,0,0,1-.35-.07.37.37,0,0,1-.18-.11.25.25,0,0,1,0-.17l2.25-11.2a.23.23,0,0,1,.08-.17.62.62,0,0,1,.23-.12,2.53,2.53,0,0,1,.39-.07l.58,0,.57,0a2.08,2.08,0,0,1,.36.07.29.29,0,0,1,.17.12.2.2,0,0,1,0,.17Z"/><path class="cls-1" d="M126.14,18.29a1.3,1.3,0,0,1-.21.35.8.8,0,0,1-.32.2,2.27,2.27,0,0,1-.51.08l-.77,0-.8,0a1.69,1.69,0,0,1-.48-.08.39.39,0,0,1-.23-.18.67.67,0,0,1-.08-.31l-.43-7.59h0L119,18.29a1.62,1.62,0,0,1-.2.35.65.65,0,0,1-.28.2,1.68,1.68,0,0,1-.47.08l-.78,0-.88,0a1.94,1.94,0,0,1-.51-.08.39.39,0,0,1-.24-.21,1.1,1.1,0,0,1-.07-.37l-.64-10.42a3.18,3.18,0,0,1,0-.47.34.34,0,0,1,.15-.26,1,1,0,0,1,.38-.11l.71,0,.63,0a1.24,1.24,0,0,1,.38.09.26.26,0,0,1,.15.16.62.62,0,0,1,0,.26l.23,9h0l4-9a1.39,1.39,0,0,1,.16-.28.57.57,0,0,1,.25-.16,1.34,1.34,0,0,1,.4-.08l.68,0,.66,0a1.08,1.08,0,0,1,.38.08.27.27,0,0,1,.16.17,1,1,0,0,1,0,.29l.46,9h0l3.89-9.14a.61.61,0,0,1,.12-.21.48.48,0,0,1,.23-.14,1.89,1.89,0,0,1,.41-.06l.66,0a4.82,4.82,0,0,1,.61,0,.45.45,0,0,1,.31.14c.06.06.06.16,0,.29a5.16,5.16,0,0,1-.19.52Z"/><path class="cls-1" d="M142.37,18a2.8,2.8,0,0,1,0,.53.32.32,0,0,1-.13.28.65.65,0,0,1-.4.12q-.28,0-.78,0l-.57,0a1.29,1.29,0,0,1-.34-.05.24.24,0,0,1-.16-.11.47.47,0,0,1-.06-.2l-.32-2.38H135.2L134,18.51a1.91,1.91,0,0,1-.15.21.46.46,0,0,1-.24.13,1.81,1.81,0,0,1-.41.07l-.66,0a5.32,5.32,0,0,1-.65,0,.43.43,0,0,1-.31-.13.31.31,0,0,1,0-.3,2.56,2.56,0,0,1,.23-.51l5.75-10.51a1.46,1.46,0,0,1,.18-.26.59.59,0,0,1,.26-.14,1.78,1.78,0,0,1,.46-.07H140a1.83,1.83,0,0,1,.49.07.34.34,0,0,1,.23.15.67.67,0,0,1,.07.27Zm-3.6-8.68h0l-2.64,5h3.33Z"/><path class="cls-1" d="M157.83,8.3c0,.06,0,.14,0,.24s0,.2,0,.31a3.38,3.38,0,0,1-.08.34,2.24,2.24,0,0,1-.11.31.93.93,0,0,1-.14.22.24.24,0,0,1-.16.09.81.81,0,0,1-.39-.16,5.93,5.93,0,0,0-.64-.34,5,5,0,0,0-1-.35,4.9,4.9,0,0,0-1.35-.16,4.31,4.31,0,0,0-1.42.23,4.46,4.46,0,0,0-1.19.61,4.32,4.32,0,0,0-.94.92,5.89,5.89,0,0,0-.69,1.13,6.1,6.1,0,0,0-.41,1.25,5.64,5.64,0,0,0-.14,1.28,3.4,3.4,0,0,0,.2,1.24,2.37,2.37,0,0,0,.58.89,2.7,2.7,0,0,0,.92.54,3.8,3.8,0,0,0,1.21.18A4.48,4.48,0,0,0,153,17a3.52,3.52,0,0,0,.81-.28l.55-2.73h-2.23a.21.21,0,0,1-.18-.09.51.51,0,0,1-.06-.28,1.15,1.15,0,0,1,0-.24c0-.1,0-.2,0-.31s.05-.21.08-.32a1.1,1.1,0,0,1,.11-.29,1,1,0,0,1,.15-.21.26.26,0,0,1,.18-.09h4a.48.48,0,0,1,.44.21.77.77,0,0,1,0,.56L156,17.65a2.82,2.82,0,0,1-.09.3,1.14,1.14,0,0,1-.15.23,1.5,1.5,0,0,1-.47.26,6.66,6.66,0,0,1-.89.29,10.09,10.09,0,0,1-1.18.25,8.2,8.2,0,0,1-1.32.1,8,8,0,0,1-2.25-.29,4.41,4.41,0,0,1-1.62-.87,3.68,3.68,0,0,1-1-1.43,5.09,5.09,0,0,1-.34-1.94,9,9,0,0,1,.21-1.94,8.64,8.64,0,0,1,.64-1.81,7.66,7.66,0,0,1,1.06-1.58A6.26,6.26,0,0,1,150,8a7.24,7.24,0,0,1,1.85-.83,7.79,7.79,0,0,1,2.22-.3,7.12,7.12,0,0,1,1.26.11,8,8,0,0,1,1.07.26,4.3,4.3,0,0,1,.79.32,2.81,2.81,0,0,1,.43.27.52.52,0,0,1,.14.22A1.12,1.12,0,0,1,157.83,8.3Z"/><path class="cls-1" d="M112.7,24.17c-.06.25-.12.47-.18.65a1.83,1.83,0,0,1-.2.44.92.92,0,0,1-.22.25.4.4,0,0,1-.23.08h-4.29l-3.09,13.82a.44.44,0,0,1-.14.23.87.87,0,0,1-.32.18,3,3,0,0,1-.56.1,6.92,6.92,0,0,1-.85,0,6.37,6.37,0,0,1-.83,0,2.52,2.52,0,0,1-.52-.1.47.47,0,0,1-.24-.18.37.37,0,0,1,0-.23l3.09-13.82h-4.3a.28.28,0,0,1-.2-.08.53.53,0,0,1-.11-.25,1.59,1.59,0,0,1,0-.44c0-.18.06-.4.11-.65a5.31,5.31,0,0,1,.19-.68,2,2,0,0,1,.2-.44.86.86,0,0,1,.21-.24.4.4,0,0,1,.24-.07H112.5a.27.27,0,0,1,.2.07.39.39,0,0,1,.12.24,1.6,1.6,0,0,1,0,.44A6.19,6.19,0,0,1,112.7,24.17Z"/><path class="cls-1" d="M127.43,39.43a.63.63,0,0,1-.1.25.6.6,0,0,1-.29.16,2.56,2.56,0,0,1-.61.1l-1.05,0-.88,0a1.7,1.7,0,0,1-.5-.11.34.34,0,0,1-.23-.18.71.71,0,0,1-.07-.27L123,35.55c-.09-.43-.18-.82-.28-1.15a2.92,2.92,0,0,0-.4-.85,1.69,1.69,0,0,0-.64-.51,2.39,2.39,0,0,0-.94-.17h-1.09l-1.46,6.54a.42.42,0,0,1-.13.23,1,1,0,0,1-.33.18,2.88,2.88,0,0,1-.55.1,6.88,6.88,0,0,1-.86,0,6.47,6.47,0,0,1-.83,0,2.28,2.28,0,0,1-.51-.1.4.4,0,0,1-.24-.18.31.31,0,0,1,0-.23l3.47-15.57a1.35,1.35,0,0,1,.49-.84,1.27,1.27,0,0,1,.79-.26h4.44l1.11,0,.78.07a6.55,6.55,0,0,1,1.75.5,3.3,3.3,0,0,1,1.19.94,3,3,0,0,1,.58,1.36,4.76,4.76,0,0,1-.1,1.81,6.21,6.21,0,0,1-.57,1.57,5.58,5.58,0,0,1-.92,1.27,5.81,5.81,0,0,1-1.27,1,6.86,6.86,0,0,1-1.56.67,2.73,2.73,0,0,1,.62.45A2.47,2.47,0,0,1,126,33a4,4,0,0,1,.37.86,8.61,8.61,0,0,1,.28,1.09l.69,3.38a7.06,7.06,0,0,1,.1.74A1.29,1.29,0,0,1,127.43,39.43ZM125.54,27.8a2.33,2.33,0,0,0-.07-1.43,1.53,1.53,0,0,0-1.07-.82,4,4,0,0,0-.58-.11,7.51,7.51,0,0,0-.93,0h-1.56l-1.09,4.86H122a4.67,4.67,0,0,0,1.34-.18,3.35,3.35,0,0,0,1-.5,3,3,0,0,0,.73-.77A3.35,3.35,0,0,0,125.54,27.8Z"/><path class="cls-1" d="M147.62,38.58a5.45,5.45,0,0,1,0,.76.6.6,0,0,1-.2.42,1.09,1.09,0,0,1-.56.17q-.37,0-1,0l-1.05,0a2.17,2.17,0,0,1-.56-.08c-.13,0-.21-.09-.24-.16a.72.72,0,0,1-.07-.28L143.56,36h-6.44l-1.83,3.36a1.86,1.86,0,0,1-.21.31.72.72,0,0,1-.32.19,2.3,2.3,0,0,1-.57.11l-.92,0a7.77,7.77,0,0,1-1,0,.54.54,0,0,1-.43-.19.46.46,0,0,1,0-.43,5.92,5.92,0,0,1,.36-.74l8.68-15.21a2.37,2.37,0,0,1,.27-.37.9.9,0,0,1,.39-.21,2.62,2.62,0,0,1,.66-.09c.27,0,.64,0,1.09,0s.93,0,1.24,0a2.77,2.77,0,0,1,.7.09.5.5,0,0,1,.32.22,1,1,0,0,1,.11.4ZM142.55,26h0l-4,7.29h4.86Z"/><path class="cls-1" d="M166.68,34.74a5.91,5.91,0,0,1-1.61,3,6.12,6.12,0,0,1-1.28,1,8.59,8.59,0,0,1-1.51.68,11,11,0,0,1-1.67.39,13.92,13.92,0,0,1-1.9.12h-4.56a.86.86,0,0,1-.68-.26.93.93,0,0,1-.11-.84l3.34-14.94a1.3,1.3,0,0,1,.48-.84,1.27,1.27,0,0,1,.79-.26h4.31a11.13,11.13,0,0,1,2.61.26,4.22,4.22,0,0,1,1.66.8,2.66,2.66,0,0,1,.85,1.36,4.14,4.14,0,0,1,0,1.94,4.81,4.81,0,0,1-.42,1.17,4.31,4.31,0,0,1-.68,1,5,5,0,0,1-2.07,1.35,3.67,3.67,0,0,1,1.24.46,2.92,2.92,0,0,1,.89.86,3.36,3.36,0,0,1,.45,1.22A4.34,4.34,0,0,1,166.68,34.74Zm-3.65.12a2.46,2.46,0,0,0,0-1.07,1.54,1.54,0,0,0-.4-.78,2,2,0,0,0-.87-.5,5.59,5.59,0,0,0-1.52-.17h-2.06l-1.09,4.88h2.52a4.73,4.73,0,0,0,1.26-.15,3.84,3.84,0,0,0,1-.45,2.75,2.75,0,0,0,.73-.75A2.62,2.62,0,0,0,163,34.86Zm.75-7.34a2.3,2.3,0,0,0,.05-.93,1.24,1.24,0,0,0-.32-.68,1.7,1.7,0,0,0-.71-.42,4.56,4.56,0,0,0-1.26-.14h-1.76l-1,4.45h1.95a3.71,3.71,0,0,0,1.25-.18,2.91,2.91,0,0,0,.86-.49,2.82,2.82,0,0,0,.6-.73A2.87,2.87,0,0,0,163.78,27.52Z"/><path class="cls-1" d="M185.79,38.58a5.45,5.45,0,0,1,0,.76.6.6,0,0,1-.2.42,1.09,1.09,0,0,1-.56.17q-.37,0-1,0l-1,0a2.17,2.17,0,0,1-.56-.08.38.38,0,0,1-.24-.16.72.72,0,0,1-.07-.28L181.73,36h-6.44l-1.83,3.36a1.41,1.41,0,0,1-.21.31.72.72,0,0,1-.32.19,2.3,2.3,0,0,1-.57.11l-.92,0a7.77,7.77,0,0,1-.95,0,.54.54,0,0,1-.43-.19.46.46,0,0,1,0-.43,5.92,5.92,0,0,1,.36-.74l8.68-15.21a2.37,2.37,0,0,1,.27-.37.9.9,0,0,1,.39-.21,2.62,2.62,0,0,1,.66-.09c.28,0,.64,0,1.09,0s.93,0,1.24,0a2.77,2.77,0,0,1,.7.09.5.5,0,0,1,.32.22,1,1,0,0,1,.11.4ZM180.72,26h0l-4.05,7.29h4.86Z"/><path class="cls-1" d="M204.78,39.41a.51.51,0,0,1-.14.23.92.92,0,0,1-.33.18,2.88,2.88,0,0,1-.55.1,6.74,6.74,0,0,1-.84,0,6.61,6.61,0,0,1-.85,0,2.28,2.28,0,0,1-.51-.1.58.58,0,0,1-.24-.18.31.31,0,0,1,0-.23l1.55-6.94h-6.41l-1.55,6.94a.59.59,0,0,1-.13.23.87.87,0,0,1-.32.18,3,3,0,0,1-.55.1,7,7,0,0,1-.86,0,6.37,6.37,0,0,1-.83,0,2.52,2.52,0,0,1-.52-.1.47.47,0,0,1-.24-.18.37.37,0,0,1,0-.23L195,23.21a.49.49,0,0,1,.13-.23,1,1,0,0,1,.33-.18,3,3,0,0,1,.56-.1,6.81,6.81,0,0,1,.85,0,6.54,6.54,0,0,1,.84,0,2.3,2.3,0,0,1,.5.1.4.4,0,0,1,.24.18.31.31,0,0,1,0,.23l-1.4,6.3h6.41l1.4-6.3A.51.51,0,0,1,205,23a1,1,0,0,1,.32-.18,2.88,2.88,0,0,1,.55-.1,7.06,7.06,0,0,1,.87,0,6.21,6.21,0,0,1,.82,0,2.28,2.28,0,0,1,.51.1.47.47,0,0,1,.24.18.27.27,0,0,1,0,.23Z"/><path class="cls-1" d="M229.18,31.11a15.25,15.25,0,0,1-1.38,3.82,10.58,10.58,0,0,1-2.22,2.85,9.16,9.16,0,0,1-3,1.79,10.69,10.69,0,0,1-3.71.62,9.5,9.5,0,0,1-3.37-.53,4.51,4.51,0,0,1-2.13-1.59,5.49,5.49,0,0,1-.88-2.73,13.7,13.7,0,0,1,.38-3.93,14.53,14.53,0,0,1,1.36-3.74,10.41,10.41,0,0,1,2.21-2.83,9.31,9.31,0,0,1,3-1.78,10.52,10.52,0,0,1,3.72-.63,9.39,9.39,0,0,1,3.33.52,4.43,4.43,0,0,1,2.13,1.59,5.42,5.42,0,0,1,.91,2.71A13.06,13.06,0,0,1,229.18,31.11Zm-3.7.19a13.06,13.06,0,0,0,.33-2.46,4.45,4.45,0,0,0-.29-1.9,2.58,2.58,0,0,0-1.09-1.22,4.15,4.15,0,0,0-2-.43,5,5,0,0,0-2.26.49,5.43,5.43,0,0,0-1.68,1.29A7.18,7.18,0,0,0,217.3,29a13.8,13.8,0,0,0-.73,2.28,14.25,14.25,0,0,0-.35,2.53,4.66,4.66,0,0,0,.29,1.91,2.37,2.37,0,0,0,1.08,1.21,4.21,4.21,0,0,0,2,.42,5,5,0,0,0,2.26-.48,5.24,5.24,0,0,0,1.67-1.29,7.12,7.12,0,0,0,1.18-1.92A13.1,13.1,0,0,0,225.48,31.3Z"/><path class="cls-1" d="M200.09,51.47a6.67,6.67,0,0,1-.71,2,5,5,0,0,1-1.21,1.43,5.06,5.06,0,0,1-1.66.87,7.16,7.16,0,0,1-2.08.29,6.37,6.37,0,0,1-2.07-.3,3.12,3.12,0,0,1-1.37-.89,2.92,2.92,0,0,1-.65-1.46,5.59,5.59,0,0,1,.09-2l1.41-7a.32.32,0,0,1,.09-.17.56.56,0,0,1,.22-.11,1.68,1.68,0,0,1,.38-.08,4.91,4.91,0,0,1,.59,0,4.51,4.51,0,0,1,.58,0,1.38,1.38,0,0,1,.36.08.38.38,0,0,1,.17.11.32.32,0,0,1,0,.17l-1.41,7a3.53,3.53,0,0,0-.08,1.22,1.75,1.75,0,0,0,.3.84,1.44,1.44,0,0,0,.66.5,2.85,2.85,0,0,0,1,.16,3.14,3.14,0,0,0,1.08-.18,2.74,2.74,0,0,0,.89-.52,3.25,3.25,0,0,0,.65-.84,4.07,4.07,0,0,0,.4-1.13l1.42-7.08a.38.38,0,0,1,.08-.17.68.68,0,0,1,.21-.11,1.68,1.68,0,0,1,.38-.08,4.91,4.91,0,0,1,.59,0,4.45,4.45,0,0,1,.57,0,1.4,1.4,0,0,1,.35.08.38.38,0,0,1,.17.11.32.32,0,0,1,0,.17Z"/><path class="cls-1" d="M214.42,46.89a5.8,5.8,0,0,1-.11,1.07,5.13,5.13,0,0,1-.38,1.1,4.86,4.86,0,0,1-.66,1,4,4,0,0,1-1,.85,4.89,4.89,0,0,1-1.37.59,7.09,7.09,0,0,1-1.83.21h-1.23l-.76,3.79a.37.37,0,0,1-.1.17.45.45,0,0,1-.22.12,3,3,0,0,1-.4.07l-.58,0-.57,0a1.94,1.94,0,0,1-.35-.07.32.32,0,0,1-.17-.12.19.19,0,0,1,0-.17l2.13-10.66a1.09,1.09,0,0,1,.36-.65,1.08,1.08,0,0,1,.68-.21h2.59c.31,0,.6,0,.85,0a6,6,0,0,1,.74.11,3.67,3.67,0,0,1,1,.33,2.78,2.78,0,0,1,.76.58,2.56,2.56,0,0,1,.47.8A3.12,3.12,0,0,1,214.42,46.89Zm-2.54.28a1.33,1.33,0,0,0-.21-.76A1.08,1.08,0,0,0,211,46a1.82,1.82,0,0,0-.43-.09l-.53,0H209l-.79,4h1.1a2.57,2.57,0,0,0,.89-.13,2.32,2.32,0,0,0,.65-.32,2.18,2.18,0,0,0,.48-.48,2.68,2.68,0,0,0,.32-.57,3.8,3.8,0,0,0,.18-.61A3.13,3.13,0,0,0,211.88,47.17Z"/><path class="cls-1" d="M228.58,48.27a9.64,9.64,0,0,1-.07,1.17,10,10,0,0,1-.22,1.25,9,9,0,0,1-.44,1.26,5.91,5.91,0,0,1-.67,1.2,6.35,6.35,0,0,1-1,1.06,5.55,5.55,0,0,1-1.27.86,6.94,6.94,0,0,1-1.63.56,9.8,9.8,0,0,1-2.16.2h-3a1.27,1.27,0,0,1-.28,0,.54.54,0,0,1-.22-.13.39.39,0,0,1-.12-.23.89.89,0,0,1,0-.36l2.07-10.33a.89.89,0,0,1,.32-.58,1,1,0,0,1,.59-.18h2.85a8.75,8.75,0,0,1,2.36.27,4.3,4.3,0,0,1,1.58.82,3.31,3.31,0,0,1,1,1.34A5,5,0,0,1,228.58,48.27Zm-2.52.29a3.64,3.64,0,0,0-.16-1.07,2.12,2.12,0,0,0-.5-.86,2.45,2.45,0,0,0-.9-.55,4.14,4.14,0,0,0-1.46-.21h-1.25l-1.62,8.06h1.26a5.05,5.05,0,0,0,1.62-.23,3.91,3.91,0,0,0,2-1.59,5.25,5.25,0,0,0,.58-1.13,6.38,6.38,0,0,0,.33-1.21A8.58,8.58,0,0,0,226.06,48.56Z"/><path class="cls-1" d="M241.56,54.94a2.87,2.87,0,0,1,.05.52.4.4,0,0,1-.13.29.87.87,0,0,1-.41.12l-.78,0h-.57a1.94,1.94,0,0,1-.33-.05.38.38,0,0,1-.17-.11.41.41,0,0,1-.05-.21l-.32-2.38H234.4l-1.23,2.33a.66.66,0,0,1-.15.21.48.48,0,0,1-.23.14,2.11,2.11,0,0,1-.42.06l-.65,0a5.51,5.51,0,0,1-.66,0,.43.43,0,0,1-.31-.13.33.33,0,0,1,0-.3,3.32,3.32,0,0,1,.23-.51l5.75-10.51a1.35,1.35,0,0,1,.19-.25.54.54,0,0,1,.26-.15,2.23,2.23,0,0,1,.45-.06l.76,0,.86,0a2.6,2.6,0,0,1,.49.06.39.39,0,0,1,.22.15.66.66,0,0,1,.08.28ZM238,46.25h0l-2.65,5h3.33Z"/><path class="cls-1" d="M254.49,44.37a1.79,1.79,0,0,1,0,.21,2.3,2.3,0,0,1,0,.32,3,3,0,0,1-.08.36,1.7,1.7,0,0,1-.12.34,1,1,0,0,1-.16.26.34.34,0,0,1-.21.1h-3L249,55.51a.39.39,0,0,1-.1.16.51.51,0,0,1-.22.12,2.53,2.53,0,0,1-.39.07,4.68,4.68,0,0,1-.59,0,4.45,4.45,0,0,1-.57,0,1.9,1.9,0,0,1-.36-.07.3.3,0,0,1-.16-.12.18.18,0,0,1,0-.16l1.9-9.55h-2.95a.21.21,0,0,1-.19-.1.7.7,0,0,1-.05-.28s0-.12,0-.21,0-.21,0-.32,0-.24.09-.37a1.7,1.7,0,0,1,.12-.34,1.05,1.05,0,0,1,.16-.26.3.3,0,0,1,.21-.09h8.35a.17.17,0,0,1,.16.1A.55.55,0,0,1,254.49,44.37Z"/><path class="cls-1" d="M265.68,44.34a1.67,1.67,0,0,1,0,.19c0,.09,0,.19,0,.31s-.05.23-.08.35a1.6,1.6,0,0,1-.11.33.79.79,0,0,1-.17.25.26.26,0,0,1-.2.1h-4.23l-.59,2.9h3.59a.18.18,0,0,1,.18.09.48.48,0,0,1,.06.26,1.58,1.58,0,0,1,0,.19c0,.09,0,.19-.05.3A2.17,2.17,0,0,1,264,50a3,3,0,0,1-.11.32,1.11,1.11,0,0,1-.16.24.28.28,0,0,1-.2.09H259.9L259.22,54h4.28a.19.19,0,0,1,.17.09.7.7,0,0,1,.05.28,1.87,1.87,0,0,1,0,.21,1.77,1.77,0,0,1,0,.3c0,.12,0,.23-.07.35a3,3,0,0,1-.12.32.91.91,0,0,1-.16.24.29.29,0,0,1-.21.09h-5.95a.77.77,0,0,1-.27,0,.36.36,0,0,1-.19-.13.53.53,0,0,1-.11-.24,1,1,0,0,1,0-.34l2.07-10.33a.86.86,0,0,1,.33-.58.91.91,0,0,1,.55-.18h5.89C265.6,44,265.68,44.11,265.68,44.34Z"/><path class="cls-2" d="M67,17.72a1.16,1.16,0,0,1-.91-.34,1.07,1.07,0,0,1-.21-1L68,6a1.35,1.35,0,0,1,.53-.89,1.47,1.47,0,0,1,.87-.27H72.2A8.77,8.77,0,0,1,73.93,5a4.18,4.18,0,0,1,1.32.51,2.63,2.63,0,0,1,.88.94,2.9,2.9,0,0,1,.29,1.31A3.72,3.72,0,0,1,76.25,9a3.81,3.81,0,0,1-.51,1,4.09,4.09,0,0,1-.8.81l0,0a2.38,2.38,0,0,1,.53.47,2.49,2.49,0,0,1,.47.83,3.39,3.39,0,0,1,.16,1,4.18,4.18,0,0,1-.14,1,4.27,4.27,0,0,1-.42,1.05,4.72,4.72,0,0,1-.75,1,4.93,4.93,0,0,1-1.11.8,6.6,6.6,0,0,1-1.46.53,8.27,8.27,0,0,1-1.89.19Zm3.64-2.84a2.5,2.5,0,0,0,.9-.14,1.61,1.61,0,0,0,.57-.37,1.21,1.21,0,0,0,.31-.49,1.59,1.59,0,0,0,.11-.6.6.6,0,0,0-.24-.53,1.75,1.75,0,0,0-1.08-.24H70l-.47,2.37Zm.68-5.12a1.83,1.83,0,0,0,.77-.14,1.51,1.51,0,0,0,.48-.36,1.29,1.29,0,0,0,.27-.48,1.79,1.79,0,0,0,.09-.54.53.53,0,0,0,0-.23.57.57,0,0,0-.12-.15.87.87,0,0,0-.29-.12,2.29,2.29,0,0,0-.58-.06H71l-.43,2.08Z"/><path class="cls-5" d="M72.2,5.38a8.53,8.53,0,0,1,1.63.14A3.54,3.54,0,0,1,75,6a2,2,0,0,1,.71.75,2.38,2.38,0,0,1,.23,1.07,3.4,3.4,0,0,1-.15,1,2.8,2.8,0,0,1-.44.88,3.31,3.31,0,0,1-.69.71,3.62,3.62,0,0,1-.91.49,2.58,2.58,0,0,1,.74.25,2.22,2.22,0,0,1,.58.47,2.09,2.09,0,0,1,.38.67,3,3,0,0,1,.13.88,3.74,3.74,0,0,1-.12.91,3.81,3.81,0,0,1-.38.92,3.74,3.74,0,0,1-.67.85,4,4,0,0,1-1,.72,5.84,5.84,0,0,1-1.34.48,7.72,7.72,0,0,1-1.77.18H67a.74.74,0,0,1-.55-.18.63.63,0,0,1-.08-.58L68.44,6.14a.88.88,0,0,1,.33-.59,1,1,0,0,1,.58-.17H72.2M70,10.26h1.36a2.43,2.43,0,0,0,1-.19A2,2,0,0,0,73,9.58a1.92,1.92,0,0,0,.37-.65,2.48,2.48,0,0,0,.11-.69,1.06,1.06,0,0,0-.09-.45,1,1,0,0,0-.27-.33,1.46,1.46,0,0,0-.47-.21,2.75,2.75,0,0,0-.7-.07H70.6L70,10.26m-1,5.12h1.7a2.89,2.89,0,0,0,1.09-.18,2.15,2.15,0,0,0,.74-.48,1.81,1.81,0,0,0,.42-.67,2.28,2.28,0,0,0,.14-.77,1.12,1.12,0,0,0-.43-.93A2.33,2.33,0,0,0,71.22,12h-1.6L69,15.38m3.25-11H69.35a2,2,0,0,0-1.16.36A1.81,1.81,0,0,0,67.46,6L65.4,16.27a1.54,1.54,0,0,0,.33,1.45,1.67,1.67,0,0,0,1.28.5h3.28a9.2,9.2,0,0,0,2-.2,6.4,6.4,0,0,0,1.58-.58,5.18,5.18,0,0,0,1.23-.89,4.61,4.61,0,0,0,.83-1.07,4.25,4.25,0,0,0,.48-1.17,4.66,4.66,0,0,0,.15-1.15,3.82,3.82,0,0,0-.19-1.2,3.15,3.15,0,0,0-.56-1l-.13-.14a4.69,4.69,0,0,0,.46-.54,4,4,0,0,0,.59-1.17,4.39,4.39,0,0,0,.19-1.32,3.24,3.24,0,0,0-.35-1.54,2.92,2.92,0,0,0-1-1.13A4.72,4.72,0,0,0,74,4.54a9.2,9.2,0,0,0-1.84-.16Zm-.79,3.8h.5a2.2,2.2,0,0,1,.45,0l.09,0a1.72,1.72,0,0,1-.07.37,1,1,0,0,1-.18.32,1.09,1.09,0,0,1-.31.23,1.38,1.38,0,0,1-.56.09H71.2l.21-1.08Zm-1,4.83h.78a1.46,1.46,0,0,1,.77.13s.05,0,.05.14a1.35,1.35,0,0,1-.08.43.69.69,0,0,1-.2.31,1.1,1.1,0,0,1-.4.25,1.73,1.73,0,0,1-.71.11h-.48L70.44,13Z"/><path class="cls-2" d="M88,17.78l-.59,0a1.78,1.78,0,0,1-.46-.07.77.77,0,0,1-.44-.32,1,1,0,0,1-.13-.43L86.07,15H82.36l-1.09,2.06a1.21,1.21,0,0,1-.22.32.93.93,0,0,1-.46.27,2.23,2.23,0,0,1-.52.09l-.69,0a6.57,6.57,0,0,1-.72,0,.92.92,0,0,1-.65-.34.78.78,0,0,1-.09-.74,2.82,2.82,0,0,1,.27-.6L83.94,5.56a2.24,2.24,0,0,1,.25-.36,1.13,1.13,0,0,1,.49-.28,2.17,2.17,0,0,1,.57-.08l.78,0,.88,0a2.44,2.44,0,0,1,.61.08.83.83,0,0,1,.53.39,1.32,1.32,0,0,1,.13.46l1.54,10.48a4,4,0,0,1,0,.61.85.85,0,0,1-.32.67,1.17,1.17,0,0,1-.68.22C88.57,17.77,88.3,17.78,88,17.78Zm-2.21-5.61-.4-2.93L83.8,12.17Z"/><path class="cls-5" d="M86,5.32h.86a2.47,2.47,0,0,1,.49.07.36.36,0,0,1,.23.15.88.88,0,0,1,.07.27l1.55,10.51a3.76,3.76,0,0,1,0,.52.4.4,0,0,1-.13.29.78.78,0,0,1-.41.11q-.28,0-.78,0l-.56,0a1.29,1.29,0,0,1-.34-.05.27.27,0,0,1-.17-.11.37.37,0,0,1,0-.2l-.32-2.38H82.06l-1.23,2.33a1.1,1.1,0,0,1-.14.21.55.55,0,0,1-.24.13,1.46,1.46,0,0,1-.42.07l-.65,0a5.62,5.62,0,0,1-.66,0,.45.45,0,0,1-.31-.13.33.33,0,0,1,0-.3,2.72,2.72,0,0,1,.24-.51L84.38,5.8a1.08,1.08,0,0,1,.18-.25.51.51,0,0,1,.26-.15,2.24,2.24,0,0,1,.46-.07H86M83,12.67h3.34l-.68-5h0l-2.65,5M86,4.32l-.8,0a2.67,2.67,0,0,0-.7.1,1.55,1.55,0,0,0-.69.41,3,3,0,0,0-.33.44L77.75,15.83a3.83,3.83,0,0,0-.31.69,1.28,1.28,0,0,0,.17,1.19,1.35,1.35,0,0,0,1,.53,5.23,5.23,0,0,0,.77,0l.72,0a2.65,2.65,0,0,0,.63-.11,1.4,1.4,0,0,0,.68-.4,2.14,2.14,0,0,0,.32-.45l.93-1.78h3l.2,1.49a1.57,1.57,0,0,0,.21.63,1.23,1.23,0,0,0,.71.53,2.28,2.28,0,0,0,.58.09l.62,0c.37,0,.65,0,.86,0a1.65,1.65,0,0,0,.94-.33,1.33,1.33,0,0,0,.52-1.05,4.83,4.83,0,0,0,0-.69L88.67,5.68a1.56,1.56,0,0,0-.19-.61,1.31,1.31,0,0,0-.82-.63,2.92,2.92,0,0,0-.73-.1l-.9,0Zm-1.4,7.35.42-.81.11.81Z"/><path class="cls-2" d="M94.25,17.72a1.44,1.44,0,0,1-.43-.06,1,1,0,0,1-.44-.3,1.06,1.06,0,0,1-.2-.46,1.36,1.36,0,0,1,0-.53L95.35,5.6a.72.72,0,0,1,.22-.42A1.06,1.06,0,0,1,96,4.93a3.66,3.66,0,0,1,.48-.08,5.6,5.6,0,0,1,.64,0,5.53,5.53,0,0,1,.63,0,2.31,2.31,0,0,1,.47.09.78.78,0,0,1,.44.35.77.77,0,0,1,.08.5l-1.79,9h3.13a.67.67,0,0,1,.62.38,1,1,0,0,1,.11.48c0,.05,0,.14,0,.25s0,.23-.05.37-.06.27-.09.41a2.41,2.41,0,0,1-.15.43,1.57,1.57,0,0,1-.24.4.8.8,0,0,1-.59.26Z"/><path class="cls-5" d="M97.12,5.32l.58,0a1.77,1.77,0,0,1,.35.07.26.26,0,0,1,.17.12.25.25,0,0,1,0,.17l-1.91,9.54h3.74a.19.19,0,0,1,.18.1.6.6,0,0,1,0,.26s0,.11,0,.21,0,.2,0,.32,0,.25-.09.38a2.89,2.89,0,0,1-.11.35,1.05,1.05,0,0,1-.16.26.3.3,0,0,1-.22.1H94.25a.77.77,0,0,1-.27,0,.43.43,0,0,1-.21-.14.54.54,0,0,1-.1-.23.84.84,0,0,1,0-.35L95.84,5.7a.25.25,0,0,1,.08-.17.51.51,0,0,1,.22-.12,2.78,2.78,0,0,1,.39-.07l.59,0m0-1a6.73,6.73,0,0,0-.69,0,3,3,0,0,0-.58.11,1.55,1.55,0,0,0-.64.36,1.38,1.38,0,0,0-.36.71L92.7,16.27a1.8,1.8,0,0,0,0,.73,1.48,1.48,0,0,0,1,1.13,1.87,1.87,0,0,0,.59.09h5.42a1.29,1.29,0,0,0,1-.42,1.82,1.82,0,0,0,.34-.55,2.68,2.68,0,0,0,.17-.48c0-.17.08-.32.1-.46a3.55,3.55,0,0,0,.06-.4c0-.15,0-.25,0-.31a1.66,1.66,0,0,0-.16-.72,1.17,1.17,0,0,0-1.07-.64H97.56l1.67-8.35a1.23,1.23,0,0,0-.84-1.42,2.27,2.27,0,0,0-.59-.12,6.52,6.52,0,0,0-.68,0Z"/><path class="cls-2" d="M105.46,17.78a5.29,5.29,0,0,1-.63,0,2.18,2.18,0,0,1-.47-.09.89.89,0,0,1-.43-.32.7.7,0,0,1-.07-.58L106.09,5.6a.71.71,0,0,1,.23-.43,1.05,1.05,0,0,1,.43-.24,3.66,3.66,0,0,1,.48-.08,5.53,5.53,0,0,1,.63,0,5.22,5.22,0,0,1,.62,0,2.31,2.31,0,0,1,.47.09.73.73,0,0,1,.53.85L107.24,17a.84.84,0,0,1-.23.42.9.9,0,0,1-.43.24,2.29,2.29,0,0,1-.48.09A5.85,5.85,0,0,1,105.46,17.78Z"/><path class="cls-5" d="M107.86,5.32l.57,0a2.08,2.08,0,0,1,.36.07.26.26,0,0,1,.17.12.25.25,0,0,1,0,.17l-2.24,11.2a.32.32,0,0,1-.09.17.51.51,0,0,1-.22.12,1.78,1.78,0,0,1-.39.06,4.91,4.91,0,0,1-.59,0,4.51,4.51,0,0,1-.58,0,1.31,1.31,0,0,1-.35-.06.36.36,0,0,1-.18-.12.2.2,0,0,1,0-.17l2.24-11.2a.22.22,0,0,1,.09-.17.51.51,0,0,1,.22-.12,2.78,2.78,0,0,1,.39-.07l.58,0m0-1a6.39,6.39,0,0,0-.68,0,3,3,0,0,0-.58.11,1.55,1.55,0,0,0-.62.34,1.31,1.31,0,0,0-.39.73l-2.23,11.14a1.18,1.18,0,0,0,.14.92,1.33,1.33,0,0,0,.69.54,2.65,2.65,0,0,0,.59.12,7.72,7.72,0,0,0,1.36,0,2.7,2.7,0,0,0,.59-.11,1.5,1.5,0,0,0,.64-.37,1.22,1.22,0,0,0,.36-.68L110,5.89a1.27,1.27,0,0,0-.13-.84,1.29,1.29,0,0,0-.73-.58,2.19,2.19,0,0,0-.58-.12,6.19,6.19,0,0,0-.67,0Z"/><path class="cls-2" d="M122.85,17.78l-.83,0a2.15,2.15,0,0,1-.61-.11.86.86,0,0,1-.51-.41,1.18,1.18,0,0,1-.14-.53l-.31-5.52L118,16.83a2,2,0,0,1-.27.46,1.1,1.1,0,0,1-.5.36,2.3,2.3,0,0,1-.61.11l-.81,0-.91,0a2.56,2.56,0,0,1-.65-.11.87.87,0,0,1-.52-.47,1.36,1.36,0,0,1-.11-.56L113,6.21a4.66,4.66,0,0,1,0-.56.84.84,0,0,1,.37-.61,1.22,1.22,0,0,1,.61-.19,7.29,7.29,0,0,1,.76,0,6.19,6.19,0,0,1,.67,0A1.54,1.54,0,0,1,116,5a.73.73,0,0,1,.41.46,1.22,1.22,0,0,1,.06.41l.18,6.85,3.12-7a1.4,1.4,0,0,1,.23-.4A1.07,1.07,0,0,1,120.4,5a2,2,0,0,1,.55-.11l.71,0,.7,0a1.8,1.8,0,0,1,.55.12.81.81,0,0,1,.43.47,1.53,1.53,0,0,1,.07.42l.35,6.89,3.06-7.18A1.21,1.21,0,0,1,127,5.2a1,1,0,0,1,.46-.27,2.13,2.13,0,0,1,.51-.09l.7,0a4.25,4.25,0,0,1,.69,0,1,1,0,0,1,.62.31.81.81,0,0,1,.12.75,4.85,4.85,0,0,1-.21.58l-4.81,10.34a1.66,1.66,0,0,1-.29.48,1.23,1.23,0,0,1-.54.33,2.56,2.56,0,0,1-.63.11Z"/><path class="cls-5" d="M128.7,5.32a5,5,0,0,1,.62,0,.42.42,0,0,1,.3.14.28.28,0,0,1,0,.29,4.4,4.4,0,0,1-.19.52l-4.8,10.33a1.3,1.3,0,0,1-.21.35.8.8,0,0,1-.32.2,2.1,2.1,0,0,1-.51.08l-.77,0-.8,0a1.69,1.69,0,0,1-.48-.08.39.39,0,0,1-.23-.18.67.67,0,0,1-.08-.31l-.43-7.59h0l-3.29,7.53a1.62,1.62,0,0,1-.2.35.65.65,0,0,1-.28.2,1.68,1.68,0,0,1-.47.08l-.78,0-.88,0a1.94,1.94,0,0,1-.51-.08.41.41,0,0,1-.24-.2,1,1,0,0,1-.06-.38l-.65-10.42a3.18,3.18,0,0,1,0-.47.34.34,0,0,1,.15-.26,1,1,0,0,1,.38-.11l.71,0,.63,0a1.24,1.24,0,0,1,.38.09.31.31,0,0,1,.16.16.88.88,0,0,1,0,.26l.24,9h0l4-9a.94.94,0,0,1,.16-.28.48.48,0,0,1,.24-.16,1.34,1.34,0,0,1,.4-.08l.68,0,.67,0a1,1,0,0,1,.37.08.29.29,0,0,1,.17.17,1.06,1.06,0,0,1,0,.29l.46,9h0l3.89-9.14a.61.61,0,0,1,.12-.21.48.48,0,0,1,.23-.14,1.89,1.89,0,0,1,.41-.06l.66,0m0-1-.73,0a2.65,2.65,0,0,0-.63.11,1.43,1.43,0,0,0-.68.42,1.55,1.55,0,0,0-.31.51l-2.2,5.17-.24-4.72a2.19,2.19,0,0,0-.09-.56,1.34,1.34,0,0,0-.7-.76,2.06,2.06,0,0,0-.72-.17l-.74,0-.75,0a2.63,2.63,0,0,0-.69.14,1.59,1.59,0,0,0-.66.47,2.31,2.31,0,0,0-.31.52l-2.21,5-.12-4.64a2,2,0,0,0-.08-.55,1.27,1.27,0,0,0-.67-.75,1.91,1.91,0,0,0-.73-.18q-.3,0-.72,0c-.34,0-.6,0-.8,0a1.72,1.72,0,0,0-.85.28,1.32,1.32,0,0,0-.58,1,3.71,3.71,0,0,0,0,.62l.65,10.45a2,2,0,0,0,.15.71,1.38,1.38,0,0,0,.82.75,3,3,0,0,0,.78.14l.94,0,.84,0a2.62,2.62,0,0,0,.76-.15,1.54,1.54,0,0,0,.72-.51,2.69,2.69,0,0,0,.33-.59l1.62-3.7.2,3.44a1.58,1.58,0,0,0,.19.73,1.35,1.35,0,0,0,.77.64,2.64,2.64,0,0,0,.76.14l.86,0,.83,0a3.24,3.24,0,0,0,.76-.13,1.7,1.7,0,0,0,.76-.49,2,2,0,0,0,.38-.63l4.78-10.29a5.45,5.45,0,0,0,.25-.66,1.31,1.31,0,0,0-.21-1.21,1.48,1.48,0,0,0-.94-.49,7.42,7.42,0,0,0-.76,0Z"/><path class="cls-2" d="M139.62,17.78l-.6,0a1.77,1.77,0,0,1-.45-.07.77.77,0,0,1-.44-.32.84.84,0,0,1-.13-.43L137.74,15H134l-1.09,2.06a1.51,1.51,0,0,1-.22.32.92.92,0,0,1-.47.27,2.23,2.23,0,0,1-.52.09l-.69,0a6.49,6.49,0,0,1-.71,0,.92.92,0,0,1-.66-.34.81.81,0,0,1-.09-.74,4.44,4.44,0,0,1,.27-.6L135.6,5.56a2.24,2.24,0,0,1,.26-.36,1.13,1.13,0,0,1,.49-.28,2,2,0,0,1,.57-.08l.78,0,.87,0a2.31,2.31,0,0,1,.61.08.83.83,0,0,1,.53.39,1.14,1.14,0,0,1,.13.46l1.55,10.48a3.74,3.74,0,0,1,0,.61.82.82,0,0,1-.32.67,1.16,1.16,0,0,1-.67.22C140.24,17.77,140,17.78,139.62,17.78Zm-2.22-5.61L137,9.24l-1.54,2.93Z"/><path class="cls-5" d="M137.7,5.32h.85a2.36,2.36,0,0,1,.49.07.31.31,0,0,1,.23.15.86.86,0,0,1,.08.27l1.54,10.51a2.66,2.66,0,0,1,0,.52.36.36,0,0,1-.12.29.81.81,0,0,1-.41.11q-.28,0-.78,0l-.57,0a1.37,1.37,0,0,1-.34-.05.27.27,0,0,1-.16-.11.47.47,0,0,1-.06-.2l-.32-2.38h-4.45l-1.22,2.33a.8.8,0,0,1-.15.21.46.46,0,0,1-.24.13,1.38,1.38,0,0,1-.41.07l-.66,0a5.32,5.32,0,0,1-.65,0,.43.43,0,0,1-.31-.13.33.33,0,0,1,0-.3,3.32,3.32,0,0,1,.23-.51L136,5.8a1.08,1.08,0,0,1,.18-.25.55.55,0,0,1,.27-.15,2.13,2.13,0,0,1,.45-.07h.76m-3.06,7.35H138l-.67-5h0l-2.65,5m3.06-8.35-.8,0a2.67,2.67,0,0,0-.7.1,1.59,1.59,0,0,0-.7.41,2.92,2.92,0,0,0-.32.44l-5.77,10.54a6.08,6.08,0,0,0-.31.69,1.3,1.3,0,0,0,.17,1.19,1.37,1.37,0,0,0,1,.53,5.32,5.32,0,0,0,.77,0l.73,0a2.56,2.56,0,0,0,.62-.11,1.49,1.49,0,0,0,.69-.4,1.8,1.8,0,0,0,.31-.45l.94-1.78h3l.2,1.49a1.31,1.31,0,0,0,.21.63,1.23,1.23,0,0,0,.71.53,2.27,2.27,0,0,0,.57.09l.63,0c.36,0,.64,0,.86,0a1.68,1.68,0,0,0,.94-.33,1.32,1.32,0,0,0,.51-1.05,3.7,3.7,0,0,0-.05-.69l-1.54-10.5a1.74,1.74,0,0,0-.19-.61,1.31,1.31,0,0,0-.83-.63,2.77,2.77,0,0,0-.72-.1l-.9,0Zm-1.4,7.35.42-.81.11.81Z"/><path class="cls-2" d="M150.39,17.92a8.3,8.3,0,0,1-2.39-.31,4.93,4.93,0,0,1-1.81-1A4.39,4.39,0,0,1,145.06,15a5.66,5.66,0,0,1-.37-2.13,8.83,8.83,0,0,1,.23-2.05,8.6,8.6,0,0,1,.68-1.92,8.26,8.26,0,0,1,1.12-1.69,7.22,7.22,0,0,1,1.56-1.35,7.58,7.58,0,0,1,2-.89,8.42,8.42,0,0,1,2.36-.32,7.21,7.21,0,0,1,1.35.12,7.51,7.51,0,0,1,1.13.27,5.33,5.33,0,0,1,.88.36,3.29,3.29,0,0,1,.53.34,1,1,0,0,1,.28.44,1.51,1.51,0,0,1,.06.44c0,.07,0,.17,0,.28s0,.24-.05.37a2.49,2.49,0,0,1-.09.37,2.23,2.23,0,0,1-.13.39,1.52,1.52,0,0,1-.23.35.69.69,0,0,1-.53.25,1.22,1.22,0,0,1-.65-.23,4.56,4.56,0,0,0-.6-.32,5,5,0,0,0-.87-.32,4.68,4.68,0,0,0-1.21-.14,3.93,3.93,0,0,0-1.27.2,3.89,3.89,0,0,0-1,.55,4,4,0,0,0-.84.81,5.24,5.24,0,0,0-.63,1,5.09,5.09,0,0,0-.38,1.14,5.4,5.4,0,0,0-.13,1.18,3,3,0,0,0,.17,1.06,1.84,1.84,0,0,0,.45.7,2,2,0,0,0,.74.43,3.13,3.13,0,0,0,1.05.16,4.23,4.23,0,0,0,.79-.08,4.34,4.34,0,0,0,.48-.14l.37-1.88H150.6a.7.7,0,0,1-.58-.3.9.9,0,0,1-.16-.57c0-.08,0-.18,0-.3l.06-.34c0-.12.05-.24.08-.36a2.09,2.09,0,0,1,.16-.4,1.4,1.4,0,0,1,.24-.33A.78.78,0,0,1,151,10h4a1,1,0,0,1,.85.44,1.2,1.2,0,0,1,.12.93l-1,4.74a1.52,1.52,0,0,1-.13.41,1.16,1.16,0,0,1-.23.36,1.93,1.93,0,0,1-.64.38,9.49,9.49,0,0,1-.95.32,11.68,11.68,0,0,1-1.24.26A9.14,9.14,0,0,1,150.39,17.92Z"/><path class="cls-5" d="M152.62,5.17a7.32,7.32,0,0,1,1.27.11,8.23,8.23,0,0,1,1.06.26,4.76,4.76,0,0,1,.79.32,2.81,2.81,0,0,1,.43.27.48.48,0,0,1,.14.22.81.81,0,0,1,0,.29c0,.06,0,.14,0,.24s0,.2,0,.31a3.38,3.38,0,0,1-.08.34,1.85,1.85,0,0,1-.11.31.76.76,0,0,1-.14.22.22.22,0,0,1-.16.09.81.81,0,0,1-.39-.16,5.1,5.1,0,0,0-.64-.34,5,5,0,0,0-1-.35,4.87,4.87,0,0,0-1.34-.16,4.33,4.33,0,0,0-1.43.23,4.46,4.46,0,0,0-1.19.61,4.82,4.82,0,0,0-.94.92,5.89,5.89,0,0,0-.69,1.13,6.1,6.1,0,0,0-.41,1.25,6.27,6.27,0,0,0-.14,1.28,3.62,3.62,0,0,0,.2,1.24,2.5,2.5,0,0,0,.58.89,2.8,2.8,0,0,0,.92.54,3.84,3.84,0,0,0,1.21.18,4.41,4.41,0,0,0,.89-.09,3.1,3.1,0,0,0,.81-.28l.55-2.73H150.6a.2.2,0,0,1-.17-.09.43.43,0,0,1-.07-.28c0-.06,0-.14,0-.24s0-.2.05-.3,0-.22.08-.33a1.6,1.6,0,0,1,.11-.29,1,1,0,0,1,.15-.21.26.26,0,0,1,.19-.09h4a.47.47,0,0,1,.43.21.77.77,0,0,1,.05.56L154.49,16a1.66,1.66,0,0,1-.09.29.91.91,0,0,1-.15.23,1.5,1.5,0,0,1-.47.26,8.32,8.32,0,0,1-.89.3,10.45,10.45,0,0,1-1.17.24,8.42,8.42,0,0,1-1.33.1,7.56,7.56,0,0,1-2.24-.29,4.31,4.31,0,0,1-1.63-.87,3.68,3.68,0,0,1-1-1.43,5.09,5.09,0,0,1-.34-1.94A9,9,0,0,1,145.4,11,8.64,8.64,0,0,1,146,9.14a7.66,7.66,0,0,1,1.06-1.58,6.26,6.26,0,0,1,1.45-1.26,7.24,7.24,0,0,1,1.85-.83,7.79,7.79,0,0,1,2.22-.3m0-1a9,9,0,0,0-2.5.34,8.44,8.44,0,0,0-2.11,1,7.48,7.48,0,0,0-1.67,1.45,8.32,8.32,0,0,0-1.19,1.79,8.91,8.91,0,0,0-.72,2,9.73,9.73,0,0,0-.24,2.16,6.27,6.27,0,0,0,.41,2.32A4.74,4.74,0,0,0,145.86,17a5.16,5.16,0,0,0,2,1.09,8.87,8.87,0,0,0,2.53.33,9,9,0,0,0,1.48-.11,10.42,10.42,0,0,0,1.29-.27,9.12,9.12,0,0,0,1-.34,2.18,2.18,0,0,0,.82-.51,1.71,1.71,0,0,0,.32-.5,1.88,1.88,0,0,0,.16-.49l.95-4.75a1.72,1.72,0,0,0-.19-1.3A1.47,1.47,0,0,0,155,9.48h-4a1.27,1.27,0,0,0-.9.38,1.85,1.85,0,0,0-.32.44,2.48,2.48,0,0,0-.2.5c0,.14-.07.27-.09.41a2.38,2.38,0,0,0-.06.37,2.73,2.73,0,0,0,0,.36,1.43,1.43,0,0,0,.26.87,1.19,1.19,0,0,0,1,.5h1l-.2,1-.14,0a3.23,3.23,0,0,1-.69.07,2.73,2.73,0,0,1-.89-.13,1.56,1.56,0,0,1-.55-.32,1.38,1.38,0,0,1-.34-.52,2.77,2.77,0,0,1-.13-.88,4.94,4.94,0,0,1,.12-1.07,4.69,4.69,0,0,1,.34-1,5.23,5.23,0,0,1,.57-.94,3.37,3.37,0,0,1,.74-.72,3.56,3.56,0,0,1,.93-.48,3.39,3.39,0,0,1,1.1-.17,4.18,4.18,0,0,1,1.08.12,4.42,4.42,0,0,1,.79.29,5.91,5.91,0,0,1,.54.29,1.74,1.74,0,0,0,.92.31,1.22,1.22,0,0,0,.9-.41,2.09,2.09,0,0,0,.31-.48,3.75,3.75,0,0,0,.17-.47l.09-.41a3.24,3.24,0,0,0,.06-.4c0-.15,0-.26,0-.34a2.21,2.21,0,0,0-.08-.59,1.49,1.49,0,0,0-.43-.66,3.44,3.44,0,0,0-.62-.41,5.44,5.44,0,0,0-1-.4,8.85,8.85,0,0,0-1.2-.28,8.29,8.29,0,0,0-1.44-.13Z"/><path class="cls-2" d="M101.14,38.8a7.6,7.6,0,0,1-.9,0,3.3,3.3,0,0,1-.62-.13,1,1,0,0,1-.51-.39.83.83,0,0,1-.09-.6l3-13.21H98.3a.74.74,0,0,1-.57-.24.9.9,0,0,1-.23-.5,2.18,2.18,0,0,1,0-.58,7,7,0,0,1,.12-.71c.07-.29.13-.53.2-.73a2.75,2.75,0,0,1,.25-.54,1.23,1.23,0,0,1,.35-.39.92.92,0,0,1,.53-.16H111a.84.84,0,0,1,.53.19,1,1,0,0,1,.28.53,2.23,2.23,0,0,1,0,.58,5.28,5.28,0,0,1-.13.74,5.91,5.91,0,0,1-.19.71,3.06,3.06,0,0,1-.25.54,1.14,1.14,0,0,1-.36.39.92.92,0,0,1-.52.17h-3.89l-3,13.42a.89.89,0,0,1-.29.49,1.14,1.14,0,0,1-.52.29,2.84,2.84,0,0,1-.65.13A7.71,7.71,0,0,1,101.14,38.8Z"/><path class="cls-5" d="M111,21.08a.27.27,0,0,1,.2.07.39.39,0,0,1,.11.24,1.6,1.6,0,0,1,0,.44c0,.19-.06.41-.11.68s-.12.47-.18.66a2.52,2.52,0,0,1-.2.43.92.92,0,0,1-.22.25.46.46,0,0,1-.24.08h-4.29L103,37.75a.51.51,0,0,1-.14.23,1,1,0,0,1-.32.18,3.17,3.17,0,0,1-.56.1,7,7,0,0,1-.85,0,6.54,6.54,0,0,1-.84,0,2.28,2.28,0,0,1-.51-.1.51.51,0,0,1-.25-.18.31.31,0,0,1,0-.23l3.08-13.82H98.3a.29.29,0,0,1-.21-.08.52.52,0,0,1-.1-.25,1.53,1.53,0,0,1,0-.43,3.92,3.92,0,0,1,.11-.66c.06-.27.12-.49.18-.68a2.67,2.67,0,0,1,.2-.44.86.86,0,0,1,.21-.24.45.45,0,0,1,.25-.07H111m0-1H98.94a1.42,1.42,0,0,0-.8.24,1.77,1.77,0,0,0-.51.54,2.81,2.81,0,0,0-.29.65,6.4,6.4,0,0,0-.22.78,7.88,7.88,0,0,0-.13.78,2.68,2.68,0,0,0,0,.7,1.54,1.54,0,0,0,.36.76,1.29,1.29,0,0,0,.94.4h3l-2.82,12.6a1.36,1.36,0,0,0,.15,1,1.52,1.52,0,0,0,.77.6,3.5,3.5,0,0,0,.73.16,8.62,8.62,0,0,0,1,0,8.85,8.85,0,0,0,1,0,5.2,5.2,0,0,0,.75-.15,1.83,1.83,0,0,0,.71-.4A1.45,1.45,0,0,0,104,38l2.91-13h3.49a1.48,1.48,0,0,0,.8-.25,1.93,1.93,0,0,0,.51-.55,3,3,0,0,0,.29-.64,5.45,5.45,0,0,0,.21-.76c.07-.31.11-.56.14-.79a2.82,2.82,0,0,0,0-.72,1.4,1.4,0,0,0-.44-.82,1.29,1.29,0,0,0-.86-.32Z"/><path class="cls-2" d="M123.9,38.8l-.92,0a2.43,2.43,0,0,1-.66-.14.91.91,0,0,1-.49-.43,1.43,1.43,0,0,1-.12-.43L121,34c-.09-.4-.18-.77-.28-1.1a2.21,2.21,0,0,0-.32-.69,1.16,1.16,0,0,0-.44-.35,1.93,1.93,0,0,0-.74-.13h-.68l-1.37,6.14a.93.93,0,0,1-.28.49,1.2,1.2,0,0,1-.52.29,3,3,0,0,1-.65.13,7.67,7.67,0,0,1-.91,0,7.31,7.31,0,0,1-.89,0,3.26,3.26,0,0,1-.63-.13.93.93,0,0,1-.51-.41.83.83,0,0,1-.07-.58l3.47-15.57A1.75,1.75,0,0,1,118,20.58h4.44c.46,0,.84,0,1.13,0s.57,0,.81.06a6.71,6.71,0,0,1,1.91.55,3.72,3.72,0,0,1,1.37,1.08,3.46,3.46,0,0,1,.68,1.59,5.35,5.35,0,0,1-.11,2,6.47,6.47,0,0,1-.61,1.7,6,6,0,0,1-1,1.38A6.82,6.82,0,0,1,125.23,30a7,7,0,0,1-.78.38,2.94,2.94,0,0,1,.51.69,5.33,5.33,0,0,1,.42,1,9.7,9.7,0,0,1,.28,1.15l.69,3.37a7.06,7.06,0,0,1,.11.8,1.62,1.62,0,0,1,0,.51,1.17,1.17,0,0,1-.2.44,1,1,0,0,1-.54.34,3.33,3.33,0,0,1-.71.12Zm-3.36-10.7a4.35,4.35,0,0,0,1.19-.15,3.2,3.2,0,0,0,.89-.43,2.6,2.6,0,0,0,.6-.64,2.66,2.66,0,0,0,.34-.85,1.81,1.81,0,0,0,0-1.12,1.07,1.07,0,0,0-.76-.54,2.66,2.66,0,0,0-.5-.09,6.39,6.39,0,0,0-.86,0h-1.17l-.86,3.86Z"/><path class="cls-5" d="M122.43,21.08l1.1,0,.78.07a6.45,6.45,0,0,1,1.75.5,3.25,3.25,0,0,1,1.2.94,3,3,0,0,1,.58,1.36,5,5,0,0,1-.1,1.81,6.21,6.21,0,0,1-.57,1.57,5.33,5.33,0,0,1-.93,1.27,5.52,5.52,0,0,1-1.26,1,7.14,7.14,0,0,1-1.57.67,2.79,2.79,0,0,1,.63.45,2.71,2.71,0,0,1,.49.64,5.29,5.29,0,0,1,.37.86,8.68,8.68,0,0,1,.27,1.09l.69,3.38a7.06,7.06,0,0,1,.1.74,1.35,1.35,0,0,1,0,.36.64.64,0,0,1-.11.25.55.55,0,0,1-.29.16,2.46,2.46,0,0,1-.6.1l-1,0-.88,0a2.28,2.28,0,0,1-.51-.1.45.45,0,0,1-.23-.19.88.88,0,0,1-.07-.27l-.68-3.83c-.09-.43-.19-.82-.29-1.15a2.53,2.53,0,0,0-.4-.84,1.49,1.49,0,0,0-.63-.51,2.24,2.24,0,0,0-.95-.18h-1.08l-1.46,6.54a.51.51,0,0,1-.14.23.87.87,0,0,1-.32.18,3,3,0,0,1-.56.1,6.71,6.71,0,0,1-.85,0,6.28,6.28,0,0,1-.83,0,2.39,2.39,0,0,1-.52-.1.47.47,0,0,1-.24-.18.3.3,0,0,1,0-.23l3.47-15.57a1.38,1.38,0,0,1,.48-.84,1.3,1.3,0,0,1,.8-.26h4.44m-3.67,7.52h1.77a4.57,4.57,0,0,0,1.34-.18,3,3,0,0,0,1-.5,2.67,2.67,0,0,0,.73-.77,3.11,3.11,0,0,0,.41-1,2.26,2.26,0,0,0-.06-1.43,1.55,1.55,0,0,0-1.08-.82,3.76,3.76,0,0,0-.58-.11,7.33,7.33,0,0,0-.92,0h-1.57l-1.08,4.86m3.67-8.52H118a2.28,2.28,0,0,0-1.38.45,2.32,2.32,0,0,0-.88,1.43l-3.47,15.57a1.33,1.33,0,0,0,.12.92,1.35,1.35,0,0,0,.78.65,3.77,3.77,0,0,0,.74.16,8.42,8.42,0,0,0,.95,0,8.93,8.93,0,0,0,1,0,4.78,4.78,0,0,0,.74-.15,1.83,1.83,0,0,0,.71-.4,1.54,1.54,0,0,0,.43-.75L119,32.21h.28a1.32,1.32,0,0,1,.54.09.55.55,0,0,1,.24.19,2,2,0,0,1,.25.54c.09.3.18.65.26,1.06l.67,3.78a1.6,1.6,0,0,0,.17.56,1.36,1.36,0,0,0,.75.67,2.59,2.59,0,0,0,.79.17c.25,0,.58,0,1,0s.83,0,1.11,0a3.29,3.29,0,0,0,.84-.13,1.51,1.51,0,0,0,.79-.52,1.81,1.81,0,0,0,.29-.63,2.21,2.21,0,0,0,0-.65c0-.19,0-.47-.11-.84l-.7-3.41a9.56,9.56,0,0,0-.3-1.2,5.82,5.82,0,0,0-.45-1l-.16-.27.24-.13A6.84,6.84,0,0,0,127,29.32a6.24,6.24,0,0,0,1.1-1.5,7,7,0,0,0,.66-1.82,5.72,5.72,0,0,0,.11-2.19,4,4,0,0,0-.77-1.82,4.36,4.36,0,0,0-1.56-1.22,7,7,0,0,0-2-.59l-.86-.07q-.5,0-1.17,0Zm-1.78,4.66h.76a7.64,7.64,0,0,1,.8,0,3.4,3.4,0,0,1,.45.08c.11,0,.35.13.41.26a1.44,1.44,0,0,1,0,.81,2.13,2.13,0,0,1-.28.69,1.93,1.93,0,0,1-.48.51,2.75,2.75,0,0,1-.73.35,3.8,3.8,0,0,1-1.06.13H120l.64-2.86Z"/><path class="cls-2" d="M144.38,38.8l-1.07,0a2.67,2.67,0,0,1-.69-.1.8.8,0,0,1-.53-.42,1.19,1.19,0,0,1-.13-.46l-.33-3h-5.7l-1.69,3.1a2,2,0,0,1-.27.4,1.38,1.38,0,0,1-.53.34,2.87,2.87,0,0,1-.69.12c-.25,0-.57,0-1,0a8.61,8.61,0,0,1-1,0,1.06,1.06,0,0,1-.8-.42.94.94,0,0,1,0-.87,5.14,5.14,0,0,1,.39-.82L139,21.44a2.61,2.61,0,0,1,.35-.47,1.35,1.35,0,0,1,.6-.34,3.17,3.17,0,0,1,.78-.11l1.11,0,1.27,0a3.24,3.24,0,0,1,.82.11,1,1,0,0,1,.62.46,1.59,1.59,0,0,1,.16.59l1.91,15.18a4.44,4.44,0,0,1,0,.86,1,1,0,0,1-.39.77,1.59,1.59,0,0,1-.82.28C145.19,38.79,144.83,38.8,144.38,38.8Zm-3.07-7.66L140.74,26l-2.89,5.19Z"/><path class="cls-5" d="M141.85,21l1.25,0a2.84,2.84,0,0,1,.7.09.5.5,0,0,1,.32.22,1,1,0,0,1,.1.4l1.91,15.19a3.47,3.47,0,0,1,0,.76.55.55,0,0,1-.2.42,1,1,0,0,1-.55.17c-.25,0-.6,0-1,0l-1,0a2.24,2.24,0,0,1-.56-.08.41.41,0,0,1-.24-.16,1,1,0,0,1-.07-.28l-.38-3.45h-6.44l-1.84,3.36a1.84,1.84,0,0,1-.2.31.88.88,0,0,1-.33.2,2.86,2.86,0,0,1-.56.1l-.93,0a7.59,7.59,0,0,1-.94,0,.57.57,0,0,1-.44-.19.49.49,0,0,1,0-.43,4,4,0,0,1,.36-.74l8.68-15.21a1.54,1.54,0,0,1,.27-.37.86.86,0,0,1,.38-.21,2.76,2.76,0,0,1,.66-.09l1.09,0M137,31.64h4.87l-.8-7.29h0L137,31.64M141.85,20l-1.13,0a4.11,4.11,0,0,0-.9.13,1.86,1.86,0,0,0-.82.48,2.56,2.56,0,0,0-.42.56L129.9,36.4a5.33,5.33,0,0,0-.43.9,1.41,1.41,0,0,0,.1,1.32,1.48,1.48,0,0,0,1.15.64,9.93,9.93,0,0,0,1.06,0c.4,0,.73,0,1,0a2.86,2.86,0,0,0,.82-.15,1.71,1.71,0,0,0,.74-.47,2.32,2.32,0,0,0,.35-.53l1.54-2.81h5l.29,2.56a1.7,1.7,0,0,0,.18.63,1.27,1.27,0,0,0,.82.65,3,3,0,0,0,.81.13l1.1,0c.47,0,.83,0,1.11,0a2,2,0,0,0,1.09-.39,1.55,1.55,0,0,0,.58-1.12,5.38,5.38,0,0,0,0-.95L145.21,21.6a1.86,1.86,0,0,0-.21-.75,1.51,1.51,0,0,0-.91-.7,4.35,4.35,0,0,0-1-.13l-1.29,0ZM138.7,30.64l1.71-3.08.34,3.08Z"/><path class="cls-2" d="M152.67,38.72A1.25,1.25,0,0,1,151.39,37l3.33-14.94a1.92,1.92,0,0,1,.68-1.14,1.86,1.86,0,0,1,1.09-.35h4.31a11.12,11.12,0,0,1,2.73.28,4.56,4.56,0,0,1,1.86.9,3.14,3.14,0,0,1,1,1.62,4.7,4.7,0,0,1,0,2.17,5.68,5.68,0,0,1-.47,1.29,4.9,4.9,0,0,1-.76,1.1,5,5,0,0,1-1,.88l-.1.07.19.11a3.24,3.24,0,0,1,1,1,3.55,3.55,0,0,1,.52,1.42,4.65,4.65,0,0,1-.09,1.76A6.38,6.38,0,0,1,165,35a6.61,6.61,0,0,1-1.07,1.42,6.76,6.76,0,0,1-1.38,1.06,8.6,8.6,0,0,1-1.61.72,9.72,9.72,0,0,1-1.75.41,13.53,13.53,0,0,1-2,.13Zm5.49-3.66a4.42,4.42,0,0,0,1.12-.13,2.82,2.82,0,0,0,.82-.39,2.21,2.21,0,0,0,.61-.61,2.44,2.44,0,0,0,.35-.84,2,2,0,0,0,0-.86,1,1,0,0,0-.27-.53,1.63,1.63,0,0,0-.67-.37,4.81,4.81,0,0,0-1.36-.15h-1.67l-.86,3.88Zm1.09-7.42a3.16,3.16,0,0,0,1.07-.15,2.34,2.34,0,0,0,.71-.4,2.3,2.3,0,0,0,.49-.59,2.65,2.65,0,0,0,.29-.75,1.87,1.87,0,0,0,0-.73.75.75,0,0,0-.19-.42,1.14,1.14,0,0,0-.5-.29,3.84,3.84,0,0,0-1.1-.12h-1.37l-.77,3.45Z"/><path class="cls-5" d="M160.8,21.08a11.13,11.13,0,0,1,2.61.26,4.22,4.22,0,0,1,1.66.8,2.62,2.62,0,0,1,.84,1.36,4.12,4.12,0,0,1,0,1.94,4.81,4.81,0,0,1-.42,1.17,4.68,4.68,0,0,1-.69,1A4.68,4.68,0,0,1,162.71,29a3.75,3.75,0,0,1,1.24.46,2.89,2.89,0,0,1,.88.86,3,3,0,0,1,.45,1.22,4.34,4.34,0,0,1-.09,1.58,5.88,5.88,0,0,1-.62,1.66,6.49,6.49,0,0,1-1,1.31,6.4,6.4,0,0,1-1.28,1,8.93,8.93,0,0,1-1.51.68,11.28,11.28,0,0,1-1.67.39,14.07,14.07,0,0,1-1.91.12h-4.55A.85.85,0,0,1,152,38a.9.9,0,0,1-.11-.84l3.33-14.94a1.35,1.35,0,0,1,.49-.84,1.25,1.25,0,0,1,.79-.26h4.31m-3.5,7.06h1.95a3.61,3.61,0,0,0,1.24-.18A2.73,2.73,0,0,0,162,26.74a3.15,3.15,0,0,0,.34-.88,2.49,2.49,0,0,0,0-.93,1.32,1.32,0,0,0-.33-.68,1.7,1.7,0,0,0-.71-.42,4.53,4.53,0,0,0-1.25-.14h-1.77l-1,4.45m-1.66,7.42h2.52a4.63,4.63,0,0,0,1.26-.15,3.14,3.14,0,0,0,1-.45,2.88,2.88,0,0,0,1.17-1.76,2.62,2.62,0,0,0,0-1.07,1.48,1.48,0,0,0-.41-.78,1.93,1.93,0,0,0-.87-.49,5.1,5.1,0,0,0-1.51-.18h-2.07l-1.09,4.88m5.16-15.48h-4.31a2.28,2.28,0,0,0-1.38.45,2.31,2.31,0,0,0-.87,1.43L150.9,36.91a1.82,1.82,0,0,0,.35,1.73,1.87,1.87,0,0,0,1.42.58h4.55a14.43,14.43,0,0,0,2.05-.13,11.77,11.77,0,0,0,1.84-.43,10.37,10.37,0,0,0,1.7-.76,7.48,7.48,0,0,0,1.48-1.14,7,7,0,0,0,1.15-1.53,7.08,7.08,0,0,0,.73-1.93,5.23,5.23,0,0,0,.1-1.95,4.25,4.25,0,0,0-.6-1.62,3.73,3.73,0,0,0-.78-.86,5,5,0,0,0,.62-.59,5.68,5.68,0,0,0,.84-1.21,6.22,6.22,0,0,0,.5-1.41,5.18,5.18,0,0,0,0-2.41,3.57,3.57,0,0,0-1.16-1.87,5.3,5.3,0,0,0-2.06-1,12.23,12.23,0,0,0-2.86-.29Zm-1.71,4.61h1a3.1,3.1,0,0,1,.95.1.57.57,0,0,1,.28.15.26.26,0,0,1,.07.16,1.57,1.57,0,0,1,0,.55,1.86,1.86,0,0,1-.23.59,1.61,1.61,0,0,1-.39.47,1.83,1.83,0,0,1-.55.31,2.55,2.55,0,0,1-.9.12h-.7l.54-2.45Zm-1.56,7h1.27a4.24,4.24,0,0,1,1.22.13,1,1,0,0,1,.45.24.57.57,0,0,1,.14.28,1.66,1.66,0,0,1,0,.65,1.62,1.62,0,0,1-.28.67,1.79,1.79,0,0,1-.47.48,2.59,2.59,0,0,1-.67.32,4,4,0,0,1-1,.11h-1.27l.64-2.88Z"/><path class="cls-2" d="M182.55,38.8l-1.07,0a2.67,2.67,0,0,1-.69-.1.87.87,0,0,1-.53-.41,1.36,1.36,0,0,1-.13-.47l-.33-3h-5.69l-1.7,3.1a1.65,1.65,0,0,1-.27.4,1.38,1.38,0,0,1-.53.34,2.87,2.87,0,0,1-.69.12c-.25,0-.57,0-1,0a8.61,8.61,0,0,1-1,0,1.06,1.06,0,0,1-.8-.42.94.94,0,0,1,0-.87,4.76,4.76,0,0,1,.39-.82l8.68-15.21a2.61,2.61,0,0,1,.35-.47,1.35,1.35,0,0,1,.6-.34,3.17,3.17,0,0,1,.78-.11l1.11,0,1.27,0a3.24,3.24,0,0,1,.82.11,1,1,0,0,1,.62.46,1.42,1.42,0,0,1,.16.59l1.91,15.18a4.42,4.42,0,0,1,0,.86,1,1,0,0,1-.39.77,1.59,1.59,0,0,1-.82.28C183.36,38.79,183,38.8,182.55,38.8Zm-3.07-7.66L178.91,26,176,31.14Z"/><path class="cls-5" d="M180,21l1.25,0a2.84,2.84,0,0,1,.7.09.5.5,0,0,1,.32.22,1,1,0,0,1,.1.4l1.91,15.19a3.47,3.47,0,0,1,0,.76.55.55,0,0,1-.2.42,1,1,0,0,1-.55.17c-.25,0-.6,0-1,0l-1.05,0a2.24,2.24,0,0,1-.56-.08.41.41,0,0,1-.24-.16,1,1,0,0,1-.07-.28l-.38-3.45h-6.44L172,37.67a1.84,1.84,0,0,1-.2.31.88.88,0,0,1-.33.2,2.72,2.72,0,0,1-.56.1l-.93,0a7.69,7.69,0,0,1-.94,0,.57.57,0,0,1-.44-.19.49.49,0,0,1,0-.43,4,4,0,0,1,.36-.74l8.68-15.21a1.86,1.86,0,0,1,.27-.37.86.86,0,0,1,.38-.21,2.76,2.76,0,0,1,.66-.09L180,21m-4.85,10.64H180l-.8-7.29h0l-4.05,7.29M180,20l-1.13,0a4.11,4.11,0,0,0-.9.13,1.86,1.86,0,0,0-.82.48,2.56,2.56,0,0,0-.42.56L168.07,36.4a6.86,6.86,0,0,0-.43.89,1.43,1.43,0,0,0,.1,1.33,1.51,1.51,0,0,0,1.15.64,9.93,9.93,0,0,0,1.06,0c.4,0,.73,0,1,0a3,3,0,0,0,.83-.15,1.74,1.74,0,0,0,.73-.47,3.07,3.07,0,0,0,.36-.53l1.53-2.81h4.95l.29,2.56a1.78,1.78,0,0,0,.17.62,1.37,1.37,0,0,0,.82.66,3.19,3.19,0,0,0,.82.13l1.1,0c.47,0,.83,0,1.11,0a2,2,0,0,0,1.09-.39,1.55,1.55,0,0,0,.58-1.12,5.34,5.34,0,0,0,0-.95L183.39,21.6a2,2,0,0,0-.22-.75,1.51,1.51,0,0,0-.91-.7,4.44,4.44,0,0,0-.95-.13L180,20Zm-3.15,10.64,1.71-3.08.34,3.08Z"/><path class="cls-2" d="M201.43,38.8a7.38,7.38,0,0,1-.9,0,2.59,2.59,0,0,1-.63-.14.91.91,0,0,1-.49-.38.78.78,0,0,1-.09-.6l1.41-6.32h-5.39l-1.46,6.53a1,1,0,0,1-.26.48,1.14,1.14,0,0,1-.53.3,2.86,2.86,0,0,1-.64.13,7.78,7.78,0,0,1-.91,0,7.6,7.6,0,0,1-.9,0,3.3,3.3,0,0,1-.62-.13,1,1,0,0,1-.51-.39.83.83,0,0,1-.09-.6L193,21.45a1,1,0,0,1,.28-.49,1.3,1.3,0,0,1,.53-.29,3.52,3.52,0,0,1,.65-.13,10.26,10.26,0,0,1,1.81,0,3.36,3.36,0,0,1,.61.13.87.87,0,0,1,.51.42.8.8,0,0,1,.07.57l-1.26,5.69h5.38l1.32-5.9a1,1,0,0,1,.28-.49,1.16,1.16,0,0,1,.51-.29,3.52,3.52,0,0,1,.65-.13,8,8,0,0,1,.92,0,7.31,7.31,0,0,1,.89,0,3.36,3.36,0,0,1,.61.13,1,1,0,0,1,.51.39.78.78,0,0,1,.09.6l-3.61,16.19a1,1,0,0,1-.28.5,1.29,1.29,0,0,1-.52.28,3,3,0,0,1-.65.13A7.6,7.6,0,0,1,201.43,38.8Z"/><path class="cls-5" d="M205.29,21a6.37,6.37,0,0,1,.83,0,3.11,3.11,0,0,1,.5.1.46.46,0,0,1,.25.18.33.33,0,0,1,0,.24l-3.61,16.19a.44.44,0,0,1-.14.23.87.87,0,0,1-.32.18,3,3,0,0,1-.55.1,6.81,6.81,0,0,1-.85,0,6.54,6.54,0,0,1-.84,0,2.28,2.28,0,0,1-.51-.1.47.47,0,0,1-.24-.18.31.31,0,0,1,0-.23l1.54-6.93h-6.41l-1.55,6.93a.42.42,0,0,1-.13.23.82.82,0,0,1-.31.18,3.17,3.17,0,0,1-.56.1,6.71,6.71,0,0,1-.85,0,6.54,6.54,0,0,1-.84,0,2.28,2.28,0,0,1-.51-.1.51.51,0,0,1-.25-.18.31.31,0,0,1,0-.23l3.61-16.19a.49.49,0,0,1,.14-.24.87.87,0,0,1,.32-.18,4.47,4.47,0,0,1,.56-.1,7,7,0,0,1,.85,0,6.35,6.35,0,0,1,.84,0,3,3,0,0,1,.51.1.47.47,0,0,1,.24.18.33.33,0,0,1,0,.24l-1.41,6.29H202l1.41-6.29a.43.43,0,0,1,.14-.24.87.87,0,0,1,.32-.18,3.7,3.7,0,0,1,.55-.1,7,7,0,0,1,.86,0m0-1a6.92,6.92,0,0,0-1,.05,3.91,3.91,0,0,0-.74.14,1.73,1.73,0,0,0-.7.41,1.4,1.4,0,0,0-.43.74l-1.23,5.51h-4.36L198,21.77a1.33,1.33,0,0,0-.91-1.57,2.92,2.92,0,0,0-.71-.15,6.6,6.6,0,0,0-1-.05,6.79,6.79,0,0,0-1,.05,3.91,3.91,0,0,0-.74.14,1.8,1.8,0,0,0-.72.4,1.45,1.45,0,0,0-.42.75l-3.62,16.19a1.36,1.36,0,0,0,.15,1,1.52,1.52,0,0,0,.77.6,3.5,3.5,0,0,0,.73.16,8.62,8.62,0,0,0,1,0,8.93,8.93,0,0,0,1,0,5.33,5.33,0,0,0,.74-.15,1.77,1.77,0,0,0,.73-.43,1.46,1.46,0,0,0,.39-.72l1.37-6.14h4.37l-1.28,5.71a1.34,1.34,0,0,0,.15,1,1.37,1.37,0,0,0,.75.6,2.9,2.9,0,0,0,.74.17,8.62,8.62,0,0,0,1,0,8.73,8.73,0,0,0,1,0,4.78,4.78,0,0,0,.74-.15,1.8,1.8,0,0,0,.72-.4,1.48,1.48,0,0,0,.42-.75l3.61-16.19a1.36,1.36,0,0,0-.15-1,1.39,1.39,0,0,0-.77-.6,3,3,0,0,0-.72-.15,6.47,6.47,0,0,0-1-.05Z"/><path class="cls-2" d="M217.4,39a10,10,0,0,1-3.55-.56,5,5,0,0,1-2.36-1.77,5.83,5.83,0,0,1-1-3,13.92,13.92,0,0,1,.39-4.07,14.74,14.74,0,0,1,1.41-3.88,11,11,0,0,1,2.31-3,9.85,9.85,0,0,1,3.15-1.88,11.12,11.12,0,0,1,3.9-.66,10.12,10.12,0,0,1,3.5.55,5.09,5.09,0,0,1,2.37,1.77,6,6,0,0,1,1,3,13.41,13.41,0,0,1-.36,4,14.93,14.93,0,0,1-1.43,3.94,11.08,11.08,0,0,1-2.32,3,9.74,9.74,0,0,1-3.15,1.88A11.2,11.2,0,0,1,217.4,39Zm3.52-14.9a4.47,4.47,0,0,0-2,.44,4.88,4.88,0,0,0-1.53,1.17,6.7,6.7,0,0,0-1.08,1.75,12.53,12.53,0,0,0-.7,2.2,13.41,13.41,0,0,0-.34,2.43,4.17,4.17,0,0,0,.25,1.71,1.85,1.85,0,0,0,.86,1,3.86,3.86,0,0,0,1.8.35,4.6,4.6,0,0,0,2-.42,5,5,0,0,0,1.52-1.18,6.93,6.93,0,0,0,1.1-1.78,14.29,14.29,0,0,0,.71-2.24,12.84,12.84,0,0,0,.32-2.37,4.07,4.07,0,0,0-.26-1.68,2,2,0,0,0-.87-1A3.66,3.66,0,0,0,220.92,24.13Z"/><path class="cls-5" d="M221.68,20.77a9.56,9.56,0,0,1,3.32.52,4.41,4.41,0,0,1,2.14,1.59,5.45,5.45,0,0,1,.9,2.71,12.73,12.73,0,0,1-.35,3.86,14.73,14.73,0,0,1-1.38,3.82,10.36,10.36,0,0,1-2.21,2.85,9.16,9.16,0,0,1-3,1.79,10.74,10.74,0,0,1-3.71.62A9.46,9.46,0,0,1,214,38a4.4,4.4,0,0,1-2.13-1.59,5.3,5.3,0,0,1-.88-2.73,13.56,13.56,0,0,1,.37-3.92A14.47,14.47,0,0,1,212.76,26,10.36,10.36,0,0,1,215,23.19a9.06,9.06,0,0,1,3-1.79,10.52,10.52,0,0,1,3.72-.63m-3.53,14.88a5.14,5.14,0,0,0,2.25-.47,5.35,5.35,0,0,0,1.68-1.3A7.12,7.12,0,0,0,223.26,32a14,14,0,0,0,.73-2.32,12.35,12.35,0,0,0,.34-2.46,4.6,4.6,0,0,0-.3-1.9A2.45,2.45,0,0,0,223,24.07a4.08,4.08,0,0,0-2-.44,5,5,0,0,0-2.25.49A5.32,5.32,0,0,0,217,25.41a6.69,6.69,0,0,0-1.17,1.89,12.92,12.92,0,0,0-.73,2.28,13.39,13.39,0,0,0-.35,2.53A4.5,4.5,0,0,0,215,34a2.28,2.28,0,0,0,1.08,1.21,4.19,4.19,0,0,0,2,.42m3.53-15.88a11.59,11.59,0,0,0-4.07.69,10.27,10.27,0,0,0-3.31,2,11.34,11.34,0,0,0-2.42,3.1,15.53,15.53,0,0,0-1.46,4,14.55,14.55,0,0,0-.4,4.21A6.36,6.36,0,0,0,211.08,37a5.48,5.48,0,0,0,2.59,2,10.54,10.54,0,0,0,3.73.59,11.71,11.71,0,0,0,4-.68,10.25,10.25,0,0,0,3.32-2,11.49,11.49,0,0,0,2.42-3.13,15.93,15.93,0,0,0,1.48-4.07A14.11,14.11,0,0,0,229,25.5,6.42,6.42,0,0,0,228,22.3a5.44,5.44,0,0,0-2.6-1.95,10.59,10.59,0,0,0-3.67-.58Zm-3.53,14.88a3.41,3.41,0,0,1-1.56-.29,1.41,1.41,0,0,1-.64-.72,3.7,3.7,0,0,1-.21-1.5,13.69,13.69,0,0,1,1-4.45,6,6,0,0,1,1-1.62A4.58,4.58,0,0,1,219.11,25a4.09,4.09,0,0,1,1.81-.38,3.26,3.26,0,0,1,1.53.3,1.51,1.51,0,0,1,.66.75,3.38,3.38,0,0,1,.22,1.47,13.34,13.34,0,0,1-1,4.42,6.45,6.45,0,0,1-1,1.65A4.39,4.39,0,0,1,220,34.28a4,4,0,0,1-1.81.37Z"/><path class="cls-2" d="M193,54.89a6.82,6.82,0,0,1-2.24-.33,3.54,3.54,0,0,1-1.58-1,3.37,3.37,0,0,1-.77-1.71,6.37,6.37,0,0,1,.1-2.23l1.41-7a.85.85,0,0,1,.21-.41,1,1,0,0,1,.44-.25,2.31,2.31,0,0,1,.47-.09,5.79,5.79,0,0,1,.65,0,5.6,5.6,0,0,1,.64,0,1.84,1.84,0,0,1,.47.1.78.78,0,0,1,.43.34.7.7,0,0,1,.07.51l-1.4,7a3.09,3.09,0,0,0-.08,1.05,1.3,1.3,0,0,0,.21.62.9.9,0,0,0,.44.32,2.06,2.06,0,0,0,.8.13,2.73,2.73,0,0,0,.92-.15,2.35,2.35,0,0,0,.72-.42,2.86,2.86,0,0,0,.55-.71,3.54,3.54,0,0,0,.34-1l1.42-7.09a.78.78,0,0,1,.21-.4,1,1,0,0,1,.43-.26,2.29,2.29,0,0,1,.48-.09,5.6,5.6,0,0,1,.64,0,5.53,5.53,0,0,1,.63,0,1.67,1.67,0,0,1,.45.1.77.77,0,0,1,.44.34.75.75,0,0,1,.07.51l-1.42,7.15a7.52,7.52,0,0,1-.77,2.14A5.53,5.53,0,0,1,197,53.62a5.47,5.47,0,0,1-1.82,1A7.78,7.78,0,0,1,193,54.89Z"/><path class="cls-5" d="M198.93,42.28a4.45,4.45,0,0,1,.56,0,1.21,1.21,0,0,1,.35.08.29.29,0,0,1,.17.12.18.18,0,0,1,0,.16l-1.42,7.15a6.68,6.68,0,0,1-.72,2,4.68,4.68,0,0,1-1.21,1.43,4.79,4.79,0,0,1-1.66.87,7.09,7.09,0,0,1-2.07.29,6.39,6.39,0,0,1-2.08-.3,3.07,3.07,0,0,1-1.36-.88,2.87,2.87,0,0,1-.65-1.47,5.59,5.59,0,0,1,.09-2.05l1.41-7a.3.3,0,0,1,.08-.16.51.51,0,0,1,.22-.12,1.66,1.66,0,0,1,.39-.08,8.57,8.57,0,0,1,1.17,0,1.21,1.21,0,0,1,.35.08.26.26,0,0,1,.17.12.18.18,0,0,1,0,.16l-1.4,7a3.83,3.83,0,0,0-.09,1.22,1.87,1.87,0,0,0,.31.84,1.41,1.41,0,0,0,.65.5,2.71,2.71,0,0,0,1,.16,3.24,3.24,0,0,0,1.09-.18,2.7,2.7,0,0,0,.88-.52,3.07,3.07,0,0,0,.66-.84,3.8,3.8,0,0,0,.39-1.12l1.42-7.09a.32.32,0,0,1,.09-.16.53.53,0,0,1,.21-.12,1.56,1.56,0,0,1,.38-.08,5.07,5.07,0,0,1,.59,0m0-1c-.28,0-.51,0-.71,0a2.2,2.2,0,0,0-.57.12,1.48,1.48,0,0,0-.63.38,1.43,1.43,0,0,0-.34.64l-1.42,7.1a2.86,2.86,0,0,1-.29.84,2,2,0,0,1-.45.57,1.62,1.62,0,0,1-.55.33,2.23,2.23,0,0,1-.75.12,1.87,1.87,0,0,1-.63-.09.44.44,0,0,1-.2-.15,1,1,0,0,1-.13-.39,2.81,2.81,0,0,1,.07-.88l1.42-7a1.26,1.26,0,0,0-.85-1.43,2.94,2.94,0,0,0-.57-.12,6.6,6.6,0,0,0-.69,0,7,7,0,0,0-.71,0,2.78,2.78,0,0,0-.56.11,1.42,1.42,0,0,0-.65.39,1.24,1.24,0,0,0-.34.66l-1.41,7a6.67,6.67,0,0,0-.1,2.41,3.92,3.92,0,0,0,.88,2,4.06,4.06,0,0,0,1.8,1.17,7.26,7.26,0,0,0,2.4.36,8.13,8.13,0,0,0,2.37-.34,6.1,6.1,0,0,0,2-1,5.93,5.93,0,0,0,1.45-1.72,7.8,7.8,0,0,0,.83-2.28L201,42.85a1.18,1.18,0,0,0-.13-.84,1.24,1.24,0,0,0-.71-.58,2.82,2.82,0,0,0-.56-.12,6.26,6.26,0,0,0-.68,0Z"/><path class="cls-2" d="M204.29,54.73l-.61,0a2.24,2.24,0,0,1-.47-.1.8.8,0,0,1-.42-.31.69.69,0,0,1-.09-.58l2.13-10.63a1.49,1.49,0,0,1,.54-.94,1.56,1.56,0,0,1,1-.32h2.59c.34,0,.63,0,.9,0a6.84,6.84,0,0,1,.79.12,4.37,4.37,0,0,1,1.14.38,3,3,0,0,1,.89.68,2.77,2.77,0,0,1,.58,1,3.57,3.57,0,0,1,.19,1.21,6,6,0,0,1-.12,1.17,4.94,4.94,0,0,1-.41,1.21,5.45,5.45,0,0,1-.73,1.13,4.73,4.73,0,0,1-1.12.95,5.39,5.39,0,0,1-1.5.64,7.2,7.2,0,0,1-2,.24h-.83L206.08,54a.8.8,0,0,1-.23.42,1,1,0,0,1-.43.25,2.87,2.87,0,0,1-.49.09Zm3.54-7a2.47,2.47,0,0,0,.73-.1,2,2,0,0,0,.52-.26,1.54,1.54,0,0,0,.36-.36,2.42,2.42,0,0,0,.26-.47,2.46,2.46,0,0,0,.15-.51,3,3,0,0,0,.05-.5.83.83,0,0,0-.13-.49.63.63,0,0,0-.37-.24,1.28,1.28,0,0,0-.34-.07l-.48,0h-.65l-.59,3Z"/><path class="cls-5" d="M208.94,42.33c.32,0,.6,0,.86,0a6.29,6.29,0,0,1,.74.11,3.47,3.47,0,0,1,1,.34,2.52,2.52,0,0,1,.75.57,2.41,2.41,0,0,1,.48.8,3.13,3.13,0,0,1,.16,1,5,5,0,0,1-.48,2.17,4.86,4.86,0,0,1-.66,1,4.37,4.37,0,0,1-1,.85,5,5,0,0,1-1.37.59,7.06,7.06,0,0,1-1.83.22h-1.24l-.76,3.79a.29.29,0,0,1-.09.16.49.49,0,0,1-.23.12,2.53,2.53,0,0,1-.39.07l-.59,0-.56,0a1.77,1.77,0,0,1-.35-.07.32.32,0,0,1-.18-.12.21.21,0,0,1,0-.16l2.14-10.67a1,1,0,0,1,.36-.65,1.05,1.05,0,0,1,.67-.21h2.59m-2.21,5.88h1.1a2.65,2.65,0,0,0,.89-.13,2.46,2.46,0,0,0,.65-.32,2,2,0,0,0,.47-.48,2.3,2.3,0,0,0,.32-.57,2.47,2.47,0,0,0,.18-.61,3.11,3.11,0,0,0,.06-.59,1.33,1.33,0,0,0-.21-.76,1.08,1.08,0,0,0-.65-.45,2.5,2.5,0,0,0-.43-.09l-.53,0h-1.07l-.78,4m2.21-6.88h-2.59a2,2,0,0,0-1.29.43,2,2,0,0,0-.72,1.24l-2.13,10.64a1.18,1.18,0,0,0,.17,1,1.31,1.31,0,0,0,.66.49,2.18,2.18,0,0,0,.59.12,6.12,6.12,0,0,0,.66,0,6.39,6.39,0,0,0,.68,0,2.77,2.77,0,0,0,.58-.1,1.46,1.46,0,0,0,.66-.37,1.33,1.33,0,0,0,.36-.68l.6-3h.42a7.83,7.83,0,0,0,2.1-.26,6,6,0,0,0,1.63-.7,5.25,5.25,0,0,0,1.23-1,6,6,0,0,0,.8-1.23,5.64,5.64,0,0,0,.45-1.33,6.22,6.22,0,0,0,.13-1.27,4,4,0,0,0-.22-1.38,3.43,3.43,0,0,0-.67-1.14,3.72,3.72,0,0,0-1-.79,4.64,4.64,0,0,0-1.27-.43,5.8,5.8,0,0,0-.85-.12,8.93,8.93,0,0,0-.94,0Zm-.6,3.86h.24a3.1,3.1,0,0,1,.44,0,.7.7,0,0,1,.21,0l.13,0a.48.48,0,0,1,0,.21,2,2,0,0,1,0,.41,2.06,2.06,0,0,1-.32.77,1.07,1.07,0,0,1-.26.26,1.49,1.49,0,0,1-.38.18,1.32,1.32,0,0,1-.46.07l.4-2Z"/><path class="cls-2" d="M216.66,54.68a1.4,1.4,0,0,1-.41-.06,1,1,0,0,1-.44-.25.89.89,0,0,1-.25-.48,1.27,1.27,0,0,1,0-.58L217.64,43a1.33,1.33,0,0,1,.52-.89,1.43,1.43,0,0,1,.87-.27h2.86a9.43,9.43,0,0,1,2.5.29,4.75,4.75,0,0,1,1.76.92,3.79,3.79,0,0,1,1.1,1.54,5.57,5.57,0,0,1,.35,2c0,.39,0,.8-.07,1.22a10.49,10.49,0,0,1-.24,1.32,9.65,9.65,0,0,1-.46,1.34,7.82,7.82,0,0,1-.72,1.29,7,7,0,0,1-1,1.15,6.18,6.18,0,0,1-1.38.93,7.35,7.35,0,0,1-1.75.6,10.71,10.71,0,0,1-2.27.22ZM220,51.77a4.57,4.57,0,0,0,1.45-.2,3.6,3.6,0,0,0,1-.56,3.69,3.69,0,0,0,.75-.83,5.57,5.57,0,0,0,.53-1A6.4,6.4,0,0,0,224,48a7.47,7.47,0,0,0,.09-1.13,3,3,0,0,0-.13-.92,1.63,1.63,0,0,0-.39-.66,1.94,1.94,0,0,0-.7-.43,3.72,3.72,0,0,0-1.29-.17h-.84l-1.42,7.05Z"/><path class="cls-5" d="M221.89,42.33a8.81,8.81,0,0,1,2.36.27,4.3,4.3,0,0,1,1.58.82,3.39,3.39,0,0,1,.95,1.34,5,5,0,0,1,.32,1.85,10,10,0,0,1-.3,2.42,8.93,8.93,0,0,1-.43,1.26,6.34,6.34,0,0,1-1.63,2.27,5.94,5.94,0,0,1-1.28.85,6.79,6.79,0,0,1-1.63.56,9.63,9.63,0,0,1-2.16.21h-3a1.26,1.26,0,0,1-.28,0,.52.52,0,0,1-.22-.12.54.54,0,0,1-.12-.24.91.91,0,0,1,0-.36l2.07-10.33a.85.85,0,0,1,.32-.58,1,1,0,0,1,.58-.18h2.86m-3.21,9.94H220a5,5,0,0,0,1.61-.23,3.94,3.94,0,0,0,1.16-.64,4.29,4.29,0,0,0,.85-.95,5.74,5.74,0,0,0,.58-1.13,6.35,6.35,0,0,0,.32-1.21,7.31,7.31,0,0,0,.1-1.21,3.64,3.64,0,0,0-.15-1.07,2.15,2.15,0,0,0-.51-.85,2.3,2.3,0,0,0-.89-.56,4.17,4.17,0,0,0-1.46-.2h-1.25l-1.63,8.05m3.21-10.94H219a2,2,0,0,0-1.17.37,1.82,1.82,0,0,0-.72,1.21l-2.06,10.31a1.87,1.87,0,0,0,0,.78,1.41,1.41,0,0,0,.39.73,1.44,1.44,0,0,0,.66.37,1.91,1.91,0,0,0,.54.08h3a11,11,0,0,0,2.38-.23,8.3,8.3,0,0,0,1.86-.64,6.92,6.92,0,0,0,1.5-1,7.46,7.46,0,0,0,1.1-1.23,8,8,0,0,0,.78-1.39,9,9,0,0,0,.48-1.41,9.78,9.78,0,0,0,.25-1.38,11.42,11.42,0,0,0,.08-1.28,6,6,0,0,0-.39-2.22,4.29,4.29,0,0,0-1.23-1.73,5.4,5.4,0,0,0-1.95-1,9.66,9.66,0,0,0-2.64-.31Zm-.77,3.89h.44a3.1,3.1,0,0,1,1.11.14,1.35,1.35,0,0,1,.53.31,1.1,1.1,0,0,1,.26.46,2.65,2.65,0,0,1,.11.77,6.38,6.38,0,0,1-.09,1.05,4.66,4.66,0,0,1-.27,1,4.1,4.1,0,0,1-.48.93,2.76,2.76,0,0,1-.64.72,3.13,3.13,0,0,1-.86.48,4.13,4.13,0,0,1-1.28.17h0l1.21-6.05Z"/><path class="cls-2" d="M238.81,54.73h-.6a2.27,2.27,0,0,1-.46-.08.75.75,0,0,1-.44-.32.91.91,0,0,1-.13-.43L236.92,52h-3.71L232.13,54a1.14,1.14,0,0,1-.23.33,1.1,1.1,0,0,1-.46.27,2.28,2.28,0,0,1-.52.08l-.69,0a6.37,6.37,0,0,1-.71,0,1,1,0,0,1-.66-.33.83.83,0,0,1-.09-.75A3.45,3.45,0,0,1,229,53l5.75-10.51a2.12,2.12,0,0,1,.26-.35,1.05,1.05,0,0,1,.48-.29,2.7,2.7,0,0,1,.58-.08h1.65a3,3,0,0,1,.61.08.86.86,0,0,1,.53.4,1.14,1.14,0,0,1,.13.45l1.55,10.49a3.68,3.68,0,0,1,0,.61.83.83,0,0,1-.32.66,1.24,1.24,0,0,1-.67.23Zm-2.22-5.6-.4-2.93-1.53,2.93Z"/><path class="cls-5" d="M236.89,42.28h.85a2.49,2.49,0,0,1,.49.06.42.42,0,0,1,.23.15.67.67,0,0,1,.07.28l1.55,10.5a2.71,2.71,0,0,1,0,.52.34.34,0,0,1-.13.29.82.82,0,0,1-.4.12l-.78,0h-.57a1.92,1.92,0,0,1-.34,0,.29.29,0,0,1-.16-.11.52.52,0,0,1-.06-.2l-.32-2.38h-4.45l-1.22,2.32a1.39,1.39,0,0,1-.15.22.6.6,0,0,1-.24.13,1.89,1.89,0,0,1-.41.06l-.66,0a5.32,5.32,0,0,1-.65,0,.48.48,0,0,1-.32-.13.34.34,0,0,1,0-.3,2.56,2.56,0,0,1,.23-.51l5.75-10.51a1.35,1.35,0,0,1,.18-.25.71.71,0,0,1,.26-.15,2.46,2.46,0,0,1,.46-.06h.76m-3.06,7.35h3.33l-.68-5h0l-2.64,5m3.06-8.35h-.81a3.16,3.16,0,0,0-.69.1,1.73,1.73,0,0,0-.7.41,2.14,2.14,0,0,0-.32.45L228.6,52.78a3.6,3.6,0,0,0-.31.7,1.29,1.29,0,0,0,.17,1.18,1.39,1.39,0,0,0,1,.54c.19,0,.45,0,.77,0l.73,0a3.21,3.21,0,0,0,.62-.1,1.47,1.47,0,0,0,.68-.41,1.66,1.66,0,0,0,.32-.45l.94-1.77h3l.2,1.48a1.39,1.39,0,0,0,.21.64,1.23,1.23,0,0,0,.71.52,2.2,2.2,0,0,0,.57.09,5.64,5.64,0,0,0,.63,0l.85,0a1.85,1.85,0,0,0,1-.33,1.36,1.36,0,0,0,.51-1.06,3.6,3.6,0,0,0-.05-.68l-1.55-10.51a1.6,1.6,0,0,0-.18-.61,1.35,1.35,0,0,0-.82-.63,3.68,3.68,0,0,0-.74-.1Zm-1.41,7.35.43-.81.11.81Z"/><path class="cls-2" d="M246.2,54.73a5.6,5.6,0,0,1-.64,0,2.13,2.13,0,0,1-.46-.1.76.76,0,0,1-.43-.35.71.71,0,0,1-.08-.5l1.79-9H244a.69.69,0,0,1-.64-.38,1.09,1.09,0,0,1-.1-.5,1.38,1.38,0,0,1,0-.26,2.58,2.58,0,0,1,.05-.36,3.38,3.38,0,0,1,.09-.41,2.72,2.72,0,0,1,.15-.43,1.5,1.5,0,0,1,.26-.38.76.76,0,0,1,.56-.25h8.35a.69.69,0,0,1,.6.35,1,1,0,0,1,.13.53c0,.06,0,.14,0,.26a3.06,3.06,0,0,1-.05.36,3.92,3.92,0,0,1-.23.81,1.28,1.28,0,0,1-.27.4.74.74,0,0,1-.56.26h-2.57L248,53.94a.9.9,0,0,1-.24.42,1.06,1.06,0,0,1-.43.25,2.46,2.46,0,0,1-.47.09A5.79,5.79,0,0,1,246.2,54.73Z"/><path class="cls-5" d="M252.78,42.33a.19.19,0,0,1,.17.1.55.55,0,0,1,.06.28s0,.12,0,.21,0,.2-.05.32,0,.23-.08.36-.08.24-.12.34a1,1,0,0,1-.17.26.3.3,0,0,1-.2.1h-3l-1.9,9.55a.39.39,0,0,1-.1.16.55.55,0,0,1-.23.12,2.62,2.62,0,0,1-.38.07,4.8,4.8,0,0,1-.59,0,4.62,4.62,0,0,1-.58,0,1.77,1.77,0,0,1-.35-.07.32.32,0,0,1-.17-.12.29.29,0,0,1,0-.16L247,44.3h-3a.2.2,0,0,1-.19-.1.7.7,0,0,1,0-.28,1.79,1.79,0,0,1,0-.21c0-.1,0-.2.05-.32s0-.24.08-.37a1.71,1.71,0,0,1,.13-.34.67.67,0,0,1,.16-.25.26.26,0,0,1,.2-.1h8.35m0-1h-8.35a1.27,1.27,0,0,0-.92.4,1.9,1.9,0,0,0-.35.52,2.8,2.8,0,0,0-.18.51,2.84,2.84,0,0,0-.1.45,3.7,3.7,0,0,0-.06.41,1.85,1.85,0,0,0,0,.3,1.62,1.62,0,0,0,.15.72,1.19,1.19,0,0,0,1.09.66h1.73l-1.67,8.35a1.22,1.22,0,0,0,.14.86,1.25,1.25,0,0,0,.68.56,2.77,2.77,0,0,0,.58.13,6.81,6.81,0,0,0,.7,0c.28,0,.51,0,.71,0a3.56,3.56,0,0,0,.55-.11,1.55,1.55,0,0,0,.64-.37,1.3,1.3,0,0,0,.35-.58l0,0V54l1.74-8.74h2.16a1.26,1.26,0,0,0,.93-.42,1.69,1.69,0,0,0,.35-.53,3.12,3.12,0,0,0,.17-.49,4.5,4.5,0,0,0,.1-.44A3.7,3.7,0,0,0,254,43c0-.13,0-.23,0-.3a1.54,1.54,0,0,0-.2-.79,1.17,1.17,0,0,0-1-.59Z"/><path class="cls-2" d="M255.68,54.68a1.43,1.43,0,0,1-.43-.07.94.94,0,0,1-.43-.3,1,1,0,0,1-.2-.46,1.51,1.51,0,0,1,0-.52L256.7,43a1.36,1.36,0,0,1,.52-.89,1.43,1.43,0,0,1,.84-.27H264a.75.75,0,0,1,.74.85s0,.12,0,.24,0,.21,0,.34-.05.25-.08.39a2.6,2.6,0,0,1-.15.42,1.56,1.56,0,0,1-.26.39.78.78,0,0,1-.57.26h-3.82l-.38,1.89h3A.67.67,0,0,1,263,47a1,1,0,0,1,.13.51s0,.13,0,.24,0,.21-.05.34a3.39,3.39,0,0,1-.08.39,3.73,3.73,0,0,1-.14.4,1.58,1.58,0,0,1-.26.38.77.77,0,0,1-.56.24h-3.17l-.47,2.34H262a.7.7,0,0,1,.6.34,1.13,1.13,0,0,1,.12.54s0,.12,0,.23,0,.23-.05.37a2.83,2.83,0,0,1-.09.37,1.8,1.8,0,0,1-.14.41,1.56,1.56,0,0,1-.26.39.81.81,0,0,1-.56.24Z"/><path class="cls-5" d="M264,42.33c.16,0,.24.12.24.35,0,0,0,.1,0,.19a2,2,0,0,1,0,.31c0,.11,0,.23-.07.35a2.55,2.55,0,0,1-.11.33,1.3,1.3,0,0,1-.17.26.3.3,0,0,1-.21.1h-4.23l-.58,2.89h3.59a.2.2,0,0,1,.18.09.48.48,0,0,1,.06.26s0,.1,0,.19,0,.19,0,.31,0,.22-.07.34a1.52,1.52,0,0,1-.12.32.72.72,0,0,1-.16.24.28.28,0,0,1-.2.09h-3.58l-.68,3.34H262a.16.16,0,0,1,.16.1.51.51,0,0,1,.06.28,1.72,1.72,0,0,1,0,.2c0,.09,0,.19,0,.3s-.05.23-.08.35a3,3,0,0,1-.11.32.91.91,0,0,1-.16.24.29.29,0,0,1-.21.1h-5.95a.76.76,0,0,1-.27,0,.39.39,0,0,1-.2-.13.64.64,0,0,1-.1-.24.79.79,0,0,1,0-.34l2.07-10.33a.89.89,0,0,1,.32-.58.93.93,0,0,1,.55-.18H264m0-1h-5.9a1.93,1.93,0,0,0-1.13.37,1.83,1.83,0,0,0-.72,1.19l-2.07,10.33a1.8,1.8,0,0,0,0,.73,1.46,1.46,0,0,0,1,1.13,2,2,0,0,0,.6.1h5.95a1.26,1.26,0,0,0,.91-.39,1.73,1.73,0,0,0,.37-.53c.06-.15.12-.31.17-.48a3.67,3.67,0,0,0,.09-.43,3.12,3.12,0,0,0,.06-.41c0-.13,0-.22,0-.27a1.57,1.57,0,0,0-.18-.77,1.19,1.19,0,0,0-1-.61H259l.27-1.34H262a1.28,1.28,0,0,0,.91-.39,1.84,1.84,0,0,0,.36-.52,2.35,2.35,0,0,0,.17-.49,3.13,3.13,0,0,0,.1-.44c0-.12,0-.24.05-.35s0-.24,0-.3a1.42,1.42,0,0,0-.21-.78,1.17,1.17,0,0,0-1-.57H260l.18-.89h3.41a1.29,1.29,0,0,0,.93-.41,2.25,2.25,0,0,0,.36-.53,2.78,2.78,0,0,0,.17-.51,3.67,3.67,0,0,0,.09-.43c0-.14,0-.26.05-.37s0-.24,0-.29A1.26,1.26,0,0,0,264,41.33Z"/></g></g></svg>