<svg xmlns="http://www.w3.org/2000/svg" viewBox="0 0 55.99 56.01"><defs><style>.cls-1{fill:#83db63;}.cls-2{fill:#2165b8;}.cls-3{fill:#ffc928;}.cls-4{fill:#f0f0f0;}.cls-5{fill:#fff;}.cls-6{fill:#e77e23;}.cls-7{fill:#afc7e3;}</style></defs><g id="Layer_2" data-name="Layer 2"><g id="Layer_1-2" data-name="Layer 1"><g id="Layer_2-2" data-name="Layer 2"><path class="cls-1" d="M1.58,18.73a27.9,27.9,0,0,1,35.7-17.1,28.81,28.81,0,0,1,11.8,8,28,28,0,0,1-30.4,44.8,27.79,27.79,0,0,1-13-9.4A28.23,28.23,0,0,1,1.58,18.73Z"/><path class="cls-2" d="M1.58,18.73a27.9,27.9,0,0,1,35.7-17.1,28.81,28.81,0,0,1,11.8,8A28,28,0,0,1,17.58,53a28.81,28.81,0,0,1-11.8-8A28,28,0,0,1,1.58,18.73Z"/><path class="cls-1" d="M42.08,32.83a.52.52,0,0,1-.3.7l-1.1.5a.62.62,0,0,1-.7-.2H24l-3.4,1.6L28,51.73l-2.7,1.7-1.9,1.2-10.7-15.7L10.18,40a.52.52,0,0,1-.7-.3l-2.7-6L4,27.63a.52.52,0,0,1,.3-.7l14.1-6.4h0l10.7-11.7-.1-.3a.52.52,0,0,1,.3-.7l1.2-.5a.52.52,0,0,1,.7.3l3.8,8.6a4.91,4.91,0,0,1,4.6,2.8,4.71,4.71,0,0,1-1,5.4Z"/><path class="cls-1" d="M37.38,13.43a1.21,1.21,0,0,1-.2-1.5l6-7.4a1.23,1.23,0,0,1,.8-.4,1.85,1.85,0,0,1,.7.2,1.09,1.09,0,0,1,.1,1.5l-6,7.4a1.23,1.23,0,0,1-.8.4A.73.73,0,0,1,37.38,13.43Z"/><path class="cls-1" d="M42.58,16.73l8.6-4.2a.75.75,0,0,1,.5-.1.87.87,0,0,1,.9.6,1.15,1.15,0,0,1-.5,1.4l-8.5,4.2a.9.9,0,0,1-.5.1.87.87,0,0,1-.9-.6A.91.91,0,0,1,42.58,16.73Z"/><path class="cls-1" d="M53.38,26.23v.2a1,1,0,0,1-1.2.8l-9.3-1.7a1,1,0,0,1-.8-1v-.2a1,1,0,0,1,1.2-.8l9.3,1.7A1.19,1.19,0,0,1,53.38,26.23Z"/><circle class="cls-3" cx="33.18" cy="18.23" r="5.1"/><polygon class="cls-4" points="17.28 32.52 25.48 50.63 22.68 52.42 20.68 53.73 8.68 36.42 17.28 32.52"/><polygon class="cls-5" points="17.28 32.52 25.48 50.63 22.68 52.42 14.18 33.83 17.28 32.52"/><polygon class="cls-5" points="26.88 5.13 38.98 31.73 38.78 31.73 20.88 31.73 14.68 18.23 26.88 5.13"/><polygon class="cls-4" points="32.58 18.23 38.78 31.73 20.88 31.73 17.78 25.02 32.58 18.23"/><path class="cls-6" d="M39,32l1.2-.5a.55.55,0,0,0,.3-.7L28.88,4a.55.55,0,0,0-.7-.3l-1.2.5a.55.55,0,0,0-.3.7l11.6,26.7A.51.51,0,0,0,39,32Z"/><path class="cls-3" d="M16.08,17.93l5.8,12.8a.63.63,0,0,1-.3.8l-14.9,6.9a.63.63,0,0,1-.8-.3L.08,25.23a.63.63,0,0,1,.3-.8l14.9-6.8A.67.67,0,0,1,16.08,17.93Z"/><path class="cls-6" d="M19,24.43l2.9,6.4a.63.63,0,0,1-.3.8l-14.9,6.8a.63.63,0,0,1-.8-.3L3,31.73Z"/><path class="cls-7" d="M37.08,10l6.4-7.8a1,1,0,0,0-.2-1.5h0a1,1,0,0,0-1.5.2l-6.4,7.8a1,1,0,0,0,.2,1.5h0A1.23,1.23,0,0,0,37.08,10Z"/><path class="cls-7" d="M42,15.53l9.1-4.4a1.14,1.14,0,0,0,.5-1.5h0a1.14,1.14,0,0,0-1.5-.5L41,13.53a1.14,1.14,0,0,0-.5,1.5h0A1.06,1.06,0,0,0,42,15.53Z"/><path class="cls-7" d="M41.28,23l9.9,1.8a1.13,1.13,0,0,0,1.3-.9h0a1.13,1.13,0,0,0-.9-1.3l-9.9-1.8a1.13,1.13,0,0,0-1.3.9h0A1.13,1.13,0,0,0,41.28,23Z"/></g></g></g></svg>