<svg xmlns="http://www.w3.org/2000/svg" viewBox="0 0 265.59 55.65"><defs><style>.cls-1{opacity:0.5;}.cls-2{fill:#fff;}.cls-3{fill:#bfbfbf;}</style></defs><g id="Layer_2" data-name="Layer 2"><g id="Layer_3" data-name="Layer 3"><g class="cls-1"><path class="cls-2" d="M76.14,9.31A5.27,5.27,0,0,1,76,10.4a4.53,4.53,0,0,1-.37,1.11,5.5,5.5,0,0,1-.67,1,4.56,4.56,0,0,1-1,.86,5,5,0,0,1-1.38.59,6.88,6.88,0,0,1-1.86.22H69.47l-.77,3.84a.32.32,0,0,1-.09.17.54.54,0,0,1-.24.12,2.53,2.53,0,0,1-.39.07l-.6,0-.57,0a2.08,2.08,0,0,1-.36-.07.32.32,0,0,1-.17-.12.19.19,0,0,1,0-.17L68.42,7.24a1.06,1.06,0,0,1,.36-.65,1.08,1.08,0,0,1,.69-.22h2.62c.33,0,.61,0,.87,0s.5.06.75.11a4.13,4.13,0,0,1,1,.34,2.83,2.83,0,0,1,.77.58,2.5,2.5,0,0,1,.48.82A3.18,3.18,0,0,1,76.14,9.31Zm-2.57.28a1.39,1.39,0,0,0-.21-.77,1.13,1.13,0,0,0-.66-.45,1.49,1.49,0,0,0-.44-.09,4.39,4.39,0,0,0-.54,0H70.65l-.8,4.08H71a2.69,2.69,0,0,0,.91-.13,2.27,2.27,0,0,0,.66-.33,2,2,0,0,0,.48-.48,2.75,2.75,0,0,0,.32-.58,2.42,2.42,0,0,0,.18-.62A3.21,3.21,0,0,0,73.57,9.59Z"/><path class="cls-2" d="M88.51,6.72s0,.11,0,.2,0,.2,0,.31,0,.23-.07.36a2,2,0,0,1-.12.34.89.89,0,0,1-.16.25.29.29,0,0,1-.21.1H83.6L83,11.21h3.63a.21.21,0,0,1,.19.1.48.48,0,0,1,0,.26,1.72,1.72,0,0,1,0,.2c0,.09,0,.19,0,.3a2.21,2.21,0,0,1-.08.35,1.6,1.6,0,0,1-.11.33,1.43,1.43,0,0,1-.16.24.3.3,0,0,1-.21.09H82.65L82,16.47H86.3a.2.2,0,0,1,.17.09.72.72,0,0,1,0,.29,1.72,1.72,0,0,1,0,.2,1.88,1.88,0,0,1,0,.31c0,.12,0,.23-.08.35a2.55,2.55,0,0,1-.11.33.74.74,0,0,1-.17.24.26.26,0,0,1-.21.1h-6a.76.76,0,0,1-.27-.05.44.44,0,0,1-.2-.13.51.51,0,0,1-.1-.25.79.79,0,0,1,0-.34L81.4,7.14a.93.93,0,0,1,.34-.59.91.91,0,0,1,.55-.18h6C88.43,6.37,88.51,6.49,88.51,6.72Z"/><path class="cls-2" d="M99.54,7.29a1.79,1.79,0,0,1,0,.21c0,.1,0,.2,0,.31s0,.22-.07.34a2.24,2.24,0,0,1-.11.31.89.89,0,0,1-.13.24.21.21,0,0,1-.16.09.71.71,0,0,1-.32-.11,5.15,5.15,0,0,0-.48-.25,4.15,4.15,0,0,0-.66-.25,3,3,0,0,0-.87-.12,2.4,2.4,0,0,0-.85.14,1.52,1.52,0,0,0-.57.37,1.72,1.72,0,0,0-.33.51,1.59,1.59,0,0,0-.1.57,1.07,1.07,0,0,0,.16.59,2.2,2.2,0,0,0,.45.47,5.46,5.46,0,0,0,.64.42l.72.43q.36.22.72.48a3.76,3.76,0,0,1,.64.62,2.88,2.88,0,0,1,.44.79,3,3,0,0,1,.17,1,3.83,3.83,0,0,1-.35,1.62,3.94,3.94,0,0,1-1,1.3,4.88,4.88,0,0,1-1.56.86,6.18,6.18,0,0,1-2,.32,5.52,5.52,0,0,1-1.11-.1,5.88,5.88,0,0,1-.9-.23,3.9,3.9,0,0,1-.67-.3,1.8,1.8,0,0,1-.4-.29.62.62,0,0,1-.13-.42c0-.05,0-.12,0-.22s0-.2,0-.32,0-.23.08-.35a2.55,2.55,0,0,1,.11-.33,1.25,1.25,0,0,1,.15-.24.22.22,0,0,1,.17-.09.71.71,0,0,1,.38.14,4.12,4.12,0,0,0,.54.31,3.72,3.72,0,0,0,.77.32,3.37,3.37,0,0,0,1.07.15,2.85,2.85,0,0,0,1-.14,2.09,2.09,0,0,0,.69-.38,1.65,1.65,0,0,0,.42-.56,1.75,1.75,0,0,0,.14-.7,1.08,1.08,0,0,0-.16-.6,2.24,2.24,0,0,0-.45-.48,4.44,4.44,0,0,0-.62-.41l-.71-.42c-.24-.15-.47-.31-.71-.48a3.25,3.25,0,0,1-.62-.61,2.94,2.94,0,0,1-.44-.8A3.1,3.1,0,0,1,92.3,10a3.58,3.58,0,0,1,.34-1.54,3.54,3.54,0,0,1,.93-1.21A4.25,4.25,0,0,1,95,6.44a5.5,5.5,0,0,1,1.81-.28,5.1,5.1,0,0,1,.89.07,5.32,5.32,0,0,1,.76.17,4.07,4.07,0,0,1,.58.24,1.66,1.66,0,0,1,.33.22A.55.55,0,0,1,99.5,7,.62.62,0,0,1,99.54,7.29Z"/><path class="cls-2" d="M114.81,10.39a11,11,0,0,1-.15,1.74,9.21,9.21,0,0,1-.47,1.84,8.4,8.4,0,0,1-.87,1.75A6.34,6.34,0,0,1,112,17.19a5.91,5.91,0,0,1-1.81,1,7.72,7.72,0,0,1-4.34.13,3.66,3.66,0,0,1-1.45-.77,3.28,3.28,0,0,1-.89-1.31,5.16,5.16,0,0,1-.3-1.85,11.77,11.77,0,0,1,.15-1.83,10.2,10.2,0,0,1,.49-1.86A8.41,8.41,0,0,1,104.75,9a6.5,6.5,0,0,1,1.31-1.46,6.28,6.28,0,0,1,1.8-1,7.1,7.1,0,0,1,2.34-.36,7,7,0,0,1,2,.25,3.75,3.75,0,0,1,1.45.78,3.3,3.3,0,0,1,.88,1.32A5.37,5.37,0,0,1,114.81,10.39Zm-2.58.23a4,4,0,0,0-.12-1A1.75,1.75,0,0,0,111,8.33a3.51,3.51,0,0,0-2.52.14,3.73,3.73,0,0,0-1.07.81,4.78,4.78,0,0,0-.76,1.15,8.33,8.33,0,0,0-.49,1.31,9,9,0,0,0-.27,1.29,9.42,9.42,0,0,0-.07,1.11,4.1,4.1,0,0,0,.12,1,1.77,1.77,0,0,0,1.14,1.24,3.24,3.24,0,0,0,1.11.17,3.18,3.18,0,0,0,1.41-.31,3.49,3.49,0,0,0,1.06-.8,4.82,4.82,0,0,0,.76-1.14,8.22,8.22,0,0,0,.49-1.3,10.61,10.61,0,0,0,.27-1.29A9.45,9.45,0,0,0,112.23,10.62Z"/><path class="cls-2" d="M135.07,9a3.4,3.4,0,0,1-.15,1,3.16,3.16,0,0,1-.44.88,3.1,3.1,0,0,1-.7.7,3.19,3.19,0,0,1-.91.49,2.5,2.5,0,0,1,.74.26,2.23,2.23,0,0,1,.59.46,2.12,2.12,0,0,1,.37.68,2.65,2.65,0,0,1,.13.87,4.11,4.11,0,0,1-.11.91,3.65,3.65,0,0,1-.38.92,3.78,3.78,0,0,1-.67.86,3.92,3.92,0,0,1-1,.71,5.56,5.56,0,0,1-1.34.49,7.78,7.78,0,0,1-1.77.18h-3.29a.67.67,0,0,1-.54-.19.64.64,0,0,1-.09-.57l2.07-10.33a.86.86,0,0,1,.33-.58,1,1,0,0,1,.58-.18h2.84a7.67,7.67,0,0,1,1.63.15,3.31,3.31,0,0,1,1.16.44,2,2,0,0,1,.7.75A2.27,2.27,0,0,1,135.07,9Zm-2.88,5.48a1.1,1.1,0,0,0-.44-.92,2.22,2.22,0,0,0-1.38-.34h-1.61l-.67,3.37h1.71a2.7,2.7,0,0,0,1.09-.19,2.14,2.14,0,0,0,.73-.47,1.75,1.75,0,0,0,.43-.68A2.28,2.28,0,0,0,132.19,14.43Zm.4-5A1.06,1.06,0,0,0,132.5,9a.8.8,0,0,0-.28-.33,1.31,1.31,0,0,0-.46-.21,2.78,2.78,0,0,0-.71-.08h-1.31l-.62,3.08h1.36a2.2,2.2,0,0,0,1-.19,1.78,1.78,0,0,0,.65-.48,2,2,0,0,0,.37-.66A2.41,2.41,0,0,0,132.59,9.4Z"/><path class="cls-2" d="M148.37,17.48a2.71,2.71,0,0,1,0,.52.34.34,0,0,1-.12.29.91.91,0,0,1-.41.12l-.78,0h-.57a2.08,2.08,0,0,1-.34-.05.33.33,0,0,1-.16-.11.39.39,0,0,1-.05-.2l-.33-2.38h-4.44L140,18a.71.71,0,0,1-.15.22.54.54,0,0,1-.24.13,1.89,1.89,0,0,1-.41.06,6.34,6.34,0,0,1-.66,0,5.32,5.32,0,0,1-.65,0,.39.39,0,0,1-.31-.13.33.33,0,0,1,0-.3,3.81,3.81,0,0,1,.23-.51L143.52,7a1.35,1.35,0,0,1,.18-.25.76.76,0,0,1,.27-.15,2.23,2.23,0,0,1,.45-.06H146a2.39,2.39,0,0,1,.49.06.38.38,0,0,1,.23.15.85.85,0,0,1,.08.28Zm-3.59-8.69h0l-2.65,5h3.33Z"/><path class="cls-2" d="M159.45,16.76a1.72,1.72,0,0,1,0,.2c0,.1,0,.21-.05.33s0,.24-.08.37a1.6,1.6,0,0,1-.12.35.88.88,0,0,1-.16.27.3.3,0,0,1-.21.1h-5.43a1.1,1.1,0,0,1-.27,0,.48.48,0,0,1-.2-.14.51.51,0,0,1-.1-.24,1,1,0,0,1,0-.34L155,6.85a.29.29,0,0,1,.09-.16.51.51,0,0,1,.22-.12,1.71,1.71,0,0,1,.39-.07,5,5,0,0,1,.59,0,4.71,4.71,0,0,1,.57,0,1.34,1.34,0,0,1,.36.07.29.29,0,0,1,.17.12.22.22,0,0,1,0,.16l-1.9,9.54h3.73a.17.17,0,0,1,.18.1A.54.54,0,0,1,159.45,16.76Z"/><path class="cls-2" d="M165.9,18.06a.29.29,0,0,1-.09.16.55.55,0,0,1-.23.12,2.53,2.53,0,0,1-.39.07l-.58,0-.58,0a2.08,2.08,0,0,1-.36-.07.32.32,0,0,1-.17-.12.18.18,0,0,1,0-.16l2.25-11.21a.23.23,0,0,1,.08-.16.55.55,0,0,1,.23-.12,1.71,1.71,0,0,1,.39-.07,4.8,4.8,0,0,1,.58,0,4.71,4.71,0,0,1,.57,0,1.43,1.43,0,0,1,.36.07.32.32,0,0,1,.17.12.18.18,0,0,1,0,.16Z"/><path class="cls-2" d="M183.81,17.78a1,1,0,0,1-.21.35.7.7,0,0,1-.32.2,2.27,2.27,0,0,1-.51.08c-.21,0-.46,0-.78,0s-.59,0-.8,0a1.73,1.73,0,0,1-.47-.07.45.45,0,0,1-.24-.18.89.89,0,0,1-.07-.31L180,10.26h0l-3.28,7.52a1.55,1.55,0,0,1-.2.35.58.58,0,0,1-.28.2,1.76,1.76,0,0,1-.48.08c-.2,0-.46,0-.77,0s-.66,0-.88,0a1.94,1.94,0,0,1-.51-.08.38.38,0,0,1-.24-.2,1.17,1.17,0,0,1-.07-.38l-.64-10.41a3.11,3.11,0,0,1,0-.47.32.32,0,0,1,.15-.26.71.71,0,0,1,.38-.11,6.78,6.78,0,0,1,.71,0,5.83,5.83,0,0,1,.63,0,1.08,1.08,0,0,1,.38.08.26.26,0,0,1,.15.16,1,1,0,0,1,0,.27l.24,9h0l4-9a1,1,0,0,1,.16-.28.61.61,0,0,1,.24-.17,1.86,1.86,0,0,1,.41-.08h1.34a1.37,1.37,0,0,1,.38.08.29.29,0,0,1,.16.17,1,1,0,0,1,.05.29l.46,9h0l3.9-9.13a.66.66,0,0,1,.12-.22.47.47,0,0,1,.23-.13,2.43,2.43,0,0,1,.41-.07h.65a4.88,4.88,0,0,1,.62,0,.47.47,0,0,1,.31.13.36.36,0,0,1,0,.3,4.28,4.28,0,0,1-.2.52Z"/><path class="cls-2" d="M200,17.48a3.88,3.88,0,0,1,0,.52.32.32,0,0,1-.13.29.86.86,0,0,1-.4.12l-.78,0h-.57a1.92,1.92,0,0,1-.34-.05.29.29,0,0,1-.16-.11.52.52,0,0,1-.06-.2l-.32-2.38h-4.45L191.65,18a1.39,1.39,0,0,1-.15.22.68.68,0,0,1-.24.13,1.9,1.9,0,0,1-.42.06,6.13,6.13,0,0,1-.65,0,5.62,5.62,0,0,1-.66,0,.43.43,0,0,1-.31-.13.34.34,0,0,1,0-.3,2.84,2.84,0,0,1,.23-.51L195.19,7a1.35,1.35,0,0,1,.18-.25.71.71,0,0,1,.26-.15,2.35,2.35,0,0,1,.46-.06h1.61a2.6,2.6,0,0,1,.49.06.42.42,0,0,1,.23.15.67.67,0,0,1,.07.28Zm-3.6-8.69h0l-2.64,5h3.33Z"/><path class="cls-2" d="M215.49,7.79a2.18,2.18,0,0,1,0,.24c0,.1,0,.2,0,.32s-.05.22-.08.34a2.09,2.09,0,0,1-.11.3,1.54,1.54,0,0,1-.14.23.22.22,0,0,1-.17.08.85.85,0,0,1-.38-.15,5.81,5.81,0,0,0-1.6-.7,5.35,5.35,0,0,0-1.35-.15,4.27,4.27,0,0,0-1.42.22,4.49,4.49,0,0,0-1.19.62,4.27,4.27,0,0,0-.94.91,5.7,5.7,0,0,0-.69,1.13,6,6,0,0,0-.42,1.26,6.25,6.25,0,0,0-.13,1.28A3.31,3.31,0,0,0,207,15a2.3,2.3,0,0,0,.58.89,2.41,2.41,0,0,0,.92.54,3.8,3.8,0,0,0,1.21.18,4.31,4.31,0,0,0,.88-.09,3.43,3.43,0,0,0,.82-.27l.55-2.74h-2.23a.2.2,0,0,1-.18-.09.48.48,0,0,1-.06-.28,1,1,0,0,1,0-.23c0-.1,0-.2.05-.31s0-.22.07-.33a1.26,1.26,0,0,1,.12-.29.8.8,0,0,1,.15-.21.27.27,0,0,1,.18-.08h4a.47.47,0,0,1,.43.2.74.74,0,0,1,.06.57l-1,4.74a1.75,1.75,0,0,1-.1.3.74.74,0,0,1-.14.22,1.5,1.5,0,0,1-.47.26,8.32,8.32,0,0,1-.89.3,10.09,10.09,0,0,1-1.18.25,9.56,9.56,0,0,1-1.33.1,8,8,0,0,1-2.24-.29,4.28,4.28,0,0,1-1.62-.88,3.78,3.78,0,0,1-1-1.42,5.29,5.29,0,0,1-.33-1.94,8.94,8.94,0,0,1,.21-1.94,7.94,7.94,0,0,1,.64-1.81,8.42,8.42,0,0,1,1.05-1.59,6.75,6.75,0,0,1,1.46-1.25,7,7,0,0,1,1.84-.83,7.86,7.86,0,0,1,2.23-.3,7.23,7.23,0,0,1,1.26.1,8.4,8.4,0,0,1,1.07.26,4.27,4.27,0,0,1,.79.33,2,2,0,0,1,.43.27.49.49,0,0,1,.14.21A1.23,1.23,0,0,1,215.49,7.79Z"/><path class="cls-2" d="M112.61,23.66q-.09.39-.18.66a2,2,0,0,1-.2.44A.74.74,0,0,1,112,25a.46.46,0,0,1-.24.08h-4.29L104.4,38.9a.49.49,0,0,1-.14.24.74.74,0,0,1-.32.17,3.07,3.07,0,0,1-.56.11c-.23,0-.52,0-.85,0s-.62,0-.84,0a2.2,2.2,0,0,1-.51-.11.42.42,0,0,1-.24-.17.29.29,0,0,1,0-.24L104,25.08H99.69a.29.29,0,0,1-.21-.08.45.45,0,0,1-.1-.24,1.6,1.6,0,0,1,0-.44,5.63,5.63,0,0,1,.11-.66,5.11,5.11,0,0,1,.19-.67,2,2,0,0,1,.19-.45.68.68,0,0,1,.21-.23.46.46,0,0,1,.25-.08h12.08a.28.28,0,0,1,.2.08.34.34,0,0,1,.12.23,2.22,2.22,0,0,1,0,.45A6.06,6.06,0,0,1,112.61,23.66Z"/><path class="cls-2" d="M127.34,38.93a.59.59,0,0,1-.11.24.56.56,0,0,1-.28.17,3.48,3.48,0,0,1-.61.09q-.39,0-1,0c-.37,0-.67,0-.88,0a1.67,1.67,0,0,1-.5-.1.4.4,0,0,1-.23-.18,1,1,0,0,1-.08-.28L122.92,35a11.3,11.3,0,0,0-.29-1.15,2.73,2.73,0,0,0-.4-.84,1.66,1.66,0,0,0-.63-.51,2.39,2.39,0,0,0-.94-.17h-1.09l-1.46,6.53a.43.43,0,0,1-.14.24.74.74,0,0,1-.32.17,3,3,0,0,1-.55.11c-.23,0-.52,0-.86,0s-.61,0-.83,0a2.44,2.44,0,0,1-.52-.11.42.42,0,0,1-.24-.17.38.38,0,0,1,0-.24l3.47-15.57a1.35,1.35,0,0,1,.49-.84,1.31,1.31,0,0,1,.79-.26h4.44c.45,0,.82,0,1.1,0l.78.07a5.72,5.72,0,0,1,1.75.5,3.33,3.33,0,0,1,1.2.93,3,3,0,0,1,.58,1.37,5,5,0,0,1-.1,1.81,6.5,6.5,0,0,1-.57,1.57,5.27,5.27,0,0,1-.93,1.26,5.86,5.86,0,0,1-1.26,1,7.54,7.54,0,0,1-1.56.66,3.38,3.38,0,0,1,.62.45,2.93,2.93,0,0,1,.49.64,4.65,4.65,0,0,1,.37.87,8.19,8.19,0,0,1,.28,1.09l.68,3.38c.06.33.1.58.11.73A1.34,1.34,0,0,1,127.34,38.93Zm-1.9-11.64a2.27,2.27,0,0,0-.06-1.43A1.55,1.55,0,0,0,124.3,25a3.93,3.93,0,0,0-.57-.1,7.51,7.51,0,0,0-.93,0h-1.56l-1.09,4.86h1.78a4.67,4.67,0,0,0,1.34-.18,3.72,3.72,0,0,0,1-.5,3,3,0,0,0,.72-.78A2.83,2.83,0,0,0,125.44,27.29Z"/><path class="cls-2" d="M147.52,38.08a3.4,3.4,0,0,1,0,.75.56.56,0,0,1-.19.42,1.09,1.09,0,0,1-.56.17,9.31,9.31,0,0,1-1,0l-1.05,0a2.72,2.72,0,0,1-.55-.08.41.41,0,0,1-.25-.17.88.88,0,0,1-.07-.28l-.38-3.44H137l-1.83,3.35a2.08,2.08,0,0,1-.21.31.77.77,0,0,1-.33.2,2.18,2.18,0,0,1-.56.1q-.36,0-.93,0c-.4,0-.72,0-.94,0a.57.57,0,0,1-.44-.2.49.49,0,0,1,0-.43,5.26,5.26,0,0,1,.36-.74l8.68-15.21a1.87,1.87,0,0,1,.27-.36.74.74,0,0,1,.38-.21,3.3,3.3,0,0,1,.67-.1l1.09,0,1.24,0a3.31,3.31,0,0,1,.7.1.49.49,0,0,1,.32.21,1,1,0,0,1,.1.4ZM142.46,25.5h0l-4,7.29h4.86Z"/><path class="cls-2" d="M166.59,34.24a6,6,0,0,1-.63,1.65,5.61,5.61,0,0,1-1,1.31,6.12,6.12,0,0,1-1.28,1,7.91,7.91,0,0,1-1.51.68,9.23,9.23,0,0,1-1.67.39,12.56,12.56,0,0,1-1.91.13h-4.55a.77.77,0,0,1-.79-1.1l3.33-15a1.27,1.27,0,0,1,1.28-1.1h4.31a10.56,10.56,0,0,1,2.61.27,4,4,0,0,1,1.66.8,2.58,2.58,0,0,1,.84,1.36,4,4,0,0,1,0,1.93,4.52,4.52,0,0,1-.42,1.17,4.86,4.86,0,0,1-1.61,1.8,5.49,5.49,0,0,1-1.14.56,3.54,3.54,0,0,1,1.24.46,2.75,2.75,0,0,1,.88.85,3,3,0,0,1,.45,1.23A4.33,4.33,0,0,1,166.59,34.24Zm-3.65.12a2.62,2.62,0,0,0,0-1.07,1.51,1.51,0,0,0-.41-.79,2.14,2.14,0,0,0-.87-.49,5.46,5.46,0,0,0-1.51-.17h-2.07L157,36.71h2.51a4.63,4.63,0,0,0,1.26-.15,3,3,0,0,0,1-.45,2.74,2.74,0,0,0,.74-.74A2.86,2.86,0,0,0,162.94,34.36Zm.75-7.34a2.51,2.51,0,0,0,.05-.93,1.21,1.21,0,0,0-.33-.68,1.56,1.56,0,0,0-.7-.42,4.24,4.24,0,0,0-1.26-.15h-1.77l-1,4.45h1.95a3.9,3.9,0,0,0,1.24-.17,2.88,2.88,0,0,0,.86-.49,2.83,2.83,0,0,0,.61-.73A3.27,3.27,0,0,0,163.69,27Z"/><path class="cls-2" d="M185.69,38.08a4.35,4.35,0,0,1,0,.75.6.6,0,0,1-.2.42,1.09,1.09,0,0,1-.56.17,9.31,9.31,0,0,1-1,0l-1.05,0a2.72,2.72,0,0,1-.55-.08.41.41,0,0,1-.25-.17.88.88,0,0,1-.07-.28l-.38-3.44H175.2l-1.83,3.35a2.08,2.08,0,0,1-.21.31.8.8,0,0,1-.32.2,2.36,2.36,0,0,1-.57.1q-.36,0-.93,0c-.4,0-.72,0-.94,0a.57.57,0,0,1-.44-.2.49.49,0,0,1,0-.43,6.69,6.69,0,0,1,.36-.74L179,22.84a1.87,1.87,0,0,1,.27-.36.74.74,0,0,1,.38-.21,3.3,3.3,0,0,1,.67-.1l1.09,0,1.24,0a3.31,3.31,0,0,1,.7.1.49.49,0,0,1,.32.21,1,1,0,0,1,.1.4ZM180.63,25.5h0l-4.05,7.29h4.86Z"/><path class="cls-2" d="M204.68,38.9a.43.43,0,0,1-.14.24.74.74,0,0,1-.32.17,3,3,0,0,1-.55.11c-.23,0-.51,0-.85,0s-.62,0-.84,0a2.2,2.2,0,0,1-.51-.11.42.42,0,0,1-.24-.17.33.33,0,0,1,0-.24L202.75,32h-6.42l-1.54,6.93a.49.49,0,0,1-.14.24.65.65,0,0,1-.31.17,3.07,3.07,0,0,1-.56.11c-.22,0-.51,0-.85,0s-.62,0-.84,0a2.33,2.33,0,0,1-.51-.11.48.48,0,0,1-.25-.17.33.33,0,0,1,0-.24l3.61-16.19a.49.49,0,0,1,.14-.24.79.79,0,0,1,.33-.17,2.91,2.91,0,0,1,.56-.11c.23,0,.51,0,.85,0s.62,0,.84,0a2.22,2.22,0,0,1,.5.11.36.36,0,0,1,.24.17.33.33,0,0,1,0,.24L197,29h6.42l1.4-6.29a.49.49,0,0,1,.14-.24.74.74,0,0,1,.32-.17,2.64,2.64,0,0,1,.55-.11c.23,0,.52,0,.86,0s.61,0,.83,0a2.47,2.47,0,0,1,.51.11.42.42,0,0,1,.24.17.38.38,0,0,1,0,.24Z"/><path class="cls-2" d="M229.08,30.61a14.3,14.3,0,0,1-1.38,3.81,10.4,10.4,0,0,1-2.21,2.86,9.34,9.34,0,0,1-3,1.79,10.74,10.74,0,0,1-3.71.61,9.47,9.47,0,0,1-3.37-.52,4.41,4.41,0,0,1-2.13-1.6,5.33,5.33,0,0,1-.88-2.73,13.29,13.29,0,0,1,.38-3.92,14,14,0,0,1,1.36-3.74,10.41,10.41,0,0,1,2.21-2.83,9.34,9.34,0,0,1,3-1.79,10.75,10.75,0,0,1,3.72-.62,9.54,9.54,0,0,1,3.32.51A4.54,4.54,0,0,1,228.53,24a5.46,5.46,0,0,1,.91,2.71A13.19,13.19,0,0,1,229.08,30.61Zm-3.69.18a13.06,13.06,0,0,0,.33-2.46,4.25,4.25,0,0,0-.3-1.89,2.47,2.47,0,0,0-1.08-1.22,4.06,4.06,0,0,0-2-.43,5,5,0,0,0-2.25.48,5.5,5.5,0,0,0-1.68,1.3,7,7,0,0,0-1.17,1.88,13,13,0,0,0-.73,2.29,13.29,13.29,0,0,0-.35,2.52,4.68,4.68,0,0,0,.29,1.92,2.41,2.41,0,0,0,1.08,1.21,4.19,4.19,0,0,0,2,.42,5,5,0,0,0,2.25-.48,5.2,5.2,0,0,0,1.68-1.3,7.22,7.22,0,0,0,1.18-1.91A14.09,14.09,0,0,0,225.39,30.79Z"/><path class="cls-2" d="M200,51a6.42,6.42,0,0,1-.72,2,4.72,4.72,0,0,1-1.21,1.44,4.94,4.94,0,0,1-1.66.86,7,7,0,0,1-2.07.29,6.29,6.29,0,0,1-2.07-.3,3,3,0,0,1-1.37-.88,2.92,2.92,0,0,1-.65-1.47,5.6,5.6,0,0,1,.09-2l1.41-7a.29.29,0,0,1,.09-.16.45.45,0,0,1,.22-.12,1.62,1.62,0,0,1,.38-.07,4.8,4.8,0,0,1,.59,0,4.73,4.73,0,0,1,.58,0,1.26,1.26,0,0,1,.35.07.26.26,0,0,1,.17.12.22.22,0,0,1,0,.16l-1.41,7a3.83,3.83,0,0,0-.09,1.22,1.91,1.91,0,0,0,.31.85,1.37,1.37,0,0,0,.66.49,2.61,2.61,0,0,0,1,.16,3.16,3.16,0,0,0,1.09-.18,2.45,2.45,0,0,0,.88-.52,3.18,3.18,0,0,0,.66-.83,4.19,4.19,0,0,0,.4-1.13l1.41-7.09a.51.51,0,0,1,.09-.16.53.53,0,0,1,.21-.12,1.62,1.62,0,0,1,.38-.07,4.91,4.91,0,0,1,.59,0,4.45,4.45,0,0,1,.57,0,1.26,1.26,0,0,1,.34.07.26.26,0,0,1,.17.12.22.22,0,0,1,0,.16Z"/><path class="cls-2" d="M214.33,46.39a5.08,5.08,0,0,1-.12,1.07,4.53,4.53,0,0,1-.37,1.09,4.67,4.67,0,0,1-.66,1,4.4,4.4,0,0,1-1,.85,4.88,4.88,0,0,1-1.37.58,6.65,6.65,0,0,1-1.83.22h-1.24L207,55a.26.26,0,0,1-.09.16.49.49,0,0,1-.23.12,1.71,1.71,0,0,1-.39.07,5.07,5.07,0,0,1-.59,0,4.62,4.62,0,0,1-.56,0,1.26,1.26,0,0,1-.35-.07.33.33,0,0,1-.17-.11.17.17,0,0,1,0-.17l2.13-10.67a1,1,0,0,1,.36-.64,1.08,1.08,0,0,1,.67-.22h2.59c.32,0,.61,0,.86,0a6.26,6.26,0,0,1,.74.1,3.8,3.8,0,0,1,1,.34,2.57,2.57,0,0,1,.76.57,2.5,2.5,0,0,1,.47.81A3.12,3.12,0,0,1,214.33,46.39Zm-2.54.27a1.35,1.35,0,0,0-.21-.76,1.16,1.16,0,0,0-.65-.45,1.83,1.83,0,0,0-.43-.08,4.33,4.33,0,0,0-.53,0h-1.06l-.79,4h1.1a2.9,2.9,0,0,0,.89-.12,2.21,2.21,0,0,0,.65-.33,2,2,0,0,0,.48-.47,3.68,3.68,0,0,0,.32-.58,3.28,3.28,0,0,0,.18-.61A4,4,0,0,0,211.79,46.66Z"/><path class="cls-2" d="M228.49,47.77a9.6,9.6,0,0,1-.07,1.16,8,8,0,0,1-.23,1.25,7.5,7.5,0,0,1-.43,1.26,6.34,6.34,0,0,1-1.63,2.27,6.15,6.15,0,0,1-1.27.86,7.62,7.62,0,0,1-1.63.56,10.45,10.45,0,0,1-2.16.2h-3a.9.9,0,0,1-.28,0,.4.4,0,0,1-.21-.12.46.46,0,0,1-.12-.23.78.78,0,0,1,0-.37l2.07-10.33a.88.88,0,0,1,.32-.58,1,1,0,0,1,.59-.18h2.85a8.72,8.72,0,0,1,2.36.28,4.15,4.15,0,0,1,1.58.81,3.26,3.26,0,0,1,.95,1.35A5,5,0,0,1,228.49,47.77Zm-2.53.28a3.69,3.69,0,0,0-.15-1.07,2.11,2.11,0,0,0-.51-.85,2.42,2.42,0,0,0-.89-.56,4.42,4.42,0,0,0-1.46-.2H221.7l-1.62,8.06h1.26a4.77,4.77,0,0,0,1.62-.24,3.79,3.79,0,0,0,1.15-.64,4,4,0,0,0,.85-.94,5.49,5.49,0,0,0,.58-1.13,5.77,5.77,0,0,0,.32-1.22A7.22,7.22,0,0,0,226,48.05Z"/><path class="cls-2" d="M241.47,54.43a2.8,2.8,0,0,1,0,.53.34.34,0,0,1-.12.28.71.71,0,0,1-.41.12c-.19,0-.45,0-.78,0h-.57a1.37,1.37,0,0,1-.34,0,.24.24,0,0,1-.16-.11.52.52,0,0,1-.06-.2l-.32-2.38H234.3L233.08,55a1.13,1.13,0,0,1-.15.21.46.46,0,0,1-.24.13,2.63,2.63,0,0,1-.41.07h-.66a5.75,5.75,0,0,1-.65,0,.43.43,0,0,1-.31-.14.31.31,0,0,1,0-.29,3.32,3.32,0,0,1,.23-.51l5.75-10.51a1.46,1.46,0,0,1,.18-.26.59.59,0,0,1,.26-.14,1.78,1.78,0,0,1,.46-.07h1.61a1.83,1.83,0,0,1,.49.07.31.31,0,0,1,.23.15.86.86,0,0,1,.08.27Zm-3.6-8.68h0l-2.65,5h3.33Z"/><path class="cls-2" d="M254.4,43.87a1.72,1.72,0,0,1,0,.2c0,.1,0,.2,0,.32s-.05.24-.08.36a1.8,1.8,0,0,1-.12.35,1.2,1.2,0,0,1-.16.25.29.29,0,0,1-.21.1h-3L248.89,55a.42.42,0,0,1-.1.17.61.61,0,0,1-.23.11,2.25,2.25,0,0,1-.38.08,5.07,5.07,0,0,1-.59,0,5,5,0,0,1-.58,0,1.67,1.67,0,0,1-.35-.08.3.3,0,0,1-.16-.11.25.25,0,0,1,0-.17l1.91-9.55h-2.95a.2.2,0,0,1-.19-.1.68.68,0,0,1-.05-.27s0-.12,0-.22a2.14,2.14,0,0,1,0-.32c0-.12.05-.24.08-.36a2.84,2.84,0,0,1,.13-.35,1,1,0,0,1,.16-.25.3.3,0,0,1,.2-.1h8.35a.18.18,0,0,1,.17.11A.53.53,0,0,1,254.4,43.87Z"/><path class="cls-2" d="M265.59,43.83s0,.1,0,.19,0,.2-.05.31a2.41,2.41,0,0,1-.07.35,2.27,2.27,0,0,1-.11.34.92.92,0,0,1-.17.25.26.26,0,0,1-.2.1h-4.23l-.59,2.89h3.59a.19.19,0,0,1,.18.09.5.5,0,0,1,.06.26s0,.11,0,.2,0,.19,0,.3,0,.23-.07.34a1.33,1.33,0,0,1-.12.32.6.6,0,0,1-.16.24.27.27,0,0,1-.2.09H259.8l-.67,3.34h4.28a.21.21,0,0,1,.17.1.67.67,0,0,1,.05.28,1.72,1.72,0,0,1,0,.2c0,.09,0,.19,0,.31s-.05.22-.08.34a2.55,2.55,0,0,1-.11.33.91.91,0,0,1-.16.24.29.29,0,0,1-.21.09h-5.95a.77.77,0,0,1-.27,0,.46.46,0,0,1-.2-.14.53.53,0,0,1-.1-.24.79.79,0,0,1,0-.34l2.07-10.33a.86.86,0,0,1,.88-.76h5.89C265.51,43.48,265.59,43.6,265.59,43.83Z"/></g><path class="cls-2" d="M74.66,7.65a5.27,5.27,0,0,1-.12,1.09,4.56,4.56,0,0,1-.38,1.11,4.65,4.65,0,0,1-.67,1,4.29,4.29,0,0,1-1,.86,5,5,0,0,1-1.39.59,6.75,6.75,0,0,1-1.85.22H68l-.77,3.84a.32.32,0,0,1-.09.17.49.49,0,0,1-.23.12,3,3,0,0,1-.4.07,5.16,5.16,0,0,1-.59,0,4.71,4.71,0,0,1-.57,0,2.08,2.08,0,0,1-.36-.07.32.32,0,0,1-.18-.12.23.23,0,0,1,0-.17L66.94,5.58a1,1,0,0,1,.36-.65A1.09,1.09,0,0,1,68,4.71h2.63c.32,0,.61,0,.86,0s.51.06.75.11a4.21,4.21,0,0,1,1,.34,2.67,2.67,0,0,1,.77.59,2.35,2.35,0,0,1,.48.81A3.18,3.18,0,0,1,74.66,7.65Zm-2.57.28a1.39,1.39,0,0,0-.22-.77,1.11,1.11,0,0,0-.66-.45,1.43,1.43,0,0,0-.43-.09,4.52,4.52,0,0,0-.54,0H69.16l-.79,4.07h1.11a2.67,2.67,0,0,0,.9-.13,2.27,2.27,0,0,0,.66-.33,1.83,1.83,0,0,0,.48-.48,2.4,2.4,0,0,0,.33-.58A3.62,3.62,0,0,0,72,8.53,3.21,3.21,0,0,0,72.09,7.93Z"/><path class="cls-2" d="M87,5.07a1.67,1.67,0,0,1,0,.19c0,.09,0,.2,0,.31s0,.23-.08.36a3.38,3.38,0,0,1-.11.34.92.92,0,0,1-.17.25.26.26,0,0,1-.21.1H82.12l-.6,2.94h3.64a.18.18,0,0,1,.18.09.48.48,0,0,1,.06.26,1.72,1.72,0,0,1,0,.2c0,.09,0,.19,0,.3a2.17,2.17,0,0,1-.07.35,1.61,1.61,0,0,1-.12.33.72.72,0,0,1-.16.24.28.28,0,0,1-.2.09H81.16l-.69,3.39h4.35a.17.17,0,0,1,.16.09.57.57,0,0,1,.06.29,1.72,1.72,0,0,1,0,.2c0,.09,0,.2,0,.31s0,.23-.08.35a1.61,1.61,0,0,1-.12.33.72.72,0,0,1-.16.24.26.26,0,0,1-.21.1h-6a1.1,1.1,0,0,1-.27,0,.48.48,0,0,1-.2-.14.66.66,0,0,1-.11-.24,1,1,0,0,1,0-.35l2.1-10.47a.88.88,0,0,1,.33-.59.94.94,0,0,1,.56-.18h6Q87,4.71,87,5.07Z"/><path class="cls-2" d="M98.06,5.63s0,.12,0,.21,0,.2,0,.31,0,.22-.07.34a2.26,2.26,0,0,1-.1.31.89.89,0,0,1-.14.24.19.19,0,0,1-.15.09A.64.64,0,0,1,97.21,7a5.15,5.15,0,0,0-.48-.25,3.81,3.81,0,0,0-.66-.25,2.84,2.84,0,0,0-.86-.12,2.32,2.32,0,0,0-.85.14,1.65,1.65,0,0,0-.57.37,1.4,1.4,0,0,0-.33.51,1.65,1.65,0,0,0-.11.57,1.07,1.07,0,0,0,.17.59,2,2,0,0,0,.45.47,4.59,4.59,0,0,0,.63.42l.72.43a8.46,8.46,0,0,1,.73.49,3,3,0,0,1,.63.61,2.72,2.72,0,0,1,.45.8,3,3,0,0,1,.17,1,3.69,3.69,0,0,1-.36,1.62,3.79,3.79,0,0,1-1,1.3,4.71,4.71,0,0,1-1.56.87,6.22,6.22,0,0,1-2,.31,5.52,5.52,0,0,1-1.11-.1,6.35,6.35,0,0,1-.91-.23,4.14,4.14,0,0,1-.66-.3,1.53,1.53,0,0,1-.4-.29.57.57,0,0,1-.13-.42s0-.12,0-.22,0-.2,0-.32,0-.23.08-.35a2.55,2.55,0,0,1,.11-.33.89.89,0,0,1,.14-.24.24.24,0,0,1,.18-.09.66.66,0,0,1,.37.14c.15.1.33.2.54.32a6.41,6.41,0,0,0,.77.32,3.75,3.75,0,0,0,1.07.14,2.78,2.78,0,0,0,1-.14,1.77,1.77,0,0,0,.69-.38,1.43,1.43,0,0,0,.42-.56,1.6,1.6,0,0,0,.15-.7,1.08,1.08,0,0,0-.17-.6,2.18,2.18,0,0,0-.44-.48,5.13,5.13,0,0,0-.62-.41l-.71-.42c-.24-.15-.48-.31-.71-.48a3.25,3.25,0,0,1-.62-.61,2.94,2.94,0,0,1-.44-.8,3.1,3.1,0,0,1-.17-1.06,3.58,3.58,0,0,1,.33-1.54,3.81,3.81,0,0,1,.93-1.21,4.35,4.35,0,0,1,1.42-.79,5.56,5.56,0,0,1,1.82-.28A5.91,5.91,0,0,1,97,4.74a5.1,5.1,0,0,1,.59.24,1.66,1.66,0,0,1,.33.22.62.62,0,0,1,.14.19A.75.75,0,0,1,98.06,5.63Z"/><path class="cls-2" d="M113.33,8.73a10.87,10.87,0,0,1-.15,1.74,10.28,10.28,0,0,1-.48,1.85,8.58,8.58,0,0,1-.87,1.74,6.08,6.08,0,0,1-3.11,2.49,7.75,7.75,0,0,1-4.35.13,3.81,3.81,0,0,1-1.45-.77A3.28,3.28,0,0,1,102,14.6a5.16,5.16,0,0,1-.3-1.85,11.87,11.87,0,0,1,.15-1.83,10.24,10.24,0,0,1,.5-1.86,8.37,8.37,0,0,1,.88-1.74,6.8,6.8,0,0,1,1.32-1.46,5.8,5.8,0,0,1,1.8-1,6.84,6.84,0,0,1,2.34-.37,7,7,0,0,1,2,.25,3.71,3.71,0,0,1,1.44.78A3.29,3.29,0,0,1,113,6.86,5.28,5.28,0,0,1,113.33,8.73ZM110.75,9a3.56,3.56,0,0,0-.13-1,1.81,1.81,0,0,0-.4-.78,1.84,1.84,0,0,0-.73-.49,3.51,3.51,0,0,0-2.52.14,3.68,3.68,0,0,0-1.06.82,4.28,4.28,0,0,0-.76,1.14,8.38,8.38,0,0,0-.5,1.31,8.93,8.93,0,0,0-.26,1.29,9.63,9.63,0,0,0-.08,1.11,3.68,3.68,0,0,0,.13,1,1.72,1.72,0,0,0,1.14,1.24,3.24,3.24,0,0,0,1.11.17,3,3,0,0,0,1.41-.31,3.62,3.62,0,0,0,1.06-.8,4.51,4.51,0,0,0,.75-1.14,7.92,7.92,0,0,0,.5-1.3,8.67,8.67,0,0,0,.26-1.29A9.64,9.64,0,0,0,110.75,9Z"/><path class="cls-2" d="M133.59,7.29a3.4,3.4,0,0,1-.15,1,3.45,3.45,0,0,1-.44.88,3.57,3.57,0,0,1-.7.7,3.33,3.33,0,0,1-.91.49,2.6,2.6,0,0,1,.74.26,1.91,1.91,0,0,1,.58.47,2.09,2.09,0,0,1,.38.67,2.65,2.65,0,0,1,.13.87,3.81,3.81,0,0,1-.49,1.83,4.44,4.44,0,0,1-.67.86,4.17,4.17,0,0,1-1,.71,5.27,5.27,0,0,1-1.34.49,7.63,7.63,0,0,1-1.76.18h-3.29a.67.67,0,0,1-.54-.19A.58.58,0,0,1,124,16l2.07-10.33a.85.85,0,0,1,.32-.58,1,1,0,0,1,.58-.18h2.85a7.74,7.74,0,0,1,1.63.15,3.45,3.45,0,0,1,1.15.44,2,2,0,0,1,.71.75A2.27,2.27,0,0,1,133.59,7.29Zm-2.89,5.48a1.09,1.09,0,0,0-.43-.92,2.24,2.24,0,0,0-1.39-.34h-1.6l-.67,3.37h1.7a2.75,2.75,0,0,0,1.1-.19,2.24,2.24,0,0,0,.73-.47,1.89,1.89,0,0,0,.42-.67A2.14,2.14,0,0,0,130.7,12.77Zm.41-5a1.06,1.06,0,0,0-.1-.45.86.86,0,0,0-.27-.33,1.4,1.4,0,0,0-.46-.21,2.84,2.84,0,0,0-.71-.08h-1.31l-.62,3.08H129a2.21,2.21,0,0,0,1-.19,1.74,1.74,0,0,0,.64-.48,2,2,0,0,0,.37-.66A2.08,2.08,0,0,0,131.11,7.74Z"/><path class="cls-2" d="M146.89,15.82a3.88,3.88,0,0,1,0,.52.32.32,0,0,1-.13.29.86.86,0,0,1-.4.12l-.78,0h-.57a1.92,1.92,0,0,1-.34-.05.29.29,0,0,1-.16-.11.52.52,0,0,1-.06-.2L144.17,14h-4.45l-1.23,2.32a.93.93,0,0,1-.14.22.55.55,0,0,1-.24.13,1.9,1.9,0,0,1-.42.06,6.13,6.13,0,0,1-.65,0,5.62,5.62,0,0,1-.66,0,.43.43,0,0,1-.31-.13.34.34,0,0,1,0-.3,3.19,3.19,0,0,1,.23-.51L142,5.29a1.8,1.8,0,0,1,.18-.25.71.71,0,0,1,.26-.15,2.35,2.35,0,0,1,.46-.06h1.61a2.6,2.6,0,0,1,.49.06.38.38,0,0,1,.23.16.59.59,0,0,1,.07.27Zm-3.6-8.69h0l-2.64,5H144Z"/><path class="cls-2" d="M158,15.1s0,.11,0,.2,0,.21,0,.33,0,.25-.08.37l-.12.36a1.28,1.28,0,0,1-.16.26.3.3,0,0,1-.21.1h-5.43a1.1,1.1,0,0,1-.27,0,.48.48,0,0,1-.31-.38,1,1,0,0,1,0-.34L153.5,5.19a.27.27,0,0,1,.08-.16.55.55,0,0,1,.23-.12,1.72,1.72,0,0,1,.38-.07,5.07,5.07,0,0,1,.59,0,4.89,4.89,0,0,1,.58,0,1.43,1.43,0,0,1,.36.07.32.32,0,0,1,.17.12.29.29,0,0,1,0,.16L154,14.73h3.74a.19.19,0,0,1,.18.1A.68.68,0,0,1,158,15.1Z"/><path class="cls-2" d="M164.41,16.4a.29.29,0,0,1-.09.16.51.51,0,0,1-.22.12,2.53,2.53,0,0,1-.39.07l-.59,0-.58,0a1.94,1.94,0,0,1-.35-.07.29.29,0,0,1-.17-.12.18.18,0,0,1,0-.16l2.24-11.21a.29.29,0,0,1,.09-.16.55.55,0,0,1,.23-.12,1.72,1.72,0,0,1,.38-.07,8.42,8.42,0,0,1,1.16,0,1.44,1.44,0,0,1,.35.07.32.32,0,0,1,.18.12.29.29,0,0,1,0,.16Z"/><path class="cls-2" d="M182.32,16.12a1,1,0,0,1-.21.35.65.65,0,0,1-.32.2,2.1,2.1,0,0,1-.51.08c-.2,0-.46,0-.77,0s-.6,0-.8,0a1.81,1.81,0,0,1-.48-.07.39.39,0,0,1-.23-.18.71.71,0,0,1-.07-.31L178.5,8.6h0l-3.29,7.52a1.24,1.24,0,0,1-.2.35.6.6,0,0,1-.27.2,1.83,1.83,0,0,1-.48.08c-.2,0-.46,0-.78,0s-.66,0-.88,0a1.94,1.94,0,0,1-.51-.08.38.38,0,0,1-.23-.2,1,1,0,0,1-.07-.38l-.64-10.41a3.34,3.34,0,0,1,0-.47.38.38,0,0,1,.15-.26.75.75,0,0,1,.38-.11,7,7,0,0,1,.71,0,5.83,5.83,0,0,1,.63,0,1,1,0,0,1,.38.08.25.25,0,0,1,.16.16,1,1,0,0,1,0,.27l.24,9h0l4-9a1,1,0,0,1,.16-.28.61.61,0,0,1,.24-.17,1.38,1.38,0,0,1,.41-.07,6.24,6.24,0,0,1,.67,0,6.34,6.34,0,0,1,.67,0,1.05,1.05,0,0,1,.37.07.31.31,0,0,1,.17.17,1.14,1.14,0,0,1,0,.3l.46,9h0l3.89-9.13a.66.66,0,0,1,.12-.22.52.52,0,0,1,.23-.13,1.89,1.89,0,0,1,.41-.06,6.24,6.24,0,0,1,.66,0,5,5,0,0,1,.62,0,.42.42,0,0,1,.3.13.3.3,0,0,1,0,.3c0,.13-.1.3-.19.52Z"/><path class="cls-2" d="M198.56,15.82a3.88,3.88,0,0,1,0,.52.38.38,0,0,1-.13.29.87.87,0,0,1-.41.12l-.78,0h-.56a1.92,1.92,0,0,1-.34-.05.32.32,0,0,1-.17-.11.39.39,0,0,1-.05-.2L195.84,14h-4.45l-1.23,2.32a.71.71,0,0,1-.15.22.47.47,0,0,1-.23.13,2.11,2.11,0,0,1-.42.06,6.13,6.13,0,0,1-.65,0,5.51,5.51,0,0,1-.66,0,.41.41,0,0,1-.31-.13.33.33,0,0,1,0-.3,4.48,4.48,0,0,1,.23-.51L193.7,5.29a1.81,1.81,0,0,1,.19-.25.64.64,0,0,1,.26-.15,2.23,2.23,0,0,1,.45-.06h1.62a2.6,2.6,0,0,1,.49.06.41.41,0,0,1,.23.16.74.74,0,0,1,.07.27ZM195,7.13h0l-2.65,5h3.34Z"/><path class="cls-2" d="M214,6.13a2.09,2.09,0,0,1,0,.24c0,.1,0,.21-.05.32s0,.22-.08.34a1.33,1.33,0,0,1-.11.3.82.82,0,0,1-.14.23.21.21,0,0,1-.16.09.85.85,0,0,1-.38-.16c-.17-.1-.38-.22-.64-.35a6.29,6.29,0,0,0-1-.35,5.21,5.21,0,0,0-1.34-.15,4.33,4.33,0,0,0-1.43.22,4.43,4.43,0,0,0-1.18.62,4.56,4.56,0,0,0-1,.91,5.65,5.65,0,0,0-.68,1.13,5.49,5.49,0,0,0-.42,1.26,6.27,6.27,0,0,0-.14,1.28,3.52,3.52,0,0,0,.2,1.23,2.41,2.41,0,0,0,.58.89,2.49,2.49,0,0,0,.92.54,3.84,3.84,0,0,0,1.21.18,4.41,4.41,0,0,0,.89-.09,3.76,3.76,0,0,0,.82-.27l.54-2.74h-2.23a.2.2,0,0,1-.17-.09.4.4,0,0,1-.07-.27c0-.07,0-.14,0-.24s0-.2.05-.31,0-.21.08-.32a2.09,2.09,0,0,1,.11-.3,1.16,1.16,0,0,1,.16-.21.25.25,0,0,1,.18-.08h4a.49.49,0,0,1,.43.2.8.8,0,0,1,0,.57l-.95,4.74a1.07,1.07,0,0,1-.09.3.66.66,0,0,1-.15.22,1.25,1.25,0,0,1-.46.26,9.44,9.44,0,0,1-.9.3,10.35,10.35,0,0,1-1.17.25,8.42,8.42,0,0,1-1.33.1,7.91,7.91,0,0,1-2.24-.29,4.33,4.33,0,0,1-1.63-.88,3.87,3.87,0,0,1-1-1.42,5.09,5.09,0,0,1-.34-1.94,8.36,8.36,0,0,1,.22-1.94,7.87,7.87,0,0,1,1.69-3.4,6.52,6.52,0,0,1,1.46-1.25A6.85,6.85,0,0,1,208.06,5a7.84,7.84,0,0,1,2.22-.3,7.32,7.32,0,0,1,1.27.11,8.3,8.3,0,0,1,1.06.25,4.4,4.4,0,0,1,.8.33,1.9,1.9,0,0,1,.42.27.41.41,0,0,1,.14.21A.85.85,0,0,1,214,6.13Z"/><path class="cls-2" d="M111.12,22a3.85,3.85,0,0,1-.18.66,2.06,2.06,0,0,1-.19.44.87.87,0,0,1-.22.24.38.38,0,0,1-.24.08H106l-3.08,13.82a.49.49,0,0,1-.14.24.85.85,0,0,1-.33.17,2.91,2.91,0,0,1-.56.11c-.23,0-.51,0-.85,0s-.61,0-.83,0a2.2,2.2,0,0,1-.51-.11.41.41,0,0,1-.25-.17.33.33,0,0,1,0-.24l3.08-13.82H98.21a.25.25,0,0,1-.21-.08.54.54,0,0,1-.11-.24,3.18,3.18,0,0,1,0-.44A5.94,5.94,0,0,1,98,22c.06-.26.12-.49.18-.67a2.14,2.14,0,0,1,.2-.45.68.68,0,0,1,.21-.23.41.41,0,0,1,.24-.08h12.09a.3.3,0,0,1,.2.08.38.38,0,0,1,.11.23,1.67,1.67,0,0,1,0,.45A6.06,6.06,0,0,1,111.12,22Z"/><path class="cls-2" d="M125.86,37.27a.59.59,0,0,1-.11.24.6.6,0,0,1-.29.17,3.21,3.21,0,0,1-.6.09c-.26,0-.61,0-1.06,0s-.66,0-.88,0a1.82,1.82,0,0,1-.5-.1.44.44,0,0,1-.23-.18.77.77,0,0,1-.07-.27l-.68-3.84c-.09-.43-.19-.81-.29-1.15a3,3,0,0,0-.4-.84,1.69,1.69,0,0,0-.64-.51,2.36,2.36,0,0,0-.94-.17h-1.09l-1.45,6.53a.49.49,0,0,1-.14.24.74.74,0,0,1-.32.17,3.07,3.07,0,0,1-.56.11c-.23,0-.51,0-.86,0s-.61,0-.83,0a2.2,2.2,0,0,1-.51-.11.42.42,0,0,1-.24-.17.33.33,0,0,1,0-.24l3.48-15.57a1.3,1.3,0,0,1,.48-.84,1.34,1.34,0,0,1,.79-.26h4.44q.67,0,1.11,0l.78.07a5.8,5.8,0,0,1,1.75.5,3.33,3.33,0,0,1,1.2.93,3,3,0,0,1,.57,1.37,4.57,4.57,0,0,1-.1,1.81,6.09,6.09,0,0,1-.56,1.57,5.56,5.56,0,0,1-.93,1.26,6,6,0,0,1-1.26,1,7.63,7.63,0,0,1-1.57.66,3.18,3.18,0,0,1,.62.45,2.8,2.8,0,0,1,.5.65,4.94,4.94,0,0,1,.37.86,10.22,10.22,0,0,1,.27,1.09l.69,3.38a7,7,0,0,1,.1.73A1.41,1.41,0,0,1,125.86,37.27ZM124,25.63a2.34,2.34,0,0,0-.06-1.43,1.58,1.58,0,0,0-1.08-.82,4.09,4.09,0,0,0-.58-.1,7.51,7.51,0,0,0-.93,0h-1.56l-1.08,4.86h1.77a4.62,4.62,0,0,0,1.34-.18,3.59,3.59,0,0,0,1-.5,2.84,2.84,0,0,0,.73-.78A3,3,0,0,0,124,25.63Z"/><path class="cls-2" d="M146,36.42a4.16,4.16,0,0,1,0,.75.53.53,0,0,1-.2.42,1.05,1.05,0,0,1-.55.17,9.54,9.54,0,0,1-1,0l-1,0a2.72,2.72,0,0,1-.56-.08.42.42,0,0,1-.24-.17.67.67,0,0,1-.07-.28L142,33.81h-6.43l-1.84,3.35a1.05,1.05,0,0,1-.21.31.68.68,0,0,1-.32.2,2.36,2.36,0,0,1-.56.1q-.36,0-.93,0c-.41,0-.72,0-.95,0a.58.58,0,0,1-.43-.19.51.51,0,0,1,0-.44,5.55,5.55,0,0,1,.37-.74l8.68-15.21a1.52,1.52,0,0,1,.26-.36.81.81,0,0,1,.39-.21,3.08,3.08,0,0,1,.66-.1l1.09,0,1.24,0a3.21,3.21,0,0,1,.7.1.51.51,0,0,1,.33.22,1.16,1.16,0,0,1,.1.39ZM141,23.85h0l-4.05,7.28h4.86Z"/><path class="cls-2" d="M165.1,32.58a5.7,5.7,0,0,1-.62,1.65,6,6,0,0,1-1,1.32,6.57,6.57,0,0,1-1.28,1,7.62,7.62,0,0,1-1.51.67,9,9,0,0,1-1.67.39,12.42,12.42,0,0,1-1.9.13h-4.56a.87.87,0,0,1-.67-.26.92.92,0,0,1-.12-.84l3.34-14.95a1.38,1.38,0,0,1,.48-.84,1.36,1.36,0,0,1,.8-.26h4.3a10.56,10.56,0,0,1,2.61.27,4.13,4.13,0,0,1,1.67.8,2.58,2.58,0,0,1,.84,1.36,4.21,4.21,0,0,1,0,1.93,5.69,5.69,0,0,1-.42,1.18,4.94,4.94,0,0,1-.69,1,5.1,5.1,0,0,1-2.06,1.35,3.83,3.83,0,0,1,1.24.46,2.78,2.78,0,0,1,.88.86,3.06,3.06,0,0,1,.45,1.22A4.35,4.35,0,0,1,165.1,32.58Zm-3.64.12a2.62,2.62,0,0,0,0-1.07,1.58,1.58,0,0,0-.41-.79,2.14,2.14,0,0,0-.87-.49,5.51,5.51,0,0,0-1.51-.17h-2.07l-1.09,4.87h2.52a4.68,4.68,0,0,0,1.26-.15,3.25,3.25,0,0,0,1-.45,2.89,2.89,0,0,0,.74-.74A3.05,3.05,0,0,0,161.46,32.7Zm.75-7.34a2.49,2.49,0,0,0,0-.93,1.2,1.2,0,0,0-.32-.68,1.7,1.7,0,0,0-.71-.42,4.15,4.15,0,0,0-1.26-.15H158.2l-1,4.46h1.94a3.67,3.67,0,0,0,1.25-.18,3,3,0,0,0,.86-.49,2.63,2.63,0,0,0,.6-.73A3.17,3.17,0,0,0,162.21,25.36Z"/><path class="cls-2" d="M184.21,36.42a3.4,3.4,0,0,1,0,.75.53.53,0,0,1-.2.42,1.05,1.05,0,0,1-.55.17,9.54,9.54,0,0,1-1,0l-1.05,0a2.72,2.72,0,0,1-.56-.08.42.42,0,0,1-.24-.17.67.67,0,0,1-.07-.28l-.38-3.44h-6.44l-1.84,3.35a1.05,1.05,0,0,1-.21.31.68.68,0,0,1-.32.2,2.36,2.36,0,0,1-.56.1q-.36,0-.93,0c-.41,0-.72,0-1,0a.6.6,0,0,1-.43-.19.51.51,0,0,1,0-.44,5.55,5.55,0,0,1,.37-.74l8.68-15.21a1.52,1.52,0,0,1,.26-.36.81.81,0,0,1,.39-.21,3.08,3.08,0,0,1,.66-.1l1.09,0,1.24,0a3.21,3.21,0,0,1,.7.1.49.49,0,0,1,.33.22,1.16,1.16,0,0,1,.1.39Zm-5.07-12.57h0l-4,7.28h4.86Z"/><path class="cls-2" d="M203.2,37.24a.49.49,0,0,1-.14.24.74.74,0,0,1-.32.17,3.07,3.07,0,0,1-.56.11c-.22,0-.5,0-.84,0s-.63,0-.85,0a2.1,2.1,0,0,1-.5-.11.42.42,0,0,1-.24-.17.33.33,0,0,1,0-.24l1.54-6.93h-6.41l-1.55,6.93a.47.47,0,0,1-.13.24.69.69,0,0,1-.32.17,2.79,2.79,0,0,1-.55.11c-.23,0-.51,0-.86,0s-.61,0-.83,0a2.2,2.2,0,0,1-.51-.11.41.41,0,0,1-.25-.17.33.33,0,0,1,0-.24l3.61-16.19a.43.43,0,0,1,.14-.24.74.74,0,0,1,.32-.17,4,4,0,0,1,.56-.11c.23,0,.52,0,.85,0s.63,0,.84,0a3.11,3.11,0,0,1,.51.11.42.42,0,0,1,.24.17.38.38,0,0,1,0,.24l-1.4,6.29h6.41l1.41-6.29a.43.43,0,0,1,.14-.24.76.76,0,0,1,.31-.17,3.68,3.68,0,0,1,.56-.11c.23,0,.51,0,.86,0s.61,0,.82,0a2.89,2.89,0,0,1,.51.11.44.44,0,0,1,.25.17.33.33,0,0,1,0,.24Z"/><path class="cls-2" d="M227.6,29a15,15,0,0,1-1.38,3.81A10.4,10.4,0,0,1,224,35.62a9.27,9.27,0,0,1-3,1.79,10.74,10.74,0,0,1-3.71.61,9.53,9.53,0,0,1-3.38-.52,4.51,4.51,0,0,1-2.13-1.6,5.42,5.42,0,0,1-.88-2.73,13.63,13.63,0,0,1,.38-3.92,14.18,14.18,0,0,1,1.37-3.74,10.38,10.38,0,0,1,2.2-2.83,9.34,9.34,0,0,1,3-1.79,10.81,10.81,0,0,1,3.73-.62,9.37,9.37,0,0,1,3.32.52A4.34,4.34,0,0,1,227,22.38a5.39,5.39,0,0,1,.91,2.71A12.75,12.75,0,0,1,227.6,29Zm-3.7.18a14,14,0,0,0,.34-2.46,4.58,4.58,0,0,0-.3-1.89,2.53,2.53,0,0,0-1.09-1.22,4,4,0,0,0-2-.43,5,5,0,0,0-2.26.48,5.75,5.75,0,0,0-1.68,1.3,6.7,6.7,0,0,0-1.16,1.88,13,13,0,0,0-.73,2.29,13.4,13.4,0,0,0-.35,2.52,4.69,4.69,0,0,0,.28,1.92A2.38,2.38,0,0,0,216,34.73a4.19,4.19,0,0,0,2,.42,5,5,0,0,0,2.25-.48,5.43,5.43,0,0,0,1.68-1.3,7,7,0,0,0,1.17-1.91A13.21,13.21,0,0,0,223.9,29.13Z"/><path class="cls-2" d="M198.51,49.3a6.84,6.84,0,0,1-.71,2,5,5,0,0,1-1.21,1.43,5,5,0,0,1-1.66.86,6.82,6.82,0,0,1-2.07.29,6.39,6.39,0,0,1-2.08-.3,3.07,3.07,0,0,1-1.37-.88,3,3,0,0,1-.65-1.47,6,6,0,0,1,.09-2l1.42-7a.35.35,0,0,1,.08-.16.51.51,0,0,1,.22-.12,2.53,2.53,0,0,1,.39-.07,4.68,4.68,0,0,1,.59,0,4.45,4.45,0,0,1,.57,0,1.75,1.75,0,0,1,.36.07.29.29,0,0,1,.17.12.18.18,0,0,1,0,.16l-1.41,7a3.74,3.74,0,0,0-.08,1.21,1.8,1.8,0,0,0,.31.85,1.39,1.39,0,0,0,.65.49,2.71,2.71,0,0,0,1,.16,3.51,3.51,0,0,0,1.09-.17,2.72,2.72,0,0,0,.88-.53,3.19,3.19,0,0,0,.65-.83,3.87,3.87,0,0,0,.4-1.13l1.42-7.09a.29.29,0,0,1,.09-.16.42.42,0,0,1,.21-.12,2.18,2.18,0,0,1,.38-.07,4.73,4.73,0,0,1,.58,0,4.45,4.45,0,0,1,.57,0,1.94,1.94,0,0,1,.35.07.32.32,0,0,1,.17.12.22.22,0,0,1,0,.16Z"/><path class="cls-2" d="M212.84,44.73a5.8,5.8,0,0,1-.11,1.07,4.84,4.84,0,0,1-.37,1.09,4.72,4.72,0,0,1-.67,1,4.2,4.2,0,0,1-1,.85,5.12,5.12,0,0,1-1.36.59,7.09,7.09,0,0,1-1.83.21h-1.24l-.76,3.79a.32.32,0,0,1-.09.17.7.7,0,0,1-.23.11,1.36,1.36,0,0,1-.39.07,4.91,4.91,0,0,1-.59,0,4.28,4.28,0,0,1-.56,0,1.09,1.09,0,0,1-.36-.07.32.32,0,0,1-.17-.11.2.2,0,0,1,0-.17l2.14-10.66a1,1,0,0,1,.35-.65,1.1,1.1,0,0,1,.68-.21h2.59c.32,0,.6,0,.85,0a6,6,0,0,1,.74.1,4.13,4.13,0,0,1,1,.34,2.66,2.66,0,0,1,.75.57,2.35,2.35,0,0,1,.48.81A3.13,3.13,0,0,1,212.84,44.73Zm-2.53.27a1.38,1.38,0,0,0-.21-.76,1.2,1.2,0,0,0-.65-.45,1.93,1.93,0,0,0-.43-.08,4.39,4.39,0,0,0-.54,0h-1.06l-.78,4h1.09a3,3,0,0,0,.9-.12,2.34,2.34,0,0,0,.65-.33,2.1,2.1,0,0,0,.47-.47,3,3,0,0,0,.32-.58,2.66,2.66,0,0,0,.18-.61A3,3,0,0,0,210.31,45Z"/><path class="cls-2" d="M227,46.11c0,.37,0,.75-.07,1.16a11.38,11.38,0,0,1-.23,1.25,8.63,8.63,0,0,1-.43,1.27A6.75,6.75,0,0,1,225.6,51a5.61,5.61,0,0,1-.95,1.07,5.85,5.85,0,0,1-1.28.86,6.79,6.79,0,0,1-1.63.56,10.31,10.31,0,0,1-2.16.2h-3a.86.86,0,0,1-.28,0,.43.43,0,0,1-.22-.12.42.42,0,0,1-.12-.23,1,1,0,0,1,0-.37L218,42.59a.92.92,0,0,1,.32-.59,1,1,0,0,1,.59-.17h2.86a8.68,8.68,0,0,1,2.35.27,4.19,4.19,0,0,1,1.59.81,3.35,3.35,0,0,1,.95,1.35A5,5,0,0,1,227,46.11Zm-2.53.28a3.38,3.38,0,0,0-.16-1.07,2.09,2.09,0,0,0-.5-.85,2.42,2.42,0,0,0-.89-.56,4.46,4.46,0,0,0-1.46-.2h-1.26l-1.62,8.06h1.27a4.67,4.67,0,0,0,1.61-.24,3.84,3.84,0,0,0,1.16-.64,4.24,4.24,0,0,0,.85-.94,6,6,0,0,0,.57-1.13,6.47,6.47,0,0,0,.33-1.22A7.22,7.22,0,0,0,224.48,46.39Z"/><path class="cls-2" d="M240,52.77a4,4,0,0,1,0,.53.34.34,0,0,1-.13.28.69.69,0,0,1-.41.12,7.64,7.64,0,0,1-.77,0l-.57,0a1.29,1.29,0,0,1-.34-.05.24.24,0,0,1-.16-.11.36.36,0,0,1-.06-.2L237.27,51h-4.45l-1.23,2.33a1.1,1.1,0,0,1-.14.21.55.55,0,0,1-.24.13,1.91,1.91,0,0,1-.42.07l-.65,0a5.62,5.62,0,0,1-.66,0,.45.45,0,0,1-.31-.13.33.33,0,0,1,0-.3,2.72,2.72,0,0,1,.24-.51l5.75-10.51a1.46,1.46,0,0,1,.18-.26.59.59,0,0,1,.26-.14,1.71,1.71,0,0,1,.46-.07h1.61a1.9,1.9,0,0,1,.49.07.36.36,0,0,1,.23.15.88.88,0,0,1,.07.27Zm-3.6-8.68h0l-2.64,5h3.33Z"/><path class="cls-2" d="M252.92,42.21s0,.11,0,.21,0,.2,0,.31a2.37,2.37,0,0,1-.09.36,2.89,2.89,0,0,1-.11.35.79.79,0,0,1-.17.25.26.26,0,0,1-.21.1h-3l-1.9,9.55a.59.59,0,0,1-.1.17,1,1,0,0,1-.23.12,2.62,2.62,0,0,1-.38.07,4.91,4.91,0,0,1-.59,0,4.51,4.51,0,0,1-.58,0,1.77,1.77,0,0,1-.35-.07.41.41,0,0,1-.17-.12.25.25,0,0,1,0-.17l1.9-9.55h-2.95a.17.17,0,0,1-.18-.1.52.52,0,0,1,0-.27,2,2,0,0,1,0-.22c0-.09,0-.2.05-.32s0-.24.08-.36a1.8,1.8,0,0,1,.12-.35,1.21,1.21,0,0,1,.17-.25.28.28,0,0,1,.2-.09h8.35a.19.19,0,0,1,.17.1A.53.53,0,0,1,252.92,42.21Z"/><path class="cls-2" d="M264.1,42.17a1.82,1.82,0,0,1,0,.2c0,.09,0,.19,0,.3s0,.23-.07.35a1.5,1.5,0,0,1-.12.34.89.89,0,0,1-.16.25.29.29,0,0,1-.21.1h-4.23l-.58,2.89h3.59a.19.19,0,0,1,.18.1.55.55,0,0,1,.05.25,1.72,1.72,0,0,1,0,.2c0,.09,0,.19,0,.3a2.09,2.09,0,0,1-.08.34,1.33,1.33,0,0,1-.11.32.91.91,0,0,1-.16.24.28.28,0,0,1-.2.09h-3.58l-.68,3.35h4.29a.18.18,0,0,1,.16.09.55.55,0,0,1,.06.28s0,.11,0,.2,0,.2,0,.31-.05.23-.08.34a1.61,1.61,0,0,1-.12.33.72.72,0,0,1-.16.24.29.29,0,0,1-.21.09h-5.95a.71.71,0,0,1-.26,0,.41.41,0,0,1-.2-.14.44.44,0,0,1-.1-.24,1,1,0,0,1,0-.34l2.07-10.32a1,1,0,0,1,.33-.59.92.92,0,0,1,.55-.17h5.9C264,41.83,264.1,41.94,264.1,42.17Z"/><g class="cls-1"><path class="cls-2" d="M42.11,32.43a.55.55,0,0,1-.29.71l-1.16.51a.51.51,0,0,1-.66-.23l-16,0L20.55,35,28,51.23,25.3,52.92l-1.88,1.2L12.66,38.55l-2.44,1.11a.56.56,0,0,1-.75-.28l-2.73-6L4,27.3a.56.56,0,0,1,.27-.75l14.05-6.41h0L29.1,8.47,29,8.19a.53.53,0,0,1,.28-.69L30.43,7a.55.55,0,0,1,.71.28l3.77,8.64a4.76,4.76,0,0,1,3.56,8.18Z"/><path class="cls-2" d="M37.37,13.05a1,1,0,0,1-.15-1.46l6-7.36a1.06,1.06,0,0,1,1.46-.14,1,1,0,0,1,.14,1.46l-6,7.35a1,1,0,0,1-.79.38A1,1,0,0,1,37.37,13.05Z"/><path class="cls-2" d="M42.56,16.3l8.56-4.18a1.18,1.18,0,0,1,.45-.1A1,1,0,0,1,52,14l-8.55,4.17a1.06,1.06,0,0,1-.45.11,1,1,0,0,1-.46-2Z"/><path class="cls-2" d="M53.38,25.89a1.36,1.36,0,0,1,0,.2,1,1,0,0,1-1.21.83L42.8,25.18a1,1,0,0,1-.84-1c0-.07,0-.14,0-.2a1,1,0,0,1,1.21-.83l9.35,1.73A1,1,0,0,1,53.38,25.89Z"/><path class="cls-2" d="M54.41,36.92A28,28,0,0,1,5.73,44.61a27.72,27.72,0,0,0,11.82,8A28,28,0,0,0,49.1,9.24,27.94,27.94,0,0,1,54.41,36.92Z"/></g><circle class="cls-2" cx="33.15" cy="17.83" r="5.06"/><polygon class="cls-2" points="17.26 32.1 25.54 50.27 22.7 52.06 20.69 53.33 8.71 35.99 17.26 32.1"/><polygon class="cls-2" points="17.26 32.1 25.54 50.27 22.7 52.06 14.23 33.48 17.26 32.1"/><polygon class="cls-2" points="26.89 4.72 39.03 31.37 38.78 31.37 20.85 31.34 14.72 17.89 26.89 4.72"/><polygon class="cls-2" points="32.61 17.83 38.78 31.37 20.85 31.34 17.78 24.59 32.61 17.83"/><rect class="cls-3" x="32.32" y="2.33" width="2.49" height="30.27" rx="0.57" transform="translate(-4.18 14.86) rotate(-23.55)"/><rect class="cls-3" x="2.18" y="20" width="17.58" height="15.29" rx="0.6" transform="translate(-10.47 7.04) rotate(-24.5)"/><path class="cls-3" d="M19,24l2.9,6.36a.63.63,0,0,1-.3.8L6.69,38a.6.6,0,0,1-.79-.29L3,31.33Z"/><rect class="cls-2" x="33.25" y="3.9" width="12.29" height="2.2" rx="1.1" transform="translate(10.53 32.27) rotate(-50.61)"/><rect class="cls-2" x="39.88" y="10.88" width="12.29" height="2.2" rx="1.1" transform="translate(-0.59 21.4) rotate(-26.01)"/><rect class="cls-2" x="40.28" y="21.37" width="12.29" height="2.2" rx="1.1" transform="translate(4.86 -8.07) rotate(10.48)"/></g></g></svg>