<svg xmlns="http://www.w3.org/2000/svg" viewBox="0 0 102.79 182.57"><defs><style>.cls-1{fill:#8cc863;}.cls-2{fill:#8bc862;stroke:#8bc863;}.cls-10,.cls-13,.cls-2{stroke-miterlimit:10;}.cls-3{fill:#ffca2a;}.cls-4{fill:#f1f0f0;}.cls-5{fill:#fff;}.cls-6{fill:#e77f25;}.cls-7{fill:#afc7e3;}.cls-10,.cls-8{fill:#f3bc82;}.cls-9{fill:#e3b17a;}.cls-10{stroke:#e3b17a;}.cls-11{fill:#f9f9fc;}.cls-12{fill:#1b232e;}.cls-13{fill:#ffca29;stroke:#e27b26;}</style></defs><g id="Layer_2" data-name="Layer 2"><g id="Layer_1-2" data-name="Layer 1"><path class="cls-1" d="M78.3,72.64l-2.48,1.08a1.09,1.09,0,0,1-1.4-.48l-34-.06-5.57,2.55-1.64.75,1.91,4.18v0l.2.43L37.54,86l.16.35,0,.11.28.63,2.1,4.59.28.62L41,93.45l.36.8,2,4.41.39.86,0,0,2.38,5.23L49,111l-5.68,3.58-4,2.54-1.86-2.7-1.61-2.32-19.35-28-1.67.76-.46.21-3,1.39a1.19,1.19,0,0,1-1.58-.6l-.82-1.8L6.82,79.52,5.69,77,3.92,73.16.14,64.88,0,64.56V58.05L25.49,46.42l2.58-1.18.34-.15.06,0L51.33,20.34l-.26-.58a1,1,0,0,1-.09-.41,1.15,1.15,0,0,1,.32-.82,1.21,1.21,0,0,1,.37-.25l2.47-1.1a1.15,1.15,0,0,1,1.5.6l4.08,9.35,3.91,9H64a10.11,10.11,0,0,1,7.28,3,9.88,9.88,0,0,1,2,2.91,10.11,10.11,0,0,1-1.87,11.16l-.29.29L76.44,65.5l2.46,5.64A1.15,1.15,0,0,1,78.3,72.64Z"/><path class="cls-1" d="M68.85,30A2.2,2.2,0,0,1,68.53,27l12.8-15.59a2.22,2.22,0,0,1,1.7-.8,2.2,2.2,0,0,1,1.7,3.6L71.92,29.74a2.16,2.16,0,0,1-1.67.8A2.19,2.19,0,0,1,68.85,30Z"/><path class="cls-1" d="M79.86,36.94,98,28.09a2.32,2.32,0,0,1,1-.22,2.19,2.19,0,0,1,1,4.17L81.79,40.89a2.39,2.39,0,0,1-1,.22,2.2,2.2,0,0,1-1-4.17Z"/><path class="cls-1" d="M102.79,57.28a2.71,2.71,0,0,1,0,.41,2.19,2.19,0,0,1-2.56,1.76L80.38,55.78a2.18,2.18,0,0,1-1.8-2.14,3,3,0,0,1,0-.42,2.2,2.2,0,0,1,2.55-1.76L101,55.14A2.18,2.18,0,0,1,102.79,57.28Z"/><path class="cls-2" d="M38.21,114.25l-.28.17-3.78,2.31L30.47,119h0a2.29,2.29,0,0,1,.46,1.77,2.49,2.49,0,0,1-.3.81l-1.43,2.37,1.34.7.82.43a2.28,2.28,0,0,1,.94.93,2.13,2.13,0,0,1,.27.84,2.28,2.28,0,0,1-.24,1.32l-.52,1-1.12,2.14,0,.09a2.44,2.44,0,0,1-.14.28h0l-.44.84-1.59,3-1,1.91-.72,1.38-.3-.16-14.1,23L.51,180.8V110.41a2.27,2.27,0,0,1,2.43-.21l1.24.65,0-.06.52-.87,1.52-2.5L6.5,107a2.32,2.32,0,0,1,1.64-1.09c-.13-.51-.26-1-.38-1.6A46.17,46.17,0,0,1,7,88.51a34.87,34.87,0,0,1,2.23-4.1,4,4,0,0,1,.22-.34,31.63,31.63,0,0,1,2.67-3.58l.12-.13A12.29,12.29,0,0,1,16.26,77,17.62,17.62,0,0,1,20.7,75.8c.9-.17,1.68-.32,2.39-.44a23.29,23.29,0,0,1,3.4-.36h.79l.77,0a17,17,0,0,1,2.74.25h.08a3.86,3.86,0,0,1,1.34.55,2.39,2.39,0,0,1,.67.64,4.3,4.3,0,0,1,.24,3.9h0a7.46,7.46,0,0,1-.32.74,3.64,3.64,0,0,1-.23.39,5.26,5.26,0,0,1-.45.58h0a5.75,5.75,0,0,1-1.79,1.32,11,11,0,0,1-1.6.61,6.44,6.44,0,0,1-1.55.28c-.7.06-1.53.05-2.68,0a21.51,21.51,0,0,1-3.07-.14,2.4,2.4,0,0,1-1-.36,1.44,1.44,0,0,0-1-.32,1.19,1.19,0,0,0-.72.48,1.81,1.81,0,0,0,0,1.57,9.83,9.83,0,0,0,.94,1.82c.09.13.15.23.2.29l.06.09,0,0,16.65,24.1Z"/><path class="cls-2" d="M34.18,84.35a2.86,2.86,0,0,1-.2-1.07,2.92,2.92,0,0,1,1.86-2.72l2.44-1a2.92,2.92,0,0,1,3.79,1.66,2.86,2.86,0,0,1,.2,1.07A2.91,2.91,0,0,1,40.42,85L38,86A2.93,2.93,0,0,1,34.18,84.35Z"/><path class="cls-2" d="M37.7,86.52l4.63-1.82a2.93,2.93,0,0,1,3.79,1.65,2.86,2.86,0,0,1,.2,1.07,2.91,2.91,0,0,1-1.85,2.72L39.84,92a2.92,2.92,0,0,1-3.79-1.65,2.86,2.86,0,0,1-.2-1.07A2.91,2.91,0,0,1,37.7,86.52Z"/><path class="cls-2" d="M48.07,97l-5.56,2.18a3.49,3.49,0,0,1-4.54-2,3.38,3.38,0,0,1-.24-1.28A3.5,3.5,0,0,1,40,92.65l5.56-2.18a3.51,3.51,0,0,1,4.55,2,3.38,3.38,0,0,1,.24,1.28A3.5,3.5,0,0,1,48.07,97Z"/><path class="cls-2" d="M51.17,101a2.92,2.92,0,0,1-1.85,2.72l-2.45,1A2.92,2.92,0,0,1,43.08,103a2.86,2.86,0,0,1-.2-1.07,2.91,2.91,0,0,1,1.85-2.71l2.45-1A2.93,2.93,0,0,1,51,99.94,2.86,2.86,0,0,1,51.17,101Z"/><circle class="cls-3" cx="60.68" cy="37.8" r="10.72"/><path class="cls-4" d="M38.54,110.38l-4.26,2.69-2-2.85L14.05,83.8l0,0L14,83.67c-.05-.06-.11-.16-.2-.29-.5-.78-1.54-2.58-1-3.39a1.19,1.19,0,0,1,.72-.48,1.44,1.44,0,0,1,1,.32c.68.46,1.81.48,4.08.5A13.43,13.43,0,0,0,22.82,80a11,11,0,0,0,1.6-.61Z"/><path class="cls-4" d="M44.55,106.57l-6,3.81-14.12-31a11,11,0,0,1-1.6.61,13.43,13.43,0,0,1-4.23.32c-2.27,0-3.4,0-4.08-.5a1.44,1.44,0,0,0-1-.32,1.19,1.19,0,0,0-.72.48c-.55.81.49,2.61,1,3.39L10.08,78l-1.2-1.73L20.58,71h0L27,68.06l.86,1.88Z"/><polygon class="cls-5" points="44.55 106.57 38.54 110.38 24.42 79.4 21.44 72.86 20.58 70.98 20.59 70.97 26.99 68.06 27.85 69.94 44.55 106.57"/><polygon class="cls-5" points="47.41 10 73.16 66.5 72.62 66.5 34.62 66.44 21.62 37.92 47.41 10"/><polygon class="cls-4" points="59.54 37.8 72.62 66.5 34.62 66.44 28.1 52.13 59.54 37.8"/><rect class="cls-6" x="58.92" y="4.93" width="5.27" height="64.18" rx="0.57" transform="translate(-9.66 27.68) rotate(-23.55)"/><path class="cls-3" d="M36.2,66.14l-.66.3-7.69,3.5L25,71.26h0l-3.52,1.6L10.08,78,6.82,79.52l-2.23,1a1.24,1.24,0,0,1-1.31-.16,1.28,1.28,0,0,1-.37-.46L0,73.53V47L22.77,36.65h0a1.27,1.27,0,0,1,1.64.64l3.63,8L30.68,51l6.15,13.5A1.28,1.28,0,0,1,36.2,66.14Z"/><path class="cls-6" d="M36.2,66.14l-.66.3-7.69,3.5L25,71.26h0l-3.52,1.6L10.08,78,6.82,79.52l-2.23,1a1.24,1.24,0,0,1-1.31-.16,1.28,1.28,0,0,1-.37-.46L0,73.53V64.94l.14-.06,28-12.74L30.68,51l6.15,13.5A1.28,1.28,0,0,1,36.2,66.14Z"/><rect class="cls-7" x="60.89" y="8.27" width="26.06" height="4.66" rx="2.33" transform="translate(18.82 61.01) rotate(-50.61)"/><rect class="cls-7" x="74.96" y="23.06" width="26.06" height="4.66" rx="2.33" transform="translate(-2.22 41.16) rotate(-26.01)"/><rect class="cls-7" x="75.8" y="45.31" width="26.06" height="4.66" rx="2.33" transform="translate(10.15 -15.37) rotate(10.48)"/><path class="cls-8" d="M28.25,112.7l-3.68,2.22h0c-2.06.13-9.92.39-16.5-5.22a21.8,21.8,0,0,1-5.78-7.79s0,0,0,0A47.24,47.24,0,0,1,.72,89.23a46,46,0,0,1,.33-4.75,34.87,34.87,0,0,1,2.23-4.1,32.3,32.3,0,0,1,2.89-3.92,12.57,12.57,0,0,1,4.19-3.53,17.62,17.62,0,0,1,4.44-1.16,34.64,34.64,0,0,1,5.79-.8h.79a20.57,20.57,0,0,1,3.59.28,3.18,3.18,0,0,1,2,1.19c1,1.39.55,3.45-.08,4.65a3.64,3.64,0,0,1-.23.39,5.44,5.44,0,0,1-2.25,1.91,11,11,0,0,1-1.6.61,13.43,13.43,0,0,1-4.23.32,21.51,21.51,0,0,1-3.07-.14,2.4,2.4,0,0,1-1-.36,1.44,1.44,0,0,0-1-.32,1.19,1.19,0,0,0-.72.48,1.81,1.81,0,0,0,.05,1.57l-.21.1Z"/><path class="cls-9" d="M32.31,110.22l-4.06,2.48-15.64-31,.21-.1a9.83,9.83,0,0,0,.94,1.82c.09.13.15.23.2.29l.06.09,0,0Z"/><path class="cls-10" d="M36.37,78.3A2.91,2.91,0,0,1,34.52,81l-2.45,1a2.93,2.93,0,0,1-3.79-1.65,2.86,2.86,0,0,1-.2-1.07,2.92,2.92,0,0,1,1.86-2.72l2.44-1a2.92,2.92,0,0,1,3.79,1.66A2.86,2.86,0,0,1,36.37,78.3Z"/><path class="cls-10" d="M40.42,83.39a2.91,2.91,0,0,1-1.85,2.72l-4.63,1.82a2.92,2.92,0,0,1-3.79-1.65,2.86,2.86,0,0,1-.2-1.07,2.91,2.91,0,0,1,1.85-2.72l4.63-1.82a2.93,2.93,0,0,1,3.79,1.65A2.86,2.86,0,0,1,40.42,83.39Z"/><path class="cls-10" d="M44.4,89.7A3.5,3.5,0,0,1,42.17,93l-5.56,2.18a3.49,3.49,0,0,1-4.54-2,3.38,3.38,0,0,1-.24-1.28,3.5,3.5,0,0,1,2.22-3.26l5.56-2.18a3.51,3.51,0,0,1,4.55,2A3.38,3.38,0,0,1,44.4,89.7Z"/><path class="cls-10" d="M45.27,97a2.92,2.92,0,0,1-1.85,2.72l-2.45,1A2.92,2.92,0,0,1,37.18,99a2.86,2.86,0,0,1-.2-1.07,2.91,2.91,0,0,1,1.85-2.71l2.45-1a2.93,2.93,0,0,1,3.79,1.65A2.86,2.86,0,0,1,45.27,97Z"/><path class="cls-11" d="M24.69,117.5l-1.43,2.37-.52.85-.34.56a2.27,2.27,0,0,1-3.13.78l-2.22-1.34L0,110.45V104l.6-1a2.32,2.32,0,0,1,1.64-1.09,2.34,2.34,0,0,1,1.49.31l3.52,2.12,16.66,10a2.09,2.09,0,0,1,.62.56A2.27,2.27,0,0,1,24.69,117.5Z"/><path class="cls-12" d="M26.39,124.09l-1.69,3.22a2.44,2.44,0,0,1-.14.28h0l-3.75,7.16-.3-.16-15.58,27L0,170.14V107.72l4.22,2.2,19,10,1.62.85.54.28A2.3,2.3,0,0,1,26.39,124.09Z"/><circle class="cls-13" cx="16.31" cy="125.39" r="3.81"/></g></g></svg>