<svg xmlns="http://www.w3.org/2000/svg" viewBox="0 0 902.53 723"><defs><style>.cls-1{fill:#fff;opacity:0.1;}</style></defs><g id="Layer_2" data-name="Layer 2"><g id="Layer_2-2" data-name="Layer 2"><path class="cls-1" d="M901.2,0c.44.45.88.89,1.33,1.33V116.81c-18.21-26.2-40.21-49.87-65.7-69q-9.47-7.11-19.57-13.36-4.07-2.5-8-4.75c-6.45-3.65-12.74-6.81-18.88-9.55q-6.54-2.92-12.85-5.24A227,227,0,0,0,728.34,3C718.47,1.65,709,.82,699.85,0Z"/><path class="cls-1" d="M902.53,0V135.64c-1.39-3.56-2.93-7.12-4.66-10.69-.2-.42-.41-.84-.61-1.25-15-30.07-33.14-37.46-60.53-49.58-5.23-2.31-10.81-4.8-16.76-7.66a325.26,325.26,0,0,1-34.43-19,379.3,379.3,0,0,1-38-27.77l-1-.78C739.85,13.33,733.82,8.05,728.34,3q-1.65-1.51-3.22-3Z"/><path class="cls-1" d="M902.53,0V222.41c-52.46-45-67.59-101.74-82.56-155.95-1.2-4.32-2.39-8.62-3.6-12.89q-.75-2.66-1.51-5.29c-1.8-6.26-3.66-12.46-5.64-18.59q-1.22-3.8-2.51-7.56c-2.59-7.53-5.4-14.92-8.54-22.13Z"/><path class="cls-1" d="M902.53,0V52c-30.31-14.45-62.66-24.93-95.82-29.89q-7.11-1.08-14.26-1.79l-2.11-.2q-4-.37-7.9-.62a241.72,241.72,0,0,0-90,10.89c-46.94,14.38-79.83,35.26-132,18.25C530.92,39.06,506.88,21.19,487.31,0Z"/><path class="cls-1" d="M902.53,0V59.83c-22.35-12.67-40.77-12.71-65.7-12-6.78.19-14,.43-22,.48h-3.63c-7.84,0-16.34-.22-25.69-.86a420,420,0,0,1-67.86-10.49c-9.15-2.13-17.52-4.32-25.27-6.53C656.32,20.11,633.89,9.22,610.64,0Z"/><path class="cls-1" d="M389.84,0h.64l-.74.3C389.77.2,389.81.1,389.84,0Z"/><path class="cls-1" d="M902.53,0V127c-1.78-1.07-3.53-2.15-5.27-3.25C874.45,109.26,855,92,836.73,74.12c-6.93-6.8-13.68-13.69-20.36-20.55l-5.14-5.28c-9.56-9.83-19-19.54-28.79-28.77q-2.46-2.34-5-4.62C771.89,9.73,766.18,4.74,760.3,0Z"/><path class="cls-1" d="M290.42,723H40.18L1.53,710.15V563.91L0,561.7l1.53-.57c1.33-.49,2.67-1,4-1.44q2.67-.95,5.37-1.83a197.19,197.19,0,0,1,49.51-9.81,138.47,138.47,0,0,1,52.36,6.56c48.2,16.08,60.46,51.83,86.81,90.37,13.78,20.17,31.42,41.09,60.08,60.36q3.79,2.55,7.85,5.06A261.23,261.23,0,0,0,290.42,723Z"/><path class="cls-1" d="M590.07,713.34,586.86,723H571.22C578.73,719.48,585.06,716.13,590.07,713.34Z"/><path class="cls-1" d="M327.8,723h-295L1.53,712.59V563.91L0,561.7l1.53-.57v-4.92q2,1.74,4,3.48a348.43,348.43,0,0,0,44.66,32.5c.73.46,1.46.91,2.2,1.35,4.91,3,9.6,5.62,14.1,8C115,627.43,142.09,623.21,199.59,645c7,2.64,14.39,5.66,22.35,9.16C257.2,669.66,280,685,297.36,698.48,309.36,707.78,318.73,716.15,327.8,723Z"/><path class="cls-1" d="M503.78,723h-24a84.91,84.91,0,0,1,21.83-.3C502.35,722.79,503.07,722.89,503.78,723Z"/><path class="cls-1" d="M502,723H1.53V563.91c26,37.31,51.05,65.36,74.86,86.32h0a276.62,276.62,0,0,0,45,32.69c28.18,16.21,53.85,23.11,76.23,25.3,20.61,2,41.22.31,62-2.89,12.47-1.91,25-4.36,37.69-6.86,57-11.25,116.45-23.56,182.66,6.71,6.71,3.07,13.29,10.2,21.62,17.51Z"/><path class="cls-1" d="M115.9,723H4.79l-3.26-3.26V563.91L0,561.7l1.53-.57V468.34a133.92,133.92,0,0,1,28.86,21.88c18.5,18.54,26.13,37.49,30,57.83,3.21,16.71,3.91,34.36,6.08,53.51.31,2.74.65,5.52,1,8.32a234.71,234.71,0,0,0,8.86,40.35h0a215.11,215.11,0,0,0,17.84,40.54q2.25,4,4.75,8A258.65,258.65,0,0,0,115.9,723Z"/><path class="cls-1" d="M140.74,723H1.53V563.91L0,561.7l1.53-.57V549.54c3.1,2.85,6.22,5.6,9.38,8.32C23,568.23,35.65,578.25,50.2,592.19c5.49,5.27,11.24,11.08,17.33,17.69,5,5.48,10.34,11.51,15.89,18.22a359,359,0,0,1,38,54.83c3.66,6.59,6.8,12.77,9.59,18.59C134.72,709.3,137.83,716.43,140.74,723Z"/><path class="cls-1" d="M199.05,723H1.53V635.59a177.52,177.52,0,0,0,35.93,30c17.52,11,36.71,18.73,56.77,25.2,12,3.87,24.31,7.3,36.76,10.74C153.58,707.76,176.61,714,199.05,723Z"/></g></g></svg>